<?xml version="1.0"?>
<svg xmlns="http://www.w3.org/2000/svg" xmlns:xlink="http://www.w3.org/1999/xlink" data-noselect="" viewBox="0 0 800 600" width="1600" height="1200" preserveAspectRatio="none" version="1.1"><defs/> <g id="background" data-noselect=""><rect fill="#FFFFFF" width="800" height="600" data-noselect=""/> <!----></g> <g id="shape_JZfIU9uh3q" transform="translate(307.13218760056,132.01373232560945) rotate(0,92.867812399435,92.867812399435) scale(1,1)" filter="" style="cursor: move; opacity: 1;"><g><svg xmlns="http://www.w3.org/2000/svg" xmlns:xlink="http://www.w3.org/1999/xlink" version="1.1" id="&#x56FE;&#x5C42;_1" x="0px" y="0px" style="enable-background:new 0 0 283.465 283.465;" xml:space="preserve" viewBox="10.951000213623047 13.619999885559082 262.04901123046875 247.20001220703125" width="185.73562479887" height="175.2109214301923" class="style-removed" preserveAspectRatio="none" data-parent="shape_JZfIU9uh3q">
<g>
	<defs>
		<filter id="Adobe_OpacityMaskFilter" filterUnits="userSpaceOnUse" x="10.951" y="113.118" width="168.693" height="147.701">
			<feColorMatrix type="matrix" values="1 0 0 0 0  0 1 0 0 0  0 0 1 0 0  0 0 0 1 0"/>
		</filter>
	</defs>
	<mask maskUnits="userSpaceOnUse" x="10.951" y="113.118" width="168.693" height="147.701" id="SVGID_1_">
		<g filter="url(#Adobe_OpacityMaskFilter)">
			<rect x="10.951" y="119.483" width="161.776" height="141.337" fill-rule="evenodd" clip-rule="evenodd" fill="#FFFFFF" stroke-width="0"/>
			<g>
				<g>
					<g>
						<defs>
							<rect id="SVGID_2_" x="10.951" y="119.483" width="161.776" height="141.337" data-ignorecolor="" stroke-width="0"/>
						</defs>
						<clipPath id="SVGID_3_">
							<use xlink:href="#SVGID_2_" overflow="visible" data-ignorecolor=""/>
						</clipPath>
						<g>
							
							<linearGradient id="SVGID_4_" gradientUnits="userSpaceOnUse" x1="87.3177" y1="123.7196" x2="96.487" y2="256.455">
								<stop offset="0" stop-color="#FFFFFF"/>
								<stop offset="1" stop-color="#000000"/>
							</linearGradient>
							<rect x="10.951" y="119.356" width="161.903" height="141.464" clip-path="url(#SVGID_3_)" fill="url(#SVGID_4_)" stroke-width="0"/>
						</g>
					</g>
				</g>
			</g>
		</g>
	</mask>
	<g mask="url(#SVGID_1_)">
		<g>
			<defs>
				<rect id="SVGID_5_" x="10.951" y="119.483" width="161.776" height="141.337" data-ignorecolor="" stroke-width="0"/>
			</defs>
			<clipPath id="SVGID_6_">
				<use xlink:href="#SVGID_5_" overflow="visible" data-ignorecolor=""/>
			</clipPath>
			<g clip-path="url(#SVGID_6_)">
				<defs>
					<path id="SVGID_7_" d="M10.951,151.817V260.82h146.613c-34.048,0-61.65-27.602-61.65-61.65c0-6.808,1.106-13.357,3.144-19.481       l-0.003-0.002l-0.002,0c1.885-5.71,4.337-11.163,7.291-16.29l0.001,0c6.15-10.456,17.518-17.476,30.526-17.476       c4.66,0,9.109,0.902,13.184,2.539c6.021,2.09,11.488,6.248,15.501,12.121c4.219,5.826,6.708,12.989,6.708,20.733       c7.381-62.904-75.209-68.196-118.753-44.923l7.719-16.909C47.861,124.957,29.067,136.736,10.951,151.817" data-ignorecolor="" stroke-width="0"/>
				</defs>
				<clipPath id="SVGID_8_">
					<use xlink:href="#SVGID_7_" overflow="visible" data-ignorecolor=""/>
				</clipPath>
				
					<linearGradient id="SVGID_9_" gradientUnits="userSpaceOnUse" x1="-1413.3831" y1="1774.7178" x2="-1317.4336" y2="1717.4161" gradientTransform="matrix(1 0 0 1 1449.0605 -1552.1431)">
					<stop offset="0" stop-color="#F79BFA"/>
					<stop offset="1" stop-color="#FD63F4"/>
				</linearGradient>
				<rect x="10.951" y="113.118" width="168.693" height="147.701" clip-path="url(#SVGID_8_)" fill="url(#SVGID_9_)" stroke-width="0"/>
			</g>
		</g>
	</g>
	<g>
		<defs>
			<path id="SVGID_10_" d="M80.108,260.82h77.456c-34.048,0-61.65-27.602-61.65-61.65c0-6.808,1.106-13.357,3.144-19.481     l-0.003-0.002l-0.002,0c1.885-5.71,4.337-11.163,7.291-16.29l0.001,0c6.15-10.456,17.518-17.476,30.526-17.476     c-0.763-0.036-1.522-0.057-2.274-0.064l-0.036-0.001c-47.915-0.4-74.436,57.861-60.65,87.942l-9.189-8.27     C63.122,236.963,69.918,249.324,80.108,260.82" data-ignorecolor="" stroke-width="0"/>
		</defs>
		<clipPath id="SVGID_11_">
			<use xlink:href="#SVGID_10_" overflow="visible" data-ignorecolor=""/>
		</clipPath>
		<linearGradient id="SVGID_12_" gradientUnits="userSpaceOnUse" x1="115.5269" y1="255.0415" x2="103.7056" y2="163.226">
			<stop offset="0" stop-color="#E795F6"/>
			<stop offset="1" stop-color="#BC14DE"/>
		</linearGradient>
		<rect x="60.125" y="145.458" width="97.439" height="115.362" clip-path="url(#SVGID_11_)" fill="url(#SVGID_12_)" stroke-width="0"/>
	</g>
	<g>
		<defs>
			<path id="SVGID_13_" d="M135.272,145.868c0.1,0.002,0.199,0.004,0.298,0.007L135.272,145.868z M10.951,260.82h69.157     c-10.189-11.496-16.985-23.857-15.386-35.29l9.189,8.27c-13.786-30.081,12.734-88.342,60.65-87.942     c-29.837-0.354-72.18,18.75-84.174,45.67l1.464-15.439c0,0-24.586,25.085-40.899,51.509V260.82z" data-ignorecolor="" stroke-width="0"/>
		</defs>
		<clipPath id="SVGID_14_">
			<use xlink:href="#SVGID_13_" overflow="visible" data-ignorecolor=""/>
		</clipPath>
		<linearGradient id="SVGID_15_" gradientUnits="userSpaceOnUse" x1="30.1408" y1="297.5107" x2="100.6168" y2="143.2676">
			<stop offset="0" stop-color="#FDDEFE"/>
			<stop offset="1" stop-color="#D937FA"/>
		</linearGradient>
		<rect x="10.951" y="145.458" width="124.619" height="115.362" clip-path="url(#SVGID_14_)" fill="url(#SVGID_15_)" stroke-width="0"/>
	</g>
	<g>
		<defs>
			<path id="SVGID_16_" d="M10.951,151.817c18.116-15.082,36.91-26.861,50.279-32.334l-7.719,16.909     c29.173-15.592,75.869-18.36,101.296,0.428c5.769,4.279,8.482,8.213,9.055,8.842c-9.877-12.906-31.09-16.057-45.6-17.266     c-31.795-2.65-75.905,21.136-75.905,21.136l5.107-16.108L10.951,151.817z" data-ignorecolor="" stroke-width="0"/>
		</defs>
		<clipPath id="SVGID_17_">
			<use xlink:href="#SVGID_16_" overflow="visible" data-ignorecolor=""/>
		</clipPath>
		<linearGradient id="SVGID_18_" gradientUnits="userSpaceOnUse" x1="136.9476" y1="118.0261" x2="27.5867" y2="155.3291">
			<stop offset="0" stop-color="#AE1CDB"/>
			<stop offset="1" stop-color="#FBA6FA"/>
		</linearGradient>
		<rect x="10.951" y="118.032" width="152.911" height="33.786" clip-path="url(#SVGID_17_)" fill="url(#SVGID_18_)" stroke-width="0"/>
	</g>
	<g>
		<defs>
			<path id="SVGID_19_" d="M10.951,252.917v-25.319c16.313-26.424,40.899-51.509,40.899-51.509l-1.464,15.439     c8.564-19.222,32.602-34.456,56.511-41.47c-24.154,8.612-48.865,37.821-60.204,60.354l-1.56-16.155     c0,0-3.402,5.311-11.488,19.096C25.558,227.138,10.951,252.917,10.951,252.917" data-ignorecolor="" stroke-width="0"/>
		</defs>
		<clipPath id="SVGID_20_">
			<use xlink:href="#SVGID_19_" overflow="visible" data-ignorecolor=""/>
		</clipPath>
		<linearGradient id="SVGID_21_" gradientUnits="userSpaceOnUse" x1="106.5431" y1="151.1028" x2="10.0781" y2="253.1713">
			<stop offset="0" stop-color="#AB21B8"/>
			<stop offset="1" stop-color="#F5B9FD"/>
		</linearGradient>
		<rect x="10.951" y="150.058" width="95.947" height="102.859" clip-path="url(#SVGID_20_)" fill="url(#SVGID_21_)" stroke-width="0"/>
	</g>
	<g>
		<defs>
			<path id="SVGID_22_" d="M99.731,260.82H80.108c-10.189-11.496-16.985-23.857-15.386-35.29l9.189,8.27     c-12.368-26.985,7.708-76.642,46.564-86.288c-32.716,14.938-50.082,73.405-28.754,97.821l-13.049-2.389     C78.672,242.944,84.03,252.691,99.731,260.82z" data-ignorecolor="" stroke-width="0"/>
		</defs>
		<clipPath id="SVGID_23_">
			<use xlink:href="#SVGID_22_" overflow="visible" data-ignorecolor=""/>
		</clipPath>
		<linearGradient id="SVGID_24_" gradientUnits="userSpaceOnUse" x1="98.3678" y1="131.0846" x2="85.7386" y2="256.5073">
			<stop offset="0" stop-color="#84009E"/>
			<stop offset="1" stop-color="#E795F6"/>
		</linearGradient>
		<rect x="61.543" y="147.512" width="58.931" height="113.308" clip-path="url(#SVGID_23_)" fill="url(#SVGID_24_)" stroke-width="0"/>
	</g>
	<g>
		<defs>
			<path id="SVGID_25_" d="M133.119,97.15c-0.525,0-8.094,1.156-8.094,1.156l-18.291-12.089     C113.467,87.332,130.261,90.003,133.119,97.15z" data-ignorecolor="" stroke-width="0"/>
		</defs>
		<clipPath id="SVGID_26_">
			<use xlink:href="#SVGID_25_" overflow="visible" data-ignorecolor=""/>
		</clipPath>
		<linearGradient id="SVGID_27_" gradientUnits="userSpaceOnUse" x1="103.9588" y1="89.4956" x2="129.7025" y2="93.9559">
			<stop offset="0" stop-color="#EE84F4"/>
			<stop offset="1" stop-color="#C736E4"/>
		</linearGradient>
		<rect x="106.734" y="86.218" width="26.385" height="12.089" clip-path="url(#SVGID_26_)" fill="url(#SVGID_27_)" stroke-width="0"/>
	</g>
	<g>
		<defs>
			<path id="SVGID_28_" d="M157.564,260.82h42.768c39.967,0,72.668-32.701,72.668-72.668c0-30.954-19.617-57.544-47.03-67.966     c11.745-11.291,19.083-27.138,19.083-44.617c0-34.072-27.877-61.949-61.949-61.949H72.949H57.449h-15.5     c-17.049,0-30.999,13.95-30.999,30.999v39.665c15.843-15.241,37.371-24.614,61.091-24.614c1.332,0,2.656,0.03,3.974,0.089     l-10.108-5.228l0.018,0.004l0.16-0.022l0.001,0c0.12-0.017,0.24-0.034,0.36-0.05l0.029-0.004l0.042-0.005l0.153-0.021     l0.044-0.006l0.151-0.02l0.047-0.006l0.149-0.02l0.008-0.001l0.168-0.022l0.019-0.003l0.052-0.006l0.144-0.018l0.054-0.007     l0.141-0.018l0.008-0.001l0.133-0.016l0.055-0.007l0.059-0.007l0.136-0.016l0.021-0.002c0.12-0.014,0.241-0.029,0.362-0.042     l0.016-0.002l0.16-0.018l0.047-0.005l0.15-0.017l0.047-0.005l0.131-0.014l0.05-0.005l0.075-0.008l0.122-0.013     c0.257-0.027,0.515-0.053,0.773-0.079l0.03-0.003l0.141-0.014l0.041-0.004l0.09-0.009l0.107-0.01l0.191-0.018l0.014-0.001     l0.159-0.014l0.058-0.005l0.149-0.013l0.047-0.004l0.142-0.012l0.063-0.005l0.136-0.011l0.052-0.004     c0.119-0.01,0.238-0.019,0.356-0.028l0.039-0.003l0.162-0.013l0.039-0.003l0.144-0.011l0.031-0.002l0.117-0.008l0.082-0.006     l0.049-0.003l0.138-0.01l0.029-0.002l0.161-0.011l0.021-0.001l0.125-0.008l0.074-0.005l0.045-0.003l0.148-0.009l0.005,0     l0.13-0.008l0.018-0.001l0.11-0.006l0.141-0.008h0l0.135-0.008l0.064-0.004l0.054-0.003l0.133-0.007l0.013-0.001l0.141-0.007     l0.017-0.001l0.144-0.007l0.042-0.002l0.057-0.003l0.146-0.007l0.054-0.003l0.148-0.007l0.052-0.002l0.151-0.007l0.049-0.002     l0.154-0.006l0.046-0.002l0.156-0.006l0.044-0.002l0.159-0.006l0.042-0.001l0.162-0.006l0.039-0.001l0.033-0.001l0.167-0.005     l0.167-0.005l0.034-0.001l0.17-0.005l0.031-0.001l0.172-0.004l0.029-0.001l0.175-0.004l0.026,0l0.178-0.004l0.023,0l0.181-0.003     l0.021,0l0.183-0.003l0.018,0l0.186-0.003l0.016,0l0.188-0.002l0.013,0l0.191-0.002l0.01,0l0.194-0.001h0.008l0.197-0.001h0.005     l0.199,0h0.003l0.202,0c0.588,0,1.175,0.006,1.76,0.017l0.117,0.002c0.569,0.012,1.138,0.029,1.705,0.051l0.138,0.006     c0.569,0.023,1.137,0.051,1.704,0.084l0.086,0.005c0.55,0.033,1.099,0.072,1.647,0.114l0.161,0.013     c0.543,0.043,1.083,0.092,1.623,0.145l0.213,0.021c0.532,0.054,1.063,0.111,1.592,0.174c0.071,0.008,0.141,0.017,0.211,0.026     c0.492,0.059,0.983,0.123,1.473,0.19c0.087,0.012,0.174,0.024,0.261,0.036c0.496,0.07,0.991,0.144,1.484,0.222     c0.117,0.018,0.233,0.037,0.349,0.056c0.465,0.075,0.929,0.154,1.391,0.236c0.14,0.025,0.28,0.05,0.42,0.076     c0.41,0.075,0.818,0.153,1.226,0.233c0.176,0.035,0.352,0.07,0.528,0.105c0.399,0.081,0.796,0.165,1.193,0.251     c0.175,0.038,0.35,0.077,0.525,0.116c0.369,0.083,0.736,0.168,1.104,0.255c0.235,0.056,0.471,0.112,0.705,0.17     c0.313,0.077,0.627,0.156,0.94,0.236c0.284,0.073,0.566,0.147,0.849,0.222c0.287,0.077,0.574,0.155,0.861,0.235     c0.31,0.086,0.619,0.174,0.927,0.264c0.181,0.053,0.363,0.106,0.544,0.159c0.423,0.125,0.844,0.254,1.264,0.385     c0.137,0.043,0.275,0.086,0.412,0.13c0.392,0.125,0.783,0.252,1.172,0.382l0.061,0.02c4.068,1.359,8.008,3,11.795,4.899     l0.057,0.025c20.494,10.29,36.534,28.143,44.456,49.899l0.003,0.003l0,0c0.183,0.134,0.365,0.269,0.546,0.406l0.003,0.003     c0.176,0.133,0.352,0.268,0.526,0.403l0.024,0.019c0.174,0.135,0.347,0.271,0.518,0.409l0.008,0.006     c0.173,0.139,0.346,0.279,0.518,0.421l0.018,0.015c0.167,0.138,0.334,0.278,0.499,0.418l0.025,0.021     c0.161,0.137,0.321,0.275,0.48,0.414l0.039,0.034c0.163,0.143,0.326,0.287,0.487,0.432l0.017,0.015     c0.158,0.142,0.315,0.286,0.471,0.43l0.044,0.041c0.149,0.139,0.298,0.278,0.446,0.419l0.048,0.046     c0.15,0.144,0.3,0.288,0.449,0.434l0.037,0.036c0.146,0.143,0.291,0.288,0.435,0.433l0.065,0.066     c0.135,0.136,0.268,0.273,0.401,0.411l0.071,0.074c0.132,0.138,0.263,0.276,0.394,0.415l0.076,0.081     c0.127,0.136,0.253,0.272,0.377,0.409l0.104,0.114c0.118,0.13,0.235,0.26,0.351,0.392l0.096,0.108     c0.116,0.131,0.23,0.263,0.344,0.395l0.105,0.121c0.112,0.131,0.222,0.262,0.333,0.394l0.116,0.14     c0.108,0.13,0.216,0.261,0.323,0.393l0.108,0.133c0.103,0.128,0.206,0.256,0.307,0.386l0.12,0.152     c5.767,7.368,9.393,16.492,9.943,26.437v0.005c0.013,0.232,0.024,0.466,0.034,0.699c0.004,0.105,0.008,0.209,0.012,0.314     c0.004,0.097,0.007,0.195,0.01,0.292c0.005,0.189,0.01,0.378,0.013,0.567l0.001,0.076c0.004,0.232,0.005,0.465,0.005,0.698     c0,0.179-0.001,0.357-0.003,0.535v0c-0.002,0.178-0.005,0.356-0.008,0.534v0c-0.004,0.178-0.009,0.355-0.015,0.532v0     c-0.006,0.177-0.013,0.354-0.021,0.531v0.001c-0.008,0.176-0.017,0.353-0.026,0.529v0.001c-0.01,0.176-0.021,0.352-0.032,0.527     v0.001c-0.012,0.175-0.024,0.351-0.038,0.526v0.001c-0.013,0.175-0.028,0.35-0.044,0.524v0.001     c-0.016,0.174-0.032,0.348-0.05,0.522v0.001c-0.017,0.174-0.036,0.347-0.055,0.52v0.001c-0.019,0.173-0.039,0.346-0.061,0.518     v0.001c-0.021,0.172-0.044,0.344-0.066,0.517l0,0.002c-0.023,0.172-0.047,0.344-0.072,0.515v0.001     c-0.025,0.171-0.051,0.342-0.077,0.513l0,0.002c-0.027,0.17-0.054,0.341-0.083,0.511l0,0.002c-0.029,0.17-0.058,0.34-0.088,0.509     l0,0.002c-0.03,0.169-0.061,0.338-0.094,0.507l0,0.002c-0.032,0.168-0.065,0.337-0.099,0.505l0,0.002     c-0.034,0.168-0.068,0.336-0.105,0.503l0,0.002c-0.036,0.167-0.072,0.334-0.11,0.501l0,0.002     c-0.038,0.166-0.076,0.333-0.115,0.498l-0.001,0.003c-0.039,0.166-0.079,0.331-0.12,0.496l-0.001,0.003     c-0.041,0.165-0.083,0.33-0.125,0.494l-0.001,0.003c-0.043,0.164-0.086,0.328-0.13,0.492l-0.001,0.003     c-0.045,0.164-0.09,0.327-0.136,0.49l-0.001,0.003c-0.046,0.163-0.093,0.325-0.141,0.487l-0.001,0.003     c-0.048,0.162-0.097,0.324-0.146,0.485l-0.001,0.003c-0.049,0.161-0.1,0.322-0.151,0.483l-0.001,0.003     c-0.051,0.161-0.103,0.321-0.156,0.48l-0.001,0.004c-0.053,0.16-0.107,0.319-0.161,0.478c-0.047,0.139-0.096,0.278-0.145,0.416     l-0.022,0.063l-0.001,0.004c-0.056,0.158-0.113,0.316-0.171,0.473l-0.001,0.004c-0.057,0.157-0.116,0.314-0.176,0.471     l-0.001,0.004c-0.06,0.157-0.12,0.312-0.18,0.468l-0.001,0.004c-0.061,0.156-0.123,0.311-0.186,0.466l-0.002,0.004     c-0.063,0.155-0.126,0.309-0.19,0.463l-0.002,0.004c-0.064,0.154-0.129,0.308-0.195,0.461l-0.002,0.004     c-0.066,0.153-0.132,0.306-0.199,0.458l-0.002,0.004c-0.067,0.152-0.135,0.304-0.204,0.455l-0.002,0.004     c-0.069,0.152-0.139,0.302-0.209,0.453c-0.113,0.241-0.228,0.479-0.344,0.718c-0.031,0.063-0.061,0.125-0.091,0.188l-0.003,0.005     c-0.073,0.149-0.148,0.297-0.222,0.444l-0.003,0.005c-0.075,0.148-0.151,0.295-0.227,0.441c-0.077,0.148-0.155,0.296-0.234,0.443     l-0.003,0.005c-0.078,0.146-0.157,0.291-0.236,0.435l-0.003,0.005c-0.079,0.145-0.159,0.289-0.24,0.433l-0.003,0.005     c-0.081,0.144-0.162,0.287-0.245,0.43c-0.056,0.098-0.113,0.195-0.17,0.292c-0.027,0.046-0.054,0.093-0.082,0.14l-0.003,0.005     c-0.084,0.141-0.168,0.283-0.253,0.423c-0.235,0.388-0.475,0.772-0.72,1.152c-0.025,0.039-0.05,0.078-0.075,0.117l-0.003,0.005     c-0.09,0.138-0.18,0.275-0.27,0.411l-0.004,0.005c-0.091,0.137-0.182,0.273-0.274,0.409l-0.004,0.006     c-0.092,0.136-0.185,0.27-0.279,0.405c-0.159,0.23-0.322,0.458-0.485,0.685c-0.031,0.042-0.061,0.085-0.091,0.127l-0.005,0.006     c-0.096,0.132-0.193,0.264-0.29,0.395l-0.004,0.006c-0.098,0.131-0.196,0.262-0.295,0.392l-0.005,0.006     c-0.099,0.13-0.198,0.26-0.298,0.389l-0.005,0.006c-0.1,0.129-0.201,0.257-0.302,0.385c-0.2,0.252-0.403,0.503-0.608,0.751     l-0.023,0.029l-0.001,0.002c0-7.744-2.489-14.906-6.708-20.733c-4.013-5.873-9.48-10.031-15.501-12.121     c-4.075-1.637-8.524-2.539-13.184-2.539c-13.008,0-24.376,7.019-30.526,17.476c-0.749-0.375-6.827,14.883-7.292,16.289l0.002,0     l0.003,0.002c-2.038,6.124-3.144,12.673-3.144,19.481C95.914,233.218,123.516,260.82,157.564,260.82" data-ignorecolor="" stroke-width="0"/>
		</defs>
		<clipPath id="SVGID_29_">
			<use xlink:href="#SVGID_28_" overflow="visible" data-ignorecolor=""/>
		</clipPath>
		<linearGradient id="SVGID_30_" gradientUnits="userSpaceOnUse" x1="93.2334" y1="178.1139" x2="212.0994" y2="78.387">
			<stop offset="0" stop-color="#6D3BFC"/>
			<stop offset="1" stop-color="#A26FDC"/>
		</linearGradient>
		<rect x="10.951" y="13.62" width="262.049" height="247.2" clip-path="url(#SVGID_29_)" fill="url(#SVGID_30_)" stroke-width="0"/>
	</g>
	<g>
		<defs>
			<path id="SVGID_31_" d="M157.564,260.82c-34.048,0-61.65-27.602-61.65-61.65c0-6.808,1.106-13.357,3.144-19.481l-0.003-0.002     l-0.002,0c1.885-5.71,4.337-11.163,7.291-16.29l0.001,0c6.15-10.457,17.518-17.476,30.526-17.476     c4.66,0,9.109,0.903,13.184,2.539c6.021,2.09,11.488,6.248,15.501,12.121c1.361,1.88,2.542,3.898,3.517,6.031     c-48.271-53.466-115.939,61.438,5.702,94.207H157.564z" data-ignorecolor="" stroke-width="0"/>
		</defs>
		<clipPath id="SVGID_32_">
			<use xlink:href="#SVGID_31_" overflow="visible" data-ignorecolor=""/>
		</clipPath>
		<linearGradient id="SVGID_33_" gradientUnits="userSpaceOnUse" x1="90.4364" y1="122.7079" x2="133.0463" y2="239.1632">
			<stop offset="0" stop-color="#3C0169"/>
			<stop offset="1" stop-color="#6B39FD"/>
		</linearGradient>
		<rect x="53.134" y="113.147" width="121.641" height="147.673" clip-path="url(#SVGID_32_)" fill="url(#SVGID_33_)" stroke-width="0"/>
	</g>
</g>
</svg></g></g><g id="shape_RwMyvYnIc6" transform="translate(6.079999999999998,31.306267674390597) rotate(0,473.15837299071,334.68) scale(1,1)" filter="" style="cursor: move; opacity: 1;"><g><svg xmlns="http://www.w3.org/2000/svg" xmlns:xlink="http://www.w3.org/1999/xlink" version="1.1" width="973.68" height="669.36" viewBox="0 0 973.68 669.36" data-parent="shape_RwMyvYnIc6"><g data-width="601.657" transform="translate(93.09149999999998, 0)"><path d="M8.36-67.65L56.40-67.65L55.38-58.08L47.20-33.82L54.73-33.82L49.90 11.89L0 11.89L8.36-67.65ZM16.45-58.08L13.94-33.82L38.10-33.82L46.27-58.08L16.45-58.08ZM10.04 3.25L41.72 3.25L44.69-25.09L13.01-25.09L10.04 3.25Z" transform="translate(0 371.68) skewX(6)" fill="rgb(224, 106, 106)" stroke="rgb(224, 106, 106)" stroke-width="0.155" stroke-miterlimit="3" data-glyph-w="61.88472" data-glyph-h="111.504" data-glyph-ascender="92.92" data-glyph-descender="-18.584"/><path d="M8.36-67.65L0 11.89L9.11 11.89L17.47-67.65L8.36-67.65Z" transform="translate(61.88472 371.68) skewX(6)" fill="rgb(224, 106, 106)" stroke="rgb(224, 106, 106)" stroke-width="0.155" stroke-miterlimit="3" data-glyph-w="24.34504" data-glyph-h="111.504" data-glyph-ascender="92.92" data-glyph-descender="-18.584"/><path d="M48.88-3.35L55.66-67.65L64.77-67.65L56.40 11.89L46.00 11.89L16.08-54.73L9.11 11.89L0 11.89L8.27-67.65L19.98-67.65L48.88-3.35Z" transform="translate(86.22976 371.68) skewX(6)" fill="rgb(224, 106, 106)" stroke="rgb(224, 106, 106)" stroke-width="0.155" stroke-miterlimit="3" data-glyph-w="65.13692" data-glyph-h="111.504" data-glyph-ascender="92.92" data-glyph-descender="-18.584"/><path d="M56.77-23.51L57.61-32.15L0.93-32.15L0-23.51L56.77-23.51Z" transform="translate(151.36668 371.68) skewX(6)" fill="rgb(224, 106, 106)" stroke="rgb(224, 106, 106)" stroke-width="0.155" stroke-miterlimit="3" data-glyph-w="57.6104" data-glyph-h="111.504" data-glyph-ascender="92.92" data-glyph-descender="-18.584"/><path d="M39.96 3.25L47.39-67.65L56.50-67.65L48.13 11.89L0 11.89L8.36-67.65L17.47-67.65L10.04 3.25L39.96 3.25Z" transform="translate(208.97708 371.68) skewX(6)" fill="rgb(224, 106, 106)" stroke="rgb(224, 106, 106)" stroke-width="0.155" stroke-miterlimit="3" data-glyph-w="61.04844" data-glyph-h="111.504" data-glyph-ascender="92.92" data-glyph-descender="-18.584"/><path d="M8.36-67.65L0 11.89L9.11 11.89L17.47-67.65L8.36-67.65Z" transform="translate(270.02552000000003 371.68) skewX(6)" fill="rgb(224, 106, 106)" stroke="rgb(224, 106, 106)" stroke-width="0.155" stroke-miterlimit="3" data-glyph-w="24.34504" data-glyph-h="111.504" data-glyph-ascender="92.92" data-glyph-descender="-18.584"/><path d="M56.77-23.51L57.61-32.15L0.93-32.15L0-23.51L56.77-23.51Z" transform="translate(294.37056 371.68) skewX(6)" fill="rgb(224, 106, 106)" stroke="rgb(224, 106, 106)" stroke-width="0.155" stroke-miterlimit="3" data-glyph-w="57.6104" data-glyph-h="111.504" data-glyph-ascender="92.92" data-glyph-descender="-18.584"/><path d="M48.88-3.35L55.66-67.65L64.77-67.65L56.40 11.89L46.00 11.89L16.08-54.73L9.11 11.89L0 11.89L8.27-67.65L19.98-67.65L48.88-3.35Z" transform="translate(351.98096 371.68) skewX(6)" fill="rgb(224, 106, 106)" stroke="rgb(224, 106, 106)" stroke-width="0.155" stroke-miterlimit="3" data-glyph-w="65.13692" data-glyph-h="111.504" data-glyph-ascender="92.92" data-glyph-descender="-18.584"/><path d="M55.29-67.65L54.36-58.91L16.54-58.91L13.85-33.36L47.30-33.36L46.37-24.62L12.92-24.62L10.04 3.25L48.97 3.25L45.81 11.89L0 11.89L3.81-24.62L4.74-33.36L7.43-58.91L8.36-67.65L55.29-67.65Z" transform="translate(417.11788 371.68) skewX(6)" fill="rgb(224, 106, 106)" stroke="rgb(224, 106, 106)" stroke-width="0.155" stroke-miterlimit="3" data-glyph-w="61.04844" data-glyph-h="111.504" data-glyph-ascender="92.92" data-glyph-descender="-18.584"/><path d="M55.29-67.65L64.39-67.65L37.91-29.55L58.08 11.89L48.97 11.89L32.52-21.84L9.11 11.89L0 11.89L28.81-29.55L10.31-67.65L19.42-67.65L34.19-37.26L55.29-67.65Z" transform="translate(478.16632000000004 371.68) skewX(6)" fill="rgb(224, 106, 106)" stroke="rgb(224, 106, 106)" stroke-width="0.155" stroke-miterlimit="3" data-glyph-w="65.9732" data-glyph-h="111.504" data-glyph-ascender="92.92" data-glyph-descender="-18.584"/><path d="M0.93-67.65L56.96-67.65L56.03-58.91L32.52-58.91L25.09 11.89L15.98 11.89L23.42-58.91L0-58.91L0.93-67.65Z" transform="translate(544.1395200000001 371.68) skewX(6)" fill="rgb(224, 106, 106)" stroke="rgb(224, 106, 106)" stroke-width="0.155" stroke-miterlimit="3" data-glyph-w="57.51748" data-glyph-h="111.504" data-glyph-ascender="92.92" data-glyph-descender="-18.584"/></g><g data-width="601.657" transform="translate(93.09149999999998, 0)"><path d="M8.36-67.65L56.40-67.65L55.38-58.08L47.20-33.82L54.73-33.82L49.90 11.89L0 11.89L8.36-67.65ZM16.45-58.08L13.94-33.82L38.10-33.82L46.27-58.08L16.45-58.08ZM10.04 3.25L41.72 3.25L44.69-25.09L13.01-25.09L10.04 3.25Z" transform="translate(0 371.68) skewX(6)" fill="rgb(49, 49, 49)" stroke="rgb(49, 49, 49)" stroke-width="0.155" data-glyph-w="61.88472" data-glyph-h="111.504" data-glyph-ascender="92.92" data-glyph-descender="-18.584"/><path d="M8.36-67.65L0 11.89L9.11 11.89L17.47-67.65L8.36-67.65Z" transform="translate(61.88472 371.68) skewX(6)" fill="rgb(49, 49, 49)" stroke="rgb(49, 49, 49)" stroke-width="0.155" data-glyph-w="24.34504" data-glyph-h="111.504" data-glyph-ascender="92.92" data-glyph-descender="-18.584"/><path d="M48.88-3.35L55.66-67.65L64.77-67.65L56.40 11.89L46.00 11.89L16.08-54.73L9.11 11.89L0 11.89L8.27-67.65L19.98-67.65L48.88-3.35Z" transform="translate(86.22976 371.68) skewX(6)" fill="rgb(49, 49, 49)" stroke="rgb(49, 49, 49)" stroke-width="0.155" data-glyph-w="65.13692" data-glyph-h="111.504" data-glyph-ascender="92.92" data-glyph-descender="-18.584"/><path d="M56.77-23.51L57.61-32.15L0.93-32.15L0-23.51L56.77-23.51Z" transform="translate(151.36668 371.68) skewX(6)" fill="rgb(49, 49, 49)" stroke="rgb(49, 49, 49)" stroke-width="0.155" data-glyph-w="57.6104" data-glyph-h="111.504" data-glyph-ascender="92.92" data-glyph-descender="-18.584"/><path d="M39.96 3.25L47.39-67.65L56.50-67.65L48.13 11.89L0 11.89L8.36-67.65L17.47-67.65L10.04 3.25L39.96 3.25Z" transform="translate(208.97708 371.68) skewX(6)" fill="rgb(49, 49, 49)" stroke="rgb(49, 49, 49)" stroke-width="0.155" data-glyph-w="61.04844" data-glyph-h="111.504" data-glyph-ascender="92.92" data-glyph-descender="-18.584"/><path d="M8.36-67.65L0 11.89L9.11 11.89L17.47-67.65L8.36-67.65Z" transform="translate(270.02552000000003 371.68) skewX(6)" fill="rgb(49, 49, 49)" stroke="rgb(49, 49, 49)" stroke-width="0.155" data-glyph-w="24.34504" data-glyph-h="111.504" data-glyph-ascender="92.92" data-glyph-descender="-18.584"/><path d="M56.77-23.51L57.61-32.15L0.93-32.15L0-23.51L56.77-23.51Z" transform="translate(294.37056 371.68) skewX(6)" fill="rgb(49, 49, 49)" stroke="rgb(49, 49, 49)" stroke-width="0.155" data-glyph-w="57.6104" data-glyph-h="111.504" data-glyph-ascender="92.92" data-glyph-descender="-18.584"/><path d="M48.88-3.35L55.66-67.65L64.77-67.65L56.40 11.89L46.00 11.89L16.08-54.73L9.11 11.89L0 11.89L8.27-67.65L19.98-67.65L48.88-3.35Z" transform="translate(351.98096 371.68) skewX(6)" fill="rgb(49, 49, 49)" stroke="rgb(49, 49, 49)" stroke-width="0.155" data-glyph-w="65.13692" data-glyph-h="111.504" data-glyph-ascender="92.92" data-glyph-descender="-18.584"/><path d="M55.29-67.65L54.36-58.91L16.54-58.91L13.85-33.36L47.30-33.36L46.37-24.62L12.92-24.62L10.04 3.25L48.97 3.25L45.81 11.89L0 11.89L3.81-24.62L4.74-33.36L7.43-58.91L8.36-67.65L55.29-67.65Z" transform="translate(417.11788 371.68) skewX(6)" fill="rgb(49, 49, 49)" stroke="rgb(49, 49, 49)" stroke-width="0.155" data-glyph-w="61.04844" data-glyph-h="111.504" data-glyph-ascender="92.92" data-glyph-descender="-18.584"/><path d="M55.29-67.65L64.39-67.65L37.91-29.55L58.08 11.89L48.97 11.89L32.52-21.84L9.11 11.89L0 11.89L28.81-29.55L10.31-67.65L19.42-67.65L34.19-37.26L55.29-67.65Z" transform="translate(478.16632000000004 371.68) skewX(6)" fill="rgb(49, 49, 49)" stroke="rgb(49, 49, 49)" stroke-width="0.155" data-glyph-w="65.9732" data-glyph-h="111.504" data-glyph-ascender="92.92" data-glyph-descender="-18.584"/><path d="M0.93-67.65L56.96-67.65L56.03-58.91L32.52-58.91L25.09 11.89L15.98 11.89L23.42-58.91L0-58.91L0.93-67.65Z" transform="translate(544.1395200000001 371.68) skewX(6)" fill="rgb(49, 49, 49)" stroke="rgb(49, 49, 49)" stroke-width="0.155" data-glyph-w="57.51748" data-glyph-h="111.504" data-glyph-ascender="92.92" data-glyph-descender="-18.584"/></g></svg></g></g><g id="shape_I14yRV7qIA" transform="translate(154.75000000000003,343.9711309556406) rotate(0,289.10884113021,109.01513671875) scale(1,1)" filter="" style="cursor: move; opacity: 1;"><g><svg xmlns="http://www.w3.org/2000/svg" xmlns:xlink="http://www.w3.org/1999/xlink" version="1.1" width="552" height="218.0302734375" viewBox="0 0 552 218.0302734375" data-parent="shape_I14yRV7qIA"><g data-width="428.881541015625" transform="translate(30.809229492187512, 0)"><path d="M3.23-8.27Q2.73-10.39 3.09-12.52L3.09-12.52Q3.44-14.58 4.55-16.37L4.55-16.37Q5.66-18.15 7.34-19.38L7.34-19.38Q9.08-20.66 11.22-21.17L11.22-21.17Q13.27-21.65 15.34-21.32L15.34-21.32Q17.36-21.01 19.11-19.97L19.11-19.97Q20.87-18.93 22.12-17.34L22.12-17.34Q23.41-15.69 23.98-13.66L23.98-13.66L20.37-13.66Q19.32-16.07 16.97-17.27L16.97-17.27Q14.59-18.47 12.00-17.85L12.00-17.85Q9.04-17.16 7.45-14.58L7.45-14.58Q5.86-12.00 6.55-9.05L6.55-9.05Q7.24-6.10 9.82-4.50L9.82-4.50Q12.40-2.91 15.34-3.60L15.34-3.60Q17.06-4.01 18.39-5.14L18.39-5.14Q19.68-6.23 20.37-7.79L20.37-7.79L23.98-7.79Q23.20-5.03 21.14-3.03L21.14-3.03Q19.02-0.98 16.13-0.29L16.13-0.29Q14.01 0.21 11.88-0.15L11.88-0.15Q9.80-0.51 8.03-1.61L8.03-1.61Q6.25-2.72 5.01-4.40L5.01-4.40Q3.72-6.14 3.23-8.27L3.23-8.27Z" transform="translate(0 118.01513671875) " fill="rgb(49, 49, 49)" stroke="rgb(49, 49, 49)" stroke-width="0.051" data-glyph-w="27.0413818359375" data-glyph-h="32.041259765625" data-glyph-ascender="25.76513671875" data-glyph-descender="-6.276123046875"/><path d="M24.23-13.23Q23.74-15.34 22.46-17.10L22.46-17.10Q21.22-18.80 19.43-19.89L19.43-19.89Q17.64-21.01 15.57-21.37L15.57-21.37Q13.44-21.73 11.31-21.22L11.31-21.22Q9.17-20.72 7.43-19.44L7.43-19.44Q5.74-18.20 4.62-16.41L4.62-16.41Q3.53-14.62 3.17-12.55L3.17-12.55Q2.81-10.42 3.30-8.29L3.30-8.29Q3.81-6.16 5.09-4.41L5.09-4.41Q6.32-2.72 8.12-1.61L8.12-1.61Q9.91-0.51 11.97-0.15L11.97-0.15Q14.11 0.21 16.25-0.29L16.25-0.29Q18.36-0.80 20.12-2.07L20.12-2.07Q21.82-3.30 22.91-5.10L22.91-5.10Q24.02-6.89 24.38-8.95L24.38-8.95Q24.74-11.10 24.23-13.23L24.23-13.23ZM15.45-3.62Q12.51-2.93 9.92-4.52L9.92-4.52Q7.34-6.13 6.64-9.08L6.64-9.08Q5.95-12.03 7.54-14.61L7.54-14.61Q9.14-17.19 12.10-17.90L12.10-17.90Q15.04-18.59 17.63-17.00L17.63-17.00Q20.21-15.39 20.92-12.43L20.92-12.43Q21.61-9.49 20.01-6.91L20.01-6.91Q18.41-4.32 15.45-3.62L15.45-3.62Z" transform="translate(27.0413818359375 118.01513671875) " fill="rgb(49, 49, 49)" stroke="rgb(49, 49, 49)" stroke-width="0.051" data-glyph-w="27.56689453125" data-glyph-h="32.041259765625" data-glyph-ascender="25.76513671875" data-glyph-descender="-6.276123046875"/><path d="M8.95-21.55L9.16-21.07L14.74-8.24L20.33-21.07L20.53-21.55L26.50-0.35L23.15-0.33L20.00-11.80Q18.99-9.53 17.42-5.92L17.42-5.92L16.80-4.50Q16.46-3.68 16.19-3.06L16.19-3.06Q15.47-1.41 14.86-0.05L14.86-0.05L14.62-0.05Q14.02-1.41 13.30-3.06L13.30-3.06Q13.03-3.68 12.67-4.50L12.67-4.50L12.06-5.92Q10.50-9.53 9.49-11.80L9.49-11.80L6.32-0.33L2.99-0.35L8.95-21.55Z" transform="translate(54.6082763671875 118.01513671875) " fill="rgb(49, 49, 49)" stroke="rgb(49, 49, 49)" stroke-width="0.051" data-glyph-w="29.4737548828125" data-glyph-h="32.041259765625" data-glyph-ascender="25.76513671875" data-glyph-descender="-6.276123046875"/><path d="M14.41-9.17L14.41-9.19L6.44-9.19L6.44 0L2.99 0L2.99-21.55L3.30-21.55L14.44-21.53L14.50-21.55Q17.06-21.58 18.87-19.74L18.87-19.74Q20.69-17.93 20.69-15.36L20.69-15.36Q20.69-12.79 18.87-10.99L18.87-10.99Q17.07-9.17 14.50-9.17L14.50-9.17L14.41-9.17ZM14.50-18.09L14.50-18.09L6.44-18.09L6.44-12.64L14.50-12.64L14.50-12.63Q15.63-12.63 16.44-13.42L16.44-13.42Q17.24-14.22 17.24-15.36L17.24-15.36Q17.24-16.49 16.44-17.28L16.44-17.28Q15.63-18.09 14.50-18.09L14.50-18.09Z" transform="translate(84.08203125 118.01513671875) " fill="rgb(49, 49, 49)" stroke="rgb(49, 49, 49)" stroke-width="0.051" data-glyph-w="23.7681884765625" data-glyph-h="32.041259765625" data-glyph-ascender="25.76513671875" data-glyph-descender="-6.276123046875"/><path d="M24.23-13.23Q23.74-15.34 22.46-17.10L22.46-17.10Q21.22-18.80 19.43-19.89L19.43-19.89Q17.64-21.01 15.57-21.37L15.57-21.37Q13.44-21.73 11.31-21.22L11.31-21.22Q9.17-20.72 7.43-19.44L7.43-19.44Q5.74-18.20 4.62-16.41L4.62-16.41Q3.53-14.62 3.17-12.55L3.17-12.55Q2.81-10.42 3.30-8.29L3.30-8.29Q3.81-6.16 5.09-4.41L5.09-4.41Q6.32-2.72 8.12-1.61L8.12-1.61Q9.91-0.51 11.97-0.15L11.97-0.15Q14.11 0.21 16.25-0.29L16.25-0.29Q18.36-0.80 20.12-2.07L20.12-2.07Q21.82-3.30 22.91-5.10L22.91-5.10Q24.02-6.89 24.38-8.95L24.38-8.95Q24.74-11.10 24.23-13.23L24.23-13.23ZM15.45-3.62Q12.51-2.93 9.92-4.52L9.92-4.52Q7.34-6.13 6.64-9.08L6.64-9.08Q5.95-12.03 7.54-14.61L7.54-14.61Q9.14-17.19 12.10-17.90L12.10-17.90Q15.04-18.59 17.63-17.00L17.63-17.00Q20.21-15.39 20.92-12.43L20.92-12.43Q21.61-9.49 20.01-6.91L20.01-6.91Q18.41-4.32 15.45-3.62L15.45-3.62Z" transform="translate(107.8502197265625 118.01513671875) " fill="rgb(49, 49, 49)" stroke="rgb(49, 49, 49)" stroke-width="0.051" data-glyph-w="27.56689453125" data-glyph-h="32.041259765625" data-glyph-ascender="25.76513671875" data-glyph-descender="-6.276123046875"/><path d="M2.96 0L6.56 0L6.58-13.20L20.62-0.02L20.62-21.53L16.95-21.53L16.95-8.36L2.93-21.53L2.96 0Z" transform="translate(135.4171142578125 118.01513671875) " fill="rgb(49, 49, 49)" stroke="rgb(49, 49, 49)" stroke-width="0.051" data-glyph-w="23.5579833984375" data-glyph-h="32.041259765625" data-glyph-ascender="25.76513671875" data-glyph-descender="-6.276123046875"/><path d="M3.02-21.50L3.02 0L17.48 0L17.48-3.39L6.73-3.39L6.73-8.99L15.71-8.99L15.71-12.39L6.73-12.39L6.73-18.11L17.48-18.11L17.48-21.50L3.02-21.50Z" transform="translate(158.97509765625 118.01513671875) " fill="rgb(49, 49, 49)" stroke="rgb(49, 49, 49)" stroke-width="0.051" data-glyph-w="20.1346435546875" data-glyph-h="32.041259765625" data-glyph-ascender="25.76513671875" data-glyph-descender="-6.276123046875"/><path d="M2.96 0L6.56 0L6.58-13.20L20.62-0.02L20.62-21.53L16.95-21.53L16.95-8.36L2.93-21.53L2.96 0Z" transform="translate(179.1097412109375 118.01513671875) " fill="rgb(49, 49, 49)" stroke="rgb(49, 49, 49)" stroke-width="0.051" data-glyph-w="23.5579833984375" data-glyph-h="32.041259765625" data-glyph-ascender="25.76513671875" data-glyph-descender="-6.276123046875"/><path d="M2.97-21.52L20.06-21.52L20.06-17.79L13.38-17.79L13.38 0L9.65 0L9.65-17.79L2.97-17.79L2.97-21.52Z" transform="translate(202.667724609375 118.01513671875) " fill="rgb(49, 49, 49)" stroke="rgb(49, 49, 49)" stroke-width="0.051" data-glyph-w="22.732177734375" data-glyph-h="32.041259765625" data-glyph-ascender="25.76513671875" data-glyph-descender="-6.276123046875"/><path d="M13.99-21.50L9.26-21.50Q6.70-21.50 4.86-19.67L4.86-19.67L4.86-19.67Q3.03-17.84 3.03-15.25L3.03-15.25L3.03-15.25Q3.03-12.69 4.86-10.86L4.86-10.86Q6.70-9.02 9.26-9.02L9.26-9.02L13.69-9.02Q14.83-9.02 15.66-8.20L15.66-8.20Q16.47-7.39 16.47-6.25L16.47-6.25Q16.47-5.09 15.66-4.28L15.66-4.28Q14.83-3.45 13.69-3.45L13.69-3.45L9.59-3.45Q8.44-3.45 7.63-4.28L7.63-4.28L7.63-4.28Q6.86-5.04 6.82-6.11L6.82-6.11L3.03-6.11Q3.08-3.62 4.86-1.83L4.86-1.83Q6.70 0 9.26 0L9.26 0L13.99 0Q16.56 0 18.39-1.83L18.39-1.83Q20.22-3.66 20.22-6.25L20.22-6.25Q20.22-8.81 18.39-10.65L18.39-10.65Q16.56-12.48 13.99-12.48L13.99-12.48L9.56-12.48Q8.42-12.48 7.60-13.29L7.60-13.29Q6.79-14.11 6.79-15.25L6.79-15.25L6.79-15.25Q6.79-16.41 7.60-17.22L7.60-17.22Q8.42-18.03 9.56-18.03L9.56-18.03L13.87-18.03Q14.67-18.03 15.34-17.61L15.34-17.61Q15.99-17.19 16.34-16.52L16.34-16.52L20.10-16.52Q19.65-18.65 17.97-20.04L17.97-20.04Q16.25-21.50 13.99-21.50L13.99-21.50Z" transform="translate(225.39990234375 118.01513671875) " fill="rgb(49, 49, 49)" stroke="rgb(49, 49, 49)" stroke-width="0.051" data-glyph-w="22.852294921875" data-glyph-h="32.041259765625" data-glyph-ascender="25.76513671875" data-glyph-descender="-6.276123046875"/><path d="" transform="translate(248.252197265625 118.01513671875) " fill="rgb(49, 49, 49)" stroke="rgb(49, 49, 49)" stroke-width="0.051" data-glyph-w="12.2385" data-glyph-h="30.75" data-glyph-ascender="27.06" data-glyph-descender="-3.69"/><path d="M2.99-21.55L2.99 0L6.71 0L6.71-9.02L15.98-9.02L15.98-12.43L6.71-12.43L6.71-18.15L17.51-18.15L17.51-21.55L2.99-21.55Z" transform="translate(260.490697265625 118.01513671875) " fill="rgb(49, 49, 49)" stroke="rgb(49, 49, 49)" stroke-width="0.051" data-glyph-w="20.1046142578125" data-glyph-h="32.041259765625" data-glyph-ascender="25.76513671875" data-glyph-descender="-6.276123046875"/><path d="M24.23-13.23Q23.74-15.34 22.46-17.10L22.46-17.10Q21.22-18.80 19.43-19.89L19.43-19.89Q17.64-21.01 15.57-21.37L15.57-21.37Q13.44-21.73 11.31-21.22L11.31-21.22Q9.17-20.72 7.43-19.44L7.43-19.44Q5.74-18.20 4.62-16.41L4.62-16.41Q3.53-14.62 3.17-12.55L3.17-12.55Q2.81-10.42 3.30-8.29L3.30-8.29Q3.81-6.16 5.09-4.41L5.09-4.41Q6.32-2.72 8.12-1.61L8.12-1.61Q9.91-0.51 11.97-0.15L11.97-0.15Q14.11 0.21 16.25-0.29L16.25-0.29Q18.36-0.80 20.12-2.07L20.12-2.07Q21.82-3.30 22.91-5.10L22.91-5.10Q24.02-6.89 24.38-8.95L24.38-8.95Q24.74-11.10 24.23-13.23L24.23-13.23ZM15.45-3.62Q12.51-2.93 9.92-4.52L9.92-4.52Q7.34-6.13 6.64-9.08L6.64-9.08Q5.95-12.03 7.54-14.61L7.54-14.61Q9.14-17.19 12.10-17.90L12.10-17.90Q15.04-18.59 17.63-17.00L17.63-17.00Q20.21-15.39 20.92-12.43L20.92-12.43Q21.61-9.49 20.01-6.91L20.01-6.91Q18.41-4.32 15.45-3.62L15.45-3.62Z" transform="translate(280.5953115234375 118.01513671875) " fill="rgb(49, 49, 49)" stroke="rgb(49, 49, 49)" stroke-width="0.051" data-glyph-w="27.56689453125" data-glyph-h="32.041259765625" data-glyph-ascender="25.76513671875" data-glyph-descender="-6.276123046875"/><path d="M12.85-9.20L6.41-9.20L6.41-0.03L2.96-0.03L2.96-21.53L3.27-21.53L14.40-21.53L14.46-21.53Q17.01-21.56 18.83-19.73L18.83-19.73Q20.63-17.91 20.63-15.36L20.63-15.36Q20.63-13.35 19.46-11.73L19.46-11.73Q18.30-10.15 16.47-9.52L16.47-9.52L21.97 0L18.17 0L12.85-9.20ZM14.46-18.08L14.46-18.08L6.41-18.08L6.41-12.64L14.46-12.64L14.46-12.63Q15.59-12.63 16.38-13.42L16.38-13.42Q17.19-14.22 17.19-15.36L17.19-15.36Q17.19-16.49 16.38-17.28L16.38-17.28Q15.59-18.08 14.46-18.08L14.46-18.08Z" transform="translate(308.1622060546875 118.01513671875) " fill="rgb(49, 49, 49)" stroke="rgb(49, 49, 49)" stroke-width="0.051" data-glyph-w="24.954345703125" data-glyph-h="32.041259765625" data-glyph-ascender="25.76513671875" data-glyph-descender="-6.276123046875"/><path d="" transform="translate(333.1165517578125 118.01513671875) " fill="rgb(49, 49, 49)" stroke="rgb(49, 49, 49)" stroke-width="0.051" data-glyph-w="12.2385" data-glyph-h="30.75" data-glyph-ascender="27.06" data-glyph-descender="-3.69"/><path d="M2.93-21.61L6.62-21.61L10.33-10.80L14.02-21.61L17.72-21.61L12.03-4.85L10.33 0L8.63-4.85L2.93-21.61Z" transform="translate(345.3550517578125 118.01513671875) " fill="rgb(49, 49, 49)" stroke="rgb(49, 49, 49)" stroke-width="0.051" data-glyph-w="20.7652587890625" data-glyph-h="32.041259765625" data-glyph-ascender="25.76513671875" data-glyph-descender="-6.276123046875"/><path d="M3.17-5.30Q3.00-6.02 2.99-6.74L2.99-6.74L2.99-6.74L2.99-21.62L6.40-21.62L6.40-6.82Q6.41-6.44 6.49-6.08L6.49-6.08Q6.82-4.68 8.03-3.93L8.03-3.93Q9.25-3.18 10.65-3.51L10.65-3.51Q11.82-3.80 12.57-4.74L12.57-4.74Q13.30-5.69 13.30-6.88L13.30-6.88L13.30-21.62L16.71-21.62L16.71-6.80Q16.68-4.47 15.22-2.63L15.22-2.63Q13.75-0.75 11.43-0.20L11.43-0.20Q8.65 0.45 6.25-1.04L6.25-1.04Q3.83-2.54 3.17-5.30L3.17-5.30Z" transform="translate(366.120310546875 118.01513671875) " fill="rgb(49, 49, 49)" stroke="rgb(49, 49, 49)" stroke-width="0.051" data-glyph-w="19.729248046875" data-glyph-h="32.041259765625" data-glyph-ascender="25.76513671875" data-glyph-descender="-6.276123046875"/><path d="M3.02-21.50L3.02 0L17.48 0L17.48-3.39L6.73-3.39L6.73-8.99L15.71-8.99L15.71-12.39L6.73-12.39L6.73-18.11L17.48-18.11L17.48-21.50L3.02-21.50Z" transform="translate(385.84955859375 118.01513671875) " fill="rgb(49, 49, 49)" stroke="rgb(49, 49, 49)" stroke-width="0.051" data-glyph-w="20.1346435546875" data-glyph-h="32.041259765625" data-glyph-ascender="25.76513671875" data-glyph-descender="-6.276123046875"/><path d="M9.26-21.56L13.71-21.56Q16.29-21.56 18.12-19.73L18.12-19.73Q19.95-17.90 19.95-15.31L19.95-15.31Q19.95-12.73 18.12-10.90L18.12-10.90L18.00-10.78L18.12-10.66Q19.95-8.83 19.95-6.25L19.95-6.25Q19.95-3.66 18.12-1.83L18.12-1.83Q16.29 0 13.71 0L13.71 0L9.26 0Q6.68 0 4.85-1.83L4.85-1.83Q3.02-3.66 3.02-6.25L3.02-6.25L3.02-6.49L6.47-6.49L6.46-6.25Q6.46-5.09 7.28-4.26L7.28-4.26Q8.11-3.44 9.26-3.44L9.26-3.44L13.71-3.44Q14.86-3.44 15.69-4.26L15.69-4.26Q16.52-5.09 16.52-6.25L16.52-6.25Q16.52-7.40 15.69-8.23L15.69-8.23Q14.86-9.07 13.71-9.07L13.71-9.07L9.26-9.07L9.26-12.49L13.71-12.49Q14.86-12.49 15.69-13.33L15.69-13.33Q16.52-14.16 16.52-15.31L16.52-15.31Q16.52-16.47 15.69-17.30L15.69-17.30Q14.86-18.12 13.71-18.12L13.71-18.12L9.26-18.12Q8.11-18.12 7.28-17.30L7.28-17.30Q6.46-16.47 6.46-15.31L6.46-15.31L6.47-15.07L3.02-15.07L3.02-15.31Q3.02-17.90 4.85-19.73L4.85-19.73Q6.68-21.56 9.26-21.56L9.26-21.56Z" transform="translate(405.9842021484375 118.01513671875) " fill="rgb(49, 49, 49)" stroke="rgb(49, 49, 49)" stroke-width="0.051" data-glyph-w="22.8973388671875" data-glyph-h="32.041259765625" data-glyph-ascender="25.76513671875" data-glyph-descender="-6.276123046875"/></g></svg></g></g>  <!----></svg>
