<?xml version="1.0"?>
<svg xmlns="http://www.w3.org/2000/svg" xmlns:xlink="http://www.w3.org/1999/xlink" data-noselect="" viewBox="0 0 800 600" width="1600" height="1200" preserveAspectRatio="none" version="1.1"><defs/> <g id="background" data-noselect=""><rect fill="#ffffff" width="800" height="600" data-noselect=""/> <!----></g> <g id="shape_8EFh4mGDft" type="svg" transform="translate(99.45873813607008,230.21596770944) rotate(0,85.253955306429,69.784032290561) scale(1,1)" filter="" style="cursor: move; opacity: 1;"><g><svg xmlns="http://www.w3.org/2000/svg" xmlns:xlink="http://www.w3.org/1999/xlink" version="1.1" id="&#x56FE;&#x5C42;_1" x="0px" y="0px" viewBox="0 0 151 123.6" style="enable-background:new 0 0 151 123.6;" xml:space="preserve" width="170.50791061286" height="139.56806458112" class="style-removed" preserveAspectRatio="none" data-parent="shape_8EFh4mGDft">

<g>
	<g>
		<circle cx="46.5" cy="5.5" r="5.5" fill="#8BC43F" stroke-width="0"/>
	</g>
	<g>
		<circle cx="31.4" cy="59.9" r="7.2" fill="#8BC43F" stroke-width="0"/>
	</g>
	<g>
		<circle cx="67.5" cy="117.6" r="5.9" fill="#8BC43F" stroke-width="0"/>
	</g>
	<path d="M137.4,86.2c-3.7,0-7.1,1.5-9.5,3.9l0-0.1c-7,5-16.8,5.7-16.8,5.7l0,0H67.7c-7.2-0.5-14-5.8-14.6-6.3   c0,0,0,0,0,0c-0.4-0.8-0.8-1.5-1.3-2.2c0.1-7.6,3.4-14.8,3.4-14.8l0,0l3.3-5.1c3.2-4.3,8.2-7.1,10.2-8.1c6.4-0.6,11.4-6,11.4-12.6   c0-7-5.7-12.6-12.6-12.6c-1.3,0-2.5,0.2-3.6,0.5c-6.5,0.1-12.9-2.3-14.9-3.2l-16.8-9.7l0,0c-6.4-3.9-9.8-12.3-10.1-13.1   c0,0,0-0.1,0-0.1c-1.5-6-7.6-9.6-13.6-8.1C2.4,1.9-1.2,8,0.3,14c1.3,5.2,6.2,8.7,11.4,8.4l0,0c7.4-0.4,14.9,3,16.8,3.9l16.9,9.8   l0,0.1c4.6,2.5,7.8,7.2,9.5,10.1c0,0.1,0,0.2,0,0.3c0,1.3,0.2,2.6,0.6,3.8c0.3,8-3.3,15.9-3.4,16.1l-3.5,5.4   c-2.9,3.6-6.9,6.2-9.2,7.4c-0.8-0.1-1.7-0.2-2.6-0.2c-10,0-18.2,8.1-18.2,18.2s8.1,18.2,18.2,18.2c7.1,0,13.2-4,16.2-10   c6.9-3.6,15.1-3.8,15.1-3.8l0,0h43.7c6,0.2,11.7,3.6,13.9,5.1c2.4,4.1,6.8,6.8,11.8,6.8c7.5,0,13.6-6.1,13.6-13.6   C151,92.3,144.9,86.2,137.4,86.2z" fill="#8BC43F" stroke-width="0"/>
</g>
</svg></g></g><g id="shape_SLFOwV3yZM" type="text" transform="translate(142.09126186393007,63.865967709439985) rotate(0,171.16385678998,202.77247353773603) scale(1,1)" filter="" style="cursor: move; opacity: 1;"><g><svg xmlns="http://www.w3.org/2000/svg" xmlns:xlink="http://www.w3.org/1999/xlink" version="1.1" width="727.8000000000001" height="405.70000000000005" viewBox="0 0 727.8000000000001 405.70000000000005" data-parent="shape_SLFOwV3yZM"><g data-width="501.7655273437499" transform="translate(56.45, 0)"><line x1="0" x2="501.7655273437499" y1="229.73000000000002" y2="229.73000000000002" stroke="rgb(0, 0, 0)" stroke-width="0" stroke-opacity="1"/></g><g data-width="501.7655273437499" transform="translate(56.45, 0)"><path d="M47.35-39.86L3.97-39.86Q2.70-39.86 2.70-38.59L2.70-38.59L2.70 1.38Q2.70 2.65 3.97 2.65L3.97 2.65L47.35 2.65Q48.95 2.65 50.55 1.82L50.55 1.82Q53.69 0.22 53.69-3.75L53.69-3.75L53.69-7.99Q53.69-12.24 50.55-15.44L50.55-15.44L47.35-18.63L50.55-21.83Q53.69-24.97 53.69-29.27L53.69-29.27L53.69-33.52Q53.69-37.49 50.55-39.09L50.55-39.09Q48.95-39.86 47.35-39.86L47.35-39.86ZM12.51-36.66L43.11-36.66Q45.20-36.66 45.20-34.56L45.20-34.56L45.20-30.04Q45.20-27.95 43.88-26.63L43.88-26.63L37.49-20.23L11.19-20.23L11.19-35.39Q11.19-36.66 12.51-36.66L12.51-36.66ZM43.11-0.55L12.51-0.55Q11.19-0.55 11.19-1.82L11.19-1.82L11.19-17.03L37.49-17.03L43.88-10.64Q45.20-9.32 45.20-7.17L45.20-7.17L45.20-2.70Q45.20-0.55 43.11-0.55L43.11-0.55Z" transform="translate(0 223.35000000000002) " fill="#000000" stroke="#000000" stroke-width="0.094" stroke-miterlimit="3" data-glyph-w="56.45" data-glyph-h="55.126953125" data-glyph-ascender="48.51171875" data-glyph-descender="-6.615234375"/><path d="M2.70 1.38L2.70-38.59Q2.70-39.86 3.97-39.86L3.97-39.86L9.92-39.86Q11.19-39.86 11.19-38.59L11.19-38.59L11.19 1.38Q11.19 2.65 9.92 2.65L9.92 2.65L3.97 2.65Q2.70 2.65 2.70 1.38L2.70 1.38Z" transform="translate(56.45 223.35000000000002) " fill="#000000" stroke="#000000" stroke-width="0.094" stroke-miterlimit="3" data-glyph-w="13.891992187500001" data-glyph-h="55.126953125" data-glyph-ascender="48.51171875" data-glyph-descender="-6.615234375"/><path d="M2.70 1.32L2.70-38.64Q2.70-39.91 3.97-39.91L3.97-39.91L12.35-39.91Q12.84-39.91 13.23-39.58L13.23-39.58L43.05-9.92Q43.66-9.32 44.43-9.65L44.43-9.65Q45.20-9.98 45.20-10.86L45.20-10.86L45.20-38.64Q45.20-39.91 46.47-39.91L46.47-39.91L52.43-39.91Q53.69-39.91 53.69-38.64L53.69-38.64L53.69 1.32Q53.69 2.59 52.43 2.59L52.43 2.59L44.10 2.59Q43.55 2.59 43.22 2.21L43.22 2.21L13.40-27.40Q12.79-28.00 12.02-27.67L12.02-27.67Q11.19-27.34 11.19-26.52L11.19-26.52L11.19 1.32Q11.19 2.59 9.92 2.59L9.92 2.59L3.97 2.59Q2.70 2.59 2.70 1.32L2.70 1.32Z" transform="translate(70.34199218750001 223.35000000000002) " fill="#000000" stroke="#000000" stroke-width="0.094" stroke-miterlimit="3" data-glyph-w="56.45" data-glyph-h="55.126953125" data-glyph-ascender="48.51171875" data-glyph-descender="-6.615234375"/><path d="M2.70-18.36L2.70-19.02Q2.70-20.29 4.02-20.29L4.02-20.29L35.45-20.29Q36.71-20.29 36.71-19.02L36.71-19.02L36.71-18.36Q36.71-17.09 35.45-17.09L35.45-17.09L4.02-17.09Q2.70-17.09 2.70-18.36L2.70-18.36Z" transform="translate(126.79199218750001 223.35000000000002) " fill="#000000" stroke="#000000" stroke-width="0.094" stroke-miterlimit="3" data-glyph-w="39.415771484375" data-glyph-h="55.126953125" data-glyph-ascender="48.51171875" data-glyph-descender="-6.615234375"/><path d="M2.70-38.64L2.70-3.80Q2.70 0.17 5.90 1.76L5.90 1.76Q7.50 2.59 9.10 2.59L9.10 2.59L47.35 2.59Q48.95 2.59 50.55 1.76L50.55 1.76Q53.69 0.17 53.69-3.80L53.69-3.80L53.69-38.64Q53.69-39.91 52.43-39.91L52.43-39.91L46.47-39.91Q45.20-39.91 45.20-38.64L45.20-38.64L45.20-2.76Q45.20-0.61 43.11-0.61L43.11-0.61L13.34-0.61Q11.19-0.61 11.19-2.76L11.19-2.76L11.19-38.64Q11.19-39.91 9.92-39.91L9.92-39.91L3.97-39.91Q2.70-39.91 2.70-38.64L2.70-38.64Z" transform="translate(166.207763671875 223.35000000000002) " fill="#000000" stroke="#000000" stroke-width="0.094" stroke-miterlimit="3" data-glyph-w="56.45" data-glyph-h="55.126953125" data-glyph-ascender="48.51171875" data-glyph-descender="-6.615234375"/><path d="M2.70 1.38L2.70-38.59Q2.70-39.86 3.97-39.86L3.97-39.86L9.92-39.86Q11.19-39.86 11.19-38.59L11.19-38.59L11.19 1.38Q11.19 2.65 9.92 2.65L9.92 2.65L3.97 2.65Q2.70 2.65 2.70 1.38L2.70 1.38Z" transform="translate(222.657763671875 223.35000000000002) " fill="#000000" stroke="#000000" stroke-width="0.094" stroke-miterlimit="3" data-glyph-w="13.891992187500001" data-glyph-h="55.126953125" data-glyph-ascender="48.51171875" data-glyph-descender="-6.615234375"/><path d="M2.70-18.36L2.70-19.02Q2.70-20.29 4.02-20.29L4.02-20.29L35.45-20.29Q36.71-20.29 36.71-19.02L36.71-19.02L36.71-18.36Q36.71-17.09 35.45-17.09L35.45-17.09L4.02-17.09Q2.70-17.09 2.70-18.36L2.70-18.36Z" transform="translate(236.54975585937498 223.35000000000002) " fill="#000000" stroke="#000000" stroke-width="0.094" stroke-miterlimit="3" data-glyph-w="39.415771484375" data-glyph-h="55.126953125" data-glyph-ascender="48.51171875" data-glyph-descender="-6.615234375"/><path d="M2.70 1.32L2.70-38.64Q2.70-39.91 3.97-39.91L3.97-39.91L12.35-39.91Q12.84-39.91 13.23-39.58L13.23-39.58L43.05-9.92Q43.66-9.32 44.43-9.65L44.43-9.65Q45.20-9.98 45.20-10.86L45.20-10.86L45.20-38.64Q45.20-39.91 46.47-39.91L46.47-39.91L52.43-39.91Q53.69-39.91 53.69-38.64L53.69-38.64L53.69 1.32Q53.69 2.59 52.43 2.59L52.43 2.59L44.10 2.59Q43.55 2.59 43.22 2.21L43.22 2.21L13.40-27.40Q12.79-28.00 12.02-27.67L12.02-27.67Q11.19-27.34 11.19-26.52L11.19-26.52L11.19 1.32Q11.19 2.59 9.92 2.59L9.92 2.59L3.97 2.59Q2.70 2.59 2.70 1.32L2.70 1.32Z" transform="translate(275.96552734374995 223.35000000000002) " fill="#000000" stroke="#000000" stroke-width="0.094" stroke-miterlimit="3" data-glyph-w="56.45" data-glyph-h="55.126953125" data-glyph-ascender="48.51171875" data-glyph-descender="-6.615234375"/><path d="M52.43-39.86L9.10-39.86Q7.50-39.86 5.90-39.09L5.90-39.09Q2.70-37.49 2.70-33.52L2.70-33.52L2.70-3.75Q2.70-2.15 3.53-0.55L3.53-0.55Q5.13 2.65 9.10 2.65L9.10 2.65L52.43 2.65Q53.69 2.65 53.69 1.38L53.69 1.38L53.69 0.72Q53.69-0.55 52.43-0.55L52.43-0.55L13.34-0.55Q11.19-0.55 11.19-2.70L11.19-2.70L11.19-17.03L52.43-17.03Q53.69-17.03 53.69-18.30L53.69-18.30L53.69-18.96Q53.69-20.23 52.43-20.23L52.43-20.23L11.19-20.23L11.19-34.56Q11.19-36.66 13.34-36.66L13.34-36.66L52.43-36.66Q53.69-36.66 53.69-37.98L53.69-37.98L53.69-38.59Q53.69-39.86 52.43-39.86L52.43-39.86Z" transform="translate(332.41552734374994 223.35000000000002) " fill="#000000" stroke="#000000" stroke-width="0.094" stroke-miterlimit="3" data-glyph-w="56.45" data-glyph-h="55.126953125" data-glyph-ascender="48.51171875" data-glyph-descender="-6.615234375"/><path d="M41.84 2.15L28.23-12.51L14.61 2.15Q14.22 2.59 13.67 2.59L13.67 2.59L5.62 2.59Q4.80 2.59 4.47 1.82L4.47 1.82Q4.13 1.05 4.69 0.44L4.69 0.44L22.49-18.69L4.69-37.76Q4.13-38.42 4.47-39.14L4.47-39.14Q4.80-39.91 5.62-39.91L5.62-39.91L13.67-39.91Q14.22-39.91 14.61-39.53L14.61-39.53L28.23-24.86L41.84-39.53Q42.23-39.91 42.78-39.91L42.78-39.91L50.77-39.91Q51.60-39.91 51.98-39.14L51.98-39.14Q52.32-38.42 51.71-37.76L51.71-37.76L33.96-18.69L51.71 0.44Q52.32 1.05 51.98 1.82L51.98 1.82Q51.60 2.59 50.77 2.59L50.77 2.59L42.78 2.59Q42.23 2.59 41.84 2.15L41.84 2.15Z" transform="translate(388.86552734374993 223.35000000000002) " fill="#000000" stroke="#000000" stroke-width="0.094" stroke-miterlimit="3" data-glyph-w="56.45" data-glyph-h="55.126953125" data-glyph-ascender="48.51171875" data-glyph-descender="-6.615234375"/><path d="M23.98 1.32L23.98-36.71L3.97-36.71Q2.70-36.71 2.70-38.04L2.70-38.04L2.70-38.64Q2.70-39.91 3.97-39.91L3.97-39.91L52.43-39.91Q53.69-39.91 53.69-38.64L53.69-38.64L53.69-38.04Q53.69-36.71 52.43-36.71L52.43-36.71L32.47-36.71L32.47 1.32Q32.47 2.59 31.20 2.59L31.20 2.59L25.25 2.59Q23.98 2.59 23.98 1.32L23.98 1.32Z" transform="translate(445.3155273437499 223.35000000000002) " fill="#000000" stroke="#000000" stroke-width="0.094" stroke-miterlimit="3" data-glyph-w="56.45" data-glyph-h="55.126953125" data-glyph-ascender="48.51171875" data-glyph-descender="-6.615234375"/></g><g data-width="501.7655273437499" transform="translate(56.45, 0)"><path d="M47.35-39.86L3.97-39.86Q2.70-39.86 2.70-38.59L2.70-38.59L2.70 1.38Q2.70 2.65 3.97 2.65L3.97 2.65L47.35 2.65Q48.95 2.65 50.55 1.82L50.55 1.82Q53.69 0.22 53.69-3.75L53.69-3.75L53.69-7.99Q53.69-12.24 50.55-15.44L50.55-15.44L47.35-18.63L50.55-21.83Q53.69-24.97 53.69-29.27L53.69-29.27L53.69-33.52Q53.69-37.49 50.55-39.09L50.55-39.09Q48.95-39.86 47.35-39.86L47.35-39.86ZM12.51-36.66L43.11-36.66Q45.20-36.66 45.20-34.56L45.20-34.56L45.20-30.04Q45.20-27.95 43.88-26.63L43.88-26.63L37.49-20.23L11.19-20.23L11.19-35.39Q11.19-36.66 12.51-36.66L12.51-36.66ZM43.11-0.55L12.51-0.55Q11.19-0.55 11.19-1.82L11.19-1.82L11.19-17.03L37.49-17.03L43.88-10.64Q45.20-9.32 45.20-7.17L45.20-7.17L45.20-2.70Q45.20-0.55 43.11-0.55L43.11-0.55Z" transform="translate(0 223.35000000000002) " fill="#30302F" stroke="#30302F" stroke-width="0.094" data-glyph-w="56.45" data-glyph-h="55.126953125" data-glyph-ascender="48.51171875" data-glyph-descender="-6.615234375"/><path d="M2.70 1.38L2.70-38.59Q2.70-39.86 3.97-39.86L3.97-39.86L9.92-39.86Q11.19-39.86 11.19-38.59L11.19-38.59L11.19 1.38Q11.19 2.65 9.92 2.65L9.92 2.65L3.97 2.65Q2.70 2.65 2.70 1.38L2.70 1.38Z" transform="translate(56.45 223.35000000000002) " fill="#30302F" stroke="#30302F" stroke-width="0.094" data-glyph-w="13.891992187500001" data-glyph-h="55.126953125" data-glyph-ascender="48.51171875" data-glyph-descender="-6.615234375"/><path d="M2.70 1.32L2.70-38.64Q2.70-39.91 3.97-39.91L3.97-39.91L12.35-39.91Q12.84-39.91 13.23-39.58L13.23-39.58L43.05-9.92Q43.66-9.32 44.43-9.65L44.43-9.65Q45.20-9.98 45.20-10.86L45.20-10.86L45.20-38.64Q45.20-39.91 46.47-39.91L46.47-39.91L52.43-39.91Q53.69-39.91 53.69-38.64L53.69-38.64L53.69 1.32Q53.69 2.59 52.43 2.59L52.43 2.59L44.10 2.59Q43.55 2.59 43.22 2.21L43.22 2.21L13.40-27.40Q12.79-28.00 12.02-27.67L12.02-27.67Q11.19-27.34 11.19-26.52L11.19-26.52L11.19 1.32Q11.19 2.59 9.92 2.59L9.92 2.59L3.97 2.59Q2.70 2.59 2.70 1.32L2.70 1.32Z" transform="translate(70.34199218750001 223.35000000000002) " fill="#30302F" stroke="#30302F" stroke-width="0.094" data-glyph-w="56.45" data-glyph-h="55.126953125" data-glyph-ascender="48.51171875" data-glyph-descender="-6.615234375"/><path d="M2.70-18.36L2.70-19.02Q2.70-20.29 4.02-20.29L4.02-20.29L35.45-20.29Q36.71-20.29 36.71-19.02L36.71-19.02L36.71-18.36Q36.71-17.09 35.45-17.09L35.45-17.09L4.02-17.09Q2.70-17.09 2.70-18.36L2.70-18.36Z" transform="translate(126.79199218750001 223.35000000000002) " fill="#30302F" stroke="#30302F" stroke-width="0.094" data-glyph-w="39.415771484375" data-glyph-h="55.126953125" data-glyph-ascender="48.51171875" data-glyph-descender="-6.615234375"/><path d="M2.70-38.64L2.70-3.80Q2.70 0.17 5.90 1.76L5.90 1.76Q7.50 2.59 9.10 2.59L9.10 2.59L47.35 2.59Q48.95 2.59 50.55 1.76L50.55 1.76Q53.69 0.17 53.69-3.80L53.69-3.80L53.69-38.64Q53.69-39.91 52.43-39.91L52.43-39.91L46.47-39.91Q45.20-39.91 45.20-38.64L45.20-38.64L45.20-2.76Q45.20-0.61 43.11-0.61L43.11-0.61L13.34-0.61Q11.19-0.61 11.19-2.76L11.19-2.76L11.19-38.64Q11.19-39.91 9.92-39.91L9.92-39.91L3.97-39.91Q2.70-39.91 2.70-38.64L2.70-38.64Z" transform="translate(166.207763671875 223.35000000000002) " fill="#30302F" stroke="#30302F" stroke-width="0.094" data-glyph-w="56.45" data-glyph-h="55.126953125" data-glyph-ascender="48.51171875" data-glyph-descender="-6.615234375"/><path d="M2.70 1.38L2.70-38.59Q2.70-39.86 3.97-39.86L3.97-39.86L9.92-39.86Q11.19-39.86 11.19-38.59L11.19-38.59L11.19 1.38Q11.19 2.65 9.92 2.65L9.92 2.65L3.97 2.65Q2.70 2.65 2.70 1.38L2.70 1.38Z" transform="translate(222.657763671875 223.35000000000002) " fill="#30302F" stroke="#30302F" stroke-width="0.094" data-glyph-w="13.891992187500001" data-glyph-h="55.126953125" data-glyph-ascender="48.51171875" data-glyph-descender="-6.615234375"/><path d="M2.70-18.36L2.70-19.02Q2.70-20.29 4.02-20.29L4.02-20.29L35.45-20.29Q36.71-20.29 36.71-19.02L36.71-19.02L36.71-18.36Q36.71-17.09 35.45-17.09L35.45-17.09L4.02-17.09Q2.70-17.09 2.70-18.36L2.70-18.36Z" transform="translate(236.54975585937498 223.35000000000002) " fill="#30302F" stroke="#30302F" stroke-width="0.094" data-glyph-w="39.415771484375" data-glyph-h="55.126953125" data-glyph-ascender="48.51171875" data-glyph-descender="-6.615234375"/><path d="M2.70 1.32L2.70-38.64Q2.70-39.91 3.97-39.91L3.97-39.91L12.35-39.91Q12.84-39.91 13.23-39.58L13.23-39.58L43.05-9.92Q43.66-9.32 44.43-9.65L44.43-9.65Q45.20-9.98 45.20-10.86L45.20-10.86L45.20-38.64Q45.20-39.91 46.47-39.91L46.47-39.91L52.43-39.91Q53.69-39.91 53.69-38.64L53.69-38.64L53.69 1.32Q53.69 2.59 52.43 2.59L52.43 2.59L44.10 2.59Q43.55 2.59 43.22 2.21L43.22 2.21L13.40-27.40Q12.79-28.00 12.02-27.67L12.02-27.67Q11.19-27.34 11.19-26.52L11.19-26.52L11.19 1.32Q11.19 2.59 9.92 2.59L9.92 2.59L3.97 2.59Q2.70 2.59 2.70 1.32L2.70 1.32Z" transform="translate(275.96552734374995 223.35000000000002) " fill="#30302F" stroke="#30302F" stroke-width="0.094" data-glyph-w="56.45" data-glyph-h="55.126953125" data-glyph-ascender="48.51171875" data-glyph-descender="-6.615234375"/><path d="M52.43-39.86L9.10-39.86Q7.50-39.86 5.90-39.09L5.90-39.09Q2.70-37.49 2.70-33.52L2.70-33.52L2.70-3.75Q2.70-2.15 3.53-0.55L3.53-0.55Q5.13 2.65 9.10 2.65L9.10 2.65L52.43 2.65Q53.69 2.65 53.69 1.38L53.69 1.38L53.69 0.72Q53.69-0.55 52.43-0.55L52.43-0.55L13.34-0.55Q11.19-0.55 11.19-2.70L11.19-2.70L11.19-17.03L52.43-17.03Q53.69-17.03 53.69-18.30L53.69-18.30L53.69-18.96Q53.69-20.23 52.43-20.23L52.43-20.23L11.19-20.23L11.19-34.56Q11.19-36.66 13.34-36.66L13.34-36.66L52.43-36.66Q53.69-36.66 53.69-37.98L53.69-37.98L53.69-38.59Q53.69-39.86 52.43-39.86L52.43-39.86Z" transform="translate(332.41552734374994 223.35000000000002) " fill="#30302F" stroke="#30302F" stroke-width="0.094" data-glyph-w="56.45" data-glyph-h="55.126953125" data-glyph-ascender="48.51171875" data-glyph-descender="-6.615234375"/><path d="M41.84 2.15L28.23-12.51L14.61 2.15Q14.22 2.59 13.67 2.59L13.67 2.59L5.62 2.59Q4.80 2.59 4.47 1.82L4.47 1.82Q4.13 1.05 4.69 0.44L4.69 0.44L22.49-18.69L4.69-37.76Q4.13-38.42 4.47-39.14L4.47-39.14Q4.80-39.91 5.62-39.91L5.62-39.91L13.67-39.91Q14.22-39.91 14.61-39.53L14.61-39.53L28.23-24.86L41.84-39.53Q42.23-39.91 42.78-39.91L42.78-39.91L50.77-39.91Q51.60-39.91 51.98-39.14L51.98-39.14Q52.32-38.42 51.71-37.76L51.71-37.76L33.96-18.69L51.71 0.44Q52.32 1.05 51.98 1.82L51.98 1.82Q51.60 2.59 50.77 2.59L50.77 2.59L42.78 2.59Q42.23 2.59 41.84 2.15L41.84 2.15Z" transform="translate(388.86552734374993 223.35000000000002) " fill="#30302F" stroke="#30302F" stroke-width="0.094" data-glyph-w="56.45" data-glyph-h="55.126953125" data-glyph-ascender="48.51171875" data-glyph-descender="-6.615234375"/><path d="M23.98 1.32L23.98-36.71L3.97-36.71Q2.70-36.71 2.70-38.04L2.70-38.04L2.70-38.64Q2.70-39.91 3.97-39.91L3.97-39.91L52.43-39.91Q53.69-39.91 53.69-38.64L53.69-38.64L53.69-38.04Q53.69-36.71 52.43-36.71L52.43-36.71L32.47-36.71L32.47 1.32Q32.47 2.59 31.20 2.59L31.20 2.59L25.25 2.59Q23.98 2.59 23.98 1.32L23.98 1.32Z" transform="translate(445.3155273437499 223.35000000000002) " fill="#30302F" stroke="#30302F" stroke-width="0.094" data-glyph-w="56.45" data-glyph-h="55.126953125" data-glyph-ascender="48.51171875" data-glyph-descender="-6.615234375"/></g></svg></g></g><g id="shape_KHDwhB6tgS" type="text" transform="translate(180.87137649455005,243.5662890625) rotate(0,112.990198947307,69.9337109375) scale(1,1)" filter="" style="cursor: move; opacity: 1;"><g><svg xmlns="http://www.w3.org/2000/svg" xmlns:xlink="http://www.w3.org/1999/xlink" version="1.1" width="324.84" height="139.867421875" viewBox="0 0 324.84 139.867421875" data-parent="shape_KHDwhB6tgS"><g data-width="246.87222054687504" transform="translate(19.46, 0)"><line x1="0" x2="246.87222054687504" y1="79.0537109375" y2="79.0537109375" stroke="#000000" stroke-width="0" stroke-opacity="1"/></g><g data-width="246.87222054687504" transform="translate(19.46, 0)"><path d="M11.43-5.14L13.26-5.14L13.26-5.14Q12.89-2.56 11.27-1.09Q9.65 0.38 7.17 0.38L7.17 0.38Q4.29 0.38 2.57-1.61Q0.86-3.60 0.86-6.97L0.86-6.97Q0.86-10.35 2.64-12.35Q4.42-14.35 7.42-14.35L7.42-14.35Q9.79-14.35 11.31-13.13Q12.83-11.92 13.13-9.78L13.13-9.78L13.13-9.78L11.31-9.78L11.31-9.78Q11.04-11.16 10.02-11.92Q9.00-12.68 7.39-12.68L7.39-12.68Q5.29-12.68 4.05-11.13Q2.80-9.59 2.80-6.97L2.80-6.97Q2.80-4.20 3.96-2.75Q5.11-1.29 7.31-1.29L7.31-1.29Q8.93-1.29 10.01-2.29Q11.08-3.30 11.43-5.14L11.43-5.14L11.43-5.14Z" transform="translate(0 76.4337109375) " fill="#000000" stroke="#000000" stroke-width="0.032" stroke-miterlimit="3" data-glyph-w="14.053388671875" data-glyph-h="22.301083984375" data-glyph-ascender="18.0537109375" data-glyph-descender="-4.247373046875"/><path d="M7.56 0.38L7.56 0.38Q4.52 0.38 2.64-1.65Q0.76-3.68 0.76-6.97L0.76-6.97Q0.76-10.28 2.64-12.31Q4.52-14.35 7.56-14.35L7.56-14.35Q10.62-14.35 12.50-12.31Q14.38-10.28 14.38-6.97L14.38-6.97Q14.38-3.68 12.50-1.65Q10.62 0.38 7.56 0.38L7.56 0.38ZM7.56-1.29L7.56-1.29Q9.75-1.29 11.09-2.86Q12.43-4.43 12.43-6.97L12.43-6.97Q12.43-9.53 11.09-11.10Q9.75-12.68 7.56-12.68L7.56-12.68Q5.39-12.68 4.05-11.10Q2.71-9.53 2.71-6.97L2.71-6.97Q2.71-4.43 4.05-2.86Q5.39-1.29 7.56-1.29L7.56-1.29Z" transform="translate(14.053388671875 76.4337109375) " fill="#000000" stroke="#000000" stroke-width="0.032" stroke-miterlimit="3" data-glyph-w="15.136611328125001" data-glyph-h="22.301083984375" data-glyph-ascender="18.0537109375" data-glyph-descender="-4.247373046875"/><path d="M3.26-11.78L3.26 0L3.26 0L2.35 0L1.43 0L1.43 0L1.43-13.97L1.43-13.97L2.78-13.97L4.14-13.97L4.14-13.97L8.13-2.08L8.13-2.08L8.13-2.08L12.10-13.97L12.10-13.97L13.45-13.97L14.81-13.97L14.81-13.97L14.81 0L14.81 0L13.90 0L12.98 0L12.98 0L12.98-11.82L12.98-11.82L9.04 0L8.12 0L7.21 0L3.26-11.78L3.26-11.78Z" transform="translate(29.19 76.4337109375) " fill="#000000" stroke="#000000" stroke-width="0.032" stroke-miterlimit="3" data-glyph-w="16.21033203125" data-glyph-h="22.301083984375" data-glyph-ascender="18.0537109375" data-glyph-descender="-4.247373046875"/><path d="M1.67 0L1.67 0L1.67-13.97L1.67-13.97L2.61-13.97L2.61-13.97L7.78-13.97Q9.82-13.97 10.96-12.95Q12.11-11.92 12.11-10.12L12.11-10.12Q12.11-8.13 10.96-7.01Q9.82-5.89 7.78-5.89L7.78-5.89Q5.11-5.90 3.56-5.87L3.56-5.87L3.56-5.87L3.56 0L3.56 0L2.62 0L1.67 0ZM3.56-12.35L3.56-7.51L3.56-7.51L7.32-7.51Q8.79-7.51 9.47-8.13Q10.16-8.75 10.16-10.08L10.16-10.08Q10.16-11.26 9.47-11.81Q8.79-12.35 7.32-12.35L7.32-12.35L3.56-12.35L3.56-12.35Z" transform="translate(45.40033203125 76.4337109375) " fill="#000000" stroke="#000000" stroke-width="0.032" stroke-miterlimit="3" data-glyph-w="12.97966796875" data-glyph-h="22.301083984375" data-glyph-ascender="18.0537109375" data-glyph-descender="-4.247373046875"/><path d="M7.56 0.38L7.56 0.38Q4.52 0.38 2.64-1.65Q0.76-3.68 0.76-6.97L0.76-6.97Q0.76-10.28 2.64-12.31Q4.52-14.35 7.56-14.35L7.56-14.35Q10.62-14.35 12.50-12.31Q14.38-10.28 14.38-6.97L14.38-6.97Q14.38-3.68 12.50-1.65Q10.62 0.38 7.56 0.38L7.56 0.38ZM7.56-1.29L7.56-1.29Q9.75-1.29 11.09-2.86Q12.43-4.43 12.43-6.97L12.43-6.97Q12.43-9.53 11.09-11.10Q9.75-12.68 7.56-12.68L7.56-12.68Q5.39-12.68 4.05-11.10Q2.71-9.53 2.71-6.97L2.71-6.97Q2.71-4.43 4.05-2.86Q5.39-1.29 7.56-1.29L7.56-1.29Z" transform="translate(58.38 76.4337109375) " fill="#000000" stroke="#000000" stroke-width="0.032" stroke-miterlimit="3" data-glyph-w="15.136611328125001" data-glyph-h="22.301083984375" data-glyph-ascender="18.0537109375" data-glyph-descender="-4.247373046875"/><path d="M3.31-11.39L3.31 0L3.31 0L2.39 0L1.48 0L1.48 0L1.48-13.97L1.48-13.97L2.61-13.97L3.75-13.97L3.75-13.97L10.75-2.61L10.75-2.61L10.75-2.61L10.75-13.97L10.75-13.97L11.66-13.97L12.57-13.97L12.57-13.97L12.57 0L11.54 0L10.50 0L3.31-11.39L3.31-11.39L3.31-11.39Z" transform="translate(73.51661132812501 76.4337109375) " fill="#000000" stroke="#000000" stroke-width="0.032" stroke-miterlimit="3" data-glyph-w="14.053388671875" data-glyph-h="22.301083984375" data-glyph-ascender="18.0537109375" data-glyph-descender="-4.247373046875"/><path d="M11.99 0L1.67 0L1.67 0L1.67-13.97L1.67-13.97L11.89-13.97L11.89-13.97L11.89-13.13L11.89-12.30L11.89-12.30L3.56-12.30L3.56-12.30L3.56-8.03L3.56-8.03L11.16-8.03L11.16-7.19L11.16-6.36L11.16-6.36L3.56-6.36L3.56-6.36L3.56-1.67L3.56-1.67L11.99-1.67L11.99-1.67L11.99-0.84L11.99 0L11.99 0Z" transform="translate(87.57000000000001 76.4337109375) " fill="#000000" stroke="#000000" stroke-width="0.032" stroke-miterlimit="3" data-glyph-w="12.97966796875" data-glyph-h="22.301083984375" data-glyph-ascender="18.0537109375" data-glyph-descender="-4.247373046875"/><path d="M3.31-11.39L3.31 0L3.31 0L2.39 0L1.48 0L1.48 0L1.48-13.97L1.48-13.97L2.61-13.97L3.75-13.97L3.75-13.97L10.75-2.61L10.75-2.61L10.75-2.61L10.75-13.97L10.75-13.97L11.66-13.97L12.57-13.97L12.57-13.97L12.57 0L11.54 0L10.50 0L3.31-11.39L3.31-11.39L3.31-11.39Z" transform="translate(100.54966796875001 76.4337109375) " fill="#000000" stroke="#000000" stroke-width="0.032" stroke-miterlimit="3" data-glyph-w="14.053388671875" data-glyph-h="22.301083984375" data-glyph-ascender="18.0537109375" data-glyph-descender="-4.247373046875"/><path d="M5.00 0L5.00 0L5.00-12.30L5.00-12.30L0.28-12.30L0.28-12.30L0.28-13.13L0.28-13.97L0.28-13.97L11.61-13.97L11.61-13.97L11.61-13.13L11.61-12.30L11.61-12.30L6.89-12.30L6.89-12.30L6.89 0L6.89 0L5.95 0L5.00 0Z" transform="translate(114.60305664062501 76.4337109375) " fill="#000000" stroke="#000000" stroke-width="0.032" stroke-miterlimit="3" data-glyph-w="11.886943359375001" data-glyph-h="22.301083984375" data-glyph-ascender="18.0537109375" data-glyph-descender="-4.247373046875"/><path d="M11.73-9.92L10.00-9.92L10.00-9.92Q9.87-11.24 8.96-11.96Q8.04-12.68 6.49-12.68L6.49-12.68Q4.89-12.68 4.07-12.06Q3.24-11.44 3.24-10.25L3.24-10.25Q3.24-9.44 3.79-9.05L3.79-9.05Q4.34-8.65 6.01-8.26L6.01-8.26L8.44-7.68Q10.40-7.21 11.23-6.30L11.23-6.30Q12.07-5.40 12.07-3.74L12.07-3.74Q12.07-1.84 10.63-0.73Q9.19 0.38 6.73 0.38L6.73 0.38Q3.99 0.38 2.45-0.90L2.45-0.90Q0.95-2.17 0.95-4.36L0.95-4.36L0.95-4.47L0.95-4.47L2.69-4.47L2.69-4.47Q2.74-2.95 3.79-2.12Q4.85-1.29 6.73-1.29L6.73-1.29Q8.47-1.29 9.37-1.89Q10.27-2.49 10.27-3.65L10.27-3.65Q10.27-4.66 9.67-5.14L9.67-5.14Q9.08-5.62 7.30-6.04L7.30-6.04L4.87-6.62Q3.02-7.06 2.23-7.84L2.23-7.84Q1.44-8.62 1.44-10.00L1.44-10.00Q1.44-12.00 2.81-13.17Q4.17-14.35 6.49-14.35L6.49-14.35Q8.85-14.35 10.24-13.17Q11.64-11.99 11.73-9.92L11.73-9.92L11.73-9.92Z" transform="translate(126.49000000000001 76.4337109375) " fill="#000000" stroke="#000000" stroke-width="0.032" stroke-miterlimit="3" data-glyph-w="12.97966796875" data-glyph-h="22.301083984375" data-glyph-ascender="18.0537109375" data-glyph-descender="-4.247373046875"/><path d="" transform="translate(139.46966796875 76.4337109375) " fill="#000000" stroke="#000000" stroke-width="0.032" stroke-miterlimit="3" data-glyph-w="7.745080000000001" data-glyph-h="19.46" data-glyph-ascender="17.1248" data-glyph-descender="-2.3352000000000004"/><path d="M2.62 0L1.67 0L1.67-13.97L1.67-13.97L11.35-13.97L11.35-13.97L11.35-13.13L11.35-12.30L11.35-12.30L3.56-12.30L3.56-12.30L3.56-8.03L3.56-8.03L10.38-8.03L10.38-7.19L10.38-6.36L10.38-6.36L3.56-6.36L3.56-6.36L3.56 0L2.62 0Z" transform="translate(147.21474796875 76.4337109375) " fill="#000000" stroke="#000000" stroke-width="0.032" stroke-miterlimit="3" data-glyph-w="11.886943359375001" data-glyph-h="22.301083984375" data-glyph-ascender="18.0537109375" data-glyph-descender="-4.247373046875"/><path d="M7.56 0.38L7.56 0.38Q4.52 0.38 2.64-1.65Q0.76-3.68 0.76-6.97L0.76-6.97Q0.76-10.28 2.64-12.31Q4.52-14.35 7.56-14.35L7.56-14.35Q10.62-14.35 12.50-12.31Q14.38-10.28 14.38-6.97L14.38-6.97Q14.38-3.68 12.50-1.65Q10.62 0.38 7.56 0.38L7.56 0.38ZM7.56-1.29L7.56-1.29Q9.75-1.29 11.09-2.86Q12.43-4.43 12.43-6.97L12.43-6.97Q12.43-9.53 11.09-11.10Q9.75-12.68 7.56-12.68L7.56-12.68Q5.39-12.68 4.05-11.10Q2.71-9.53 2.71-6.97L2.71-6.97Q2.71-4.43 4.05-2.86Q5.39-1.29 7.56-1.29L7.56-1.29Z" transform="translate(159.101691328125 76.4337109375) " fill="#000000" stroke="#000000" stroke-width="0.032" stroke-miterlimit="3" data-glyph-w="15.136611328125001" data-glyph-h="22.301083984375" data-glyph-ascender="18.0537109375" data-glyph-descender="-4.247373046875"/><path d="M1.71 0L1.71 0L1.71-13.97L1.71-13.97L2.65-13.97L2.65-13.97L8.21-13.97Q10.43-13.97 11.59-13.00Q12.75-12.04 12.75-10.18L12.75-10.18Q12.75-8.34 11.54-7.31L11.54-7.31Q11.24-7.05 10.89-6.85L10.89-6.85L10.89-6.85L11.20-6.70Q12.48-5.97 12.52-4.24L12.52-4.24L12.60-1.69Q12.62-1.06 12.76-0.79Q12.90-0.51 13.31-0.31L13.31-0.31L13.31-0.01L10.98-0.01Q10.91-0.18 10.83-0.90Q10.76-1.62 10.72-2.51L10.72-2.51L10.68-3.61Q10.64-4.91 10.04-5.47Q9.44-6.02 8.09-6.02L8.09-6.02L3.60-6.02L3.60-6.02L3.60 0L3.60 0L2.66 0L1.71 0ZM3.60-12.38L3.60-7.66L3.60-7.66L8.28-7.66Q9.59-7.66 10.20-8.23Q10.80-8.81 10.80-10.05L10.80-10.05Q10.80-11.26 10.16-11.82Q9.52-12.38 8.13-12.38L8.13-12.38L3.60-12.38L3.60-12.38Z" transform="translate(174.23830265625003 76.4337109375) " fill="#000000" stroke="#000000" stroke-width="0.032" stroke-miterlimit="3" data-glyph-w="14.053388671875" data-glyph-h="22.301083984375" data-glyph-ascender="18.0537109375" data-glyph-descender="-4.247373046875"/><path d="" transform="translate(188.29169132812504 76.4337109375) " fill="#000000" stroke="#000000" stroke-width="0.032" stroke-miterlimit="3" data-glyph-w="7.745080000000001" data-glyph-h="19.46" data-glyph-ascender="17.1248" data-glyph-descender="-2.3352000000000004"/><path d="M5.47 0L0.39-13.97L0.39-13.97L1.43-13.97L2.49-13.97L2.49-13.97L6.50-2.03L6.50-2.03L6.50-2.03L10.50-13.97L10.50-13.97L11.54-13.97L12.59-13.97L12.59-13.97L7.51 0L6.49 0L5.47 0Z" transform="translate(196.03677132812504 76.4337109375) " fill="#000000" stroke="#000000" stroke-width="0.032" stroke-miterlimit="3" data-glyph-w="12.97966796875" data-glyph-h="22.301083984375" data-glyph-ascender="18.0537109375" data-glyph-descender="-4.247373046875"/><path d="M12.53-13.97L12.53-5.12Q12.53-2.54 11.08-1.08Q9.63 0.38 7.04 0.38L7.04 0.38Q4.35 0.38 2.95-1.02Q1.54-2.42 1.54-5.12L1.54-5.12L1.54-13.97L1.54-13.97L2.48-13.97L3.43-13.97L3.43-13.97L3.43-5.26Q3.43-3.32 4.35-2.30Q5.27-1.29 7.04-1.29L7.04-1.29Q8.81-1.29 9.73-2.30Q10.64-3.32 10.64-5.26L10.64-5.26L10.64-13.97L10.64-13.97L11.58-13.97L12.53-13.97L12.53-13.97Z" transform="translate(209.01643929687503 76.4337109375) " fill="#000000" stroke="#000000" stroke-width="0.032" stroke-miterlimit="3" data-glyph-w="14.053388671875" data-glyph-h="22.301083984375" data-glyph-ascender="18.0537109375" data-glyph-descender="-4.247373046875"/><path d="M11.99 0L1.67 0L1.67 0L1.67-13.97L1.67-13.97L11.89-13.97L11.89-13.97L11.89-13.13L11.89-12.30L11.89-12.30L3.56-12.30L3.56-12.30L3.56-8.03L3.56-8.03L11.16-8.03L11.16-7.19L11.16-6.36L11.16-6.36L3.56-6.36L3.56-6.36L3.56-1.67L3.56-1.67L11.99-1.67L11.99-1.67L11.99-0.84L11.99 0L11.99 0Z" transform="translate(223.06982796875005 76.4337109375) " fill="#000000" stroke="#000000" stroke-width="0.032" stroke-miterlimit="3" data-glyph-w="12.97966796875" data-glyph-h="22.301083984375" data-glyph-ascender="18.0537109375" data-glyph-descender="-4.247373046875"/><path d="M7.91-9.97L7.91-9.97Q7.91-10.94 7.17-11.55Q6.43-12.16 5.28-12.16L5.28-12.16Q4.07-12.16 3.42-11.42Q2.77-10.67 2.71-9.19L2.71-9.19L2.71-9.19L1.05-9.19L1.05-9.19Q1.05-11.34 2.17-12.51Q3.30-13.68 5.36-13.68L5.36-13.68Q7.31-13.68 8.50-12.71Q9.69-11.73 9.69-10.14L9.69-10.14Q9.69-8.55 8.49-7.57L8.49-7.57Q8.27-7.38 8.00-7.23L8.00-7.23L8.00-7.23Q8.49-7.01 8.87-6.71L8.87-6.71Q10.16-5.70 10.16-3.99L10.16-3.99Q10.16-2.07 8.83-0.85Q7.50 0.37 5.41 0.37L5.41 0.37Q3.11 0.37 1.94-0.74Q0.77-1.84 0.67-4.12L0.67-4.12L0.67-4.12L2.46-4.12L2.46-4.12Q2.61-2.53 3.31-1.84Q4.00-1.15 5.46-1.15L5.46-1.15Q6.73-1.15 7.54-1.88Q8.34-2.60 8.34-3.74L8.34-3.74Q8.34-4.94 7.56-5.64L7.56-5.64Q6.90-6.25 5.85-6.33L5.85-6.33Q5.37-6.36 4.94-6.36Q4.50-6.36 4.36-6.32L4.36-6.32L4.36-7.82Q4.57-7.77 5.01-7.77Q5.44-7.77 5.87-7.83L5.87-7.83Q6.70-7.93 7.21-8.37L7.21-8.37Q7.91-8.94 7.91-9.97Z" transform="translate(236.04949593750004 76.4337109375) " fill="#000000" stroke="#000000" stroke-width="0.032" stroke-miterlimit="3" data-glyph-w="10.822724609375001" data-glyph-h="22.301083984375" data-glyph-ascender="18.0537109375" data-glyph-descender="-4.247373046875"/></g><g data-width="246.87222054687504" transform="translate(19.46, 0)"><path d="M11.43-5.14L13.26-5.14L13.26-5.14Q12.89-2.56 11.27-1.09Q9.65 0.38 7.17 0.38L7.17 0.38Q4.29 0.38 2.57-1.61Q0.86-3.60 0.86-6.97L0.86-6.97Q0.86-10.35 2.64-12.35Q4.42-14.35 7.42-14.35L7.42-14.35Q9.79-14.35 11.31-13.13Q12.83-11.92 13.13-9.78L13.13-9.78L13.13-9.78L11.31-9.78L11.31-9.78Q11.04-11.16 10.02-11.92Q9.00-12.68 7.39-12.68L7.39-12.68Q5.29-12.68 4.05-11.13Q2.80-9.59 2.80-6.97L2.80-6.97Q2.80-4.20 3.96-2.75Q5.11-1.29 7.31-1.29L7.31-1.29Q8.93-1.29 10.01-2.29Q11.08-3.30 11.43-5.14L11.43-5.14L11.43-5.14Z" transform="translate(0 76.4337109375) " fill="#30302F" stroke="#30302F" stroke-width="0.032" data-glyph-w="14.053388671875" data-glyph-h="22.301083984375" data-glyph-ascender="18.0537109375" data-glyph-descender="-4.247373046875"/><path d="M7.56 0.38L7.56 0.38Q4.52 0.38 2.64-1.65Q0.76-3.68 0.76-6.97L0.76-6.97Q0.76-10.28 2.64-12.31Q4.52-14.35 7.56-14.35L7.56-14.35Q10.62-14.35 12.50-12.31Q14.38-10.28 14.38-6.97L14.38-6.97Q14.38-3.68 12.50-1.65Q10.62 0.38 7.56 0.38L7.56 0.38ZM7.56-1.29L7.56-1.29Q9.75-1.29 11.09-2.86Q12.43-4.43 12.43-6.97L12.43-6.97Q12.43-9.53 11.09-11.10Q9.75-12.68 7.56-12.68L7.56-12.68Q5.39-12.68 4.05-11.10Q2.71-9.53 2.71-6.97L2.71-6.97Q2.71-4.43 4.05-2.86Q5.39-1.29 7.56-1.29L7.56-1.29Z" transform="translate(14.053388671875 76.4337109375) " fill="#30302F" stroke="#30302F" stroke-width="0.032" data-glyph-w="15.136611328125001" data-glyph-h="22.301083984375" data-glyph-ascender="18.0537109375" data-glyph-descender="-4.247373046875"/><path d="M3.26-11.78L3.26 0L3.26 0L2.35 0L1.43 0L1.43 0L1.43-13.97L1.43-13.97L2.78-13.97L4.14-13.97L4.14-13.97L8.13-2.08L8.13-2.08L8.13-2.08L12.10-13.97L12.10-13.97L13.45-13.97L14.81-13.97L14.81-13.97L14.81 0L14.81 0L13.90 0L12.98 0L12.98 0L12.98-11.82L12.98-11.82L9.04 0L8.12 0L7.21 0L3.26-11.78L3.26-11.78Z" transform="translate(29.19 76.4337109375) " fill="#30302F" stroke="#30302F" stroke-width="0.032" data-glyph-w="16.21033203125" data-glyph-h="22.301083984375" data-glyph-ascender="18.0537109375" data-glyph-descender="-4.247373046875"/><path d="M1.67 0L1.67 0L1.67-13.97L1.67-13.97L2.61-13.97L2.61-13.97L7.78-13.97Q9.82-13.97 10.96-12.95Q12.11-11.92 12.11-10.12L12.11-10.12Q12.11-8.13 10.96-7.01Q9.82-5.89 7.78-5.89L7.78-5.89Q5.11-5.90 3.56-5.87L3.56-5.87L3.56-5.87L3.56 0L3.56 0L2.62 0L1.67 0ZM3.56-12.35L3.56-7.51L3.56-7.51L7.32-7.51Q8.79-7.51 9.47-8.13Q10.16-8.75 10.16-10.08L10.16-10.08Q10.16-11.26 9.47-11.81Q8.79-12.35 7.32-12.35L7.32-12.35L3.56-12.35L3.56-12.35Z" transform="translate(45.40033203125 76.4337109375) " fill="#30302F" stroke="#30302F" stroke-width="0.032" data-glyph-w="12.97966796875" data-glyph-h="22.301083984375" data-glyph-ascender="18.0537109375" data-glyph-descender="-4.247373046875"/><path d="M7.56 0.38L7.56 0.38Q4.52 0.38 2.64-1.65Q0.76-3.68 0.76-6.97L0.76-6.97Q0.76-10.28 2.64-12.31Q4.52-14.35 7.56-14.35L7.56-14.35Q10.62-14.35 12.50-12.31Q14.38-10.28 14.38-6.97L14.38-6.97Q14.38-3.68 12.50-1.65Q10.62 0.38 7.56 0.38L7.56 0.38ZM7.56-1.29L7.56-1.29Q9.75-1.29 11.09-2.86Q12.43-4.43 12.43-6.97L12.43-6.97Q12.43-9.53 11.09-11.10Q9.75-12.68 7.56-12.68L7.56-12.68Q5.39-12.68 4.05-11.10Q2.71-9.53 2.71-6.97L2.71-6.97Q2.71-4.43 4.05-2.86Q5.39-1.29 7.56-1.29L7.56-1.29Z" transform="translate(58.38 76.4337109375) " fill="#30302F" stroke="#30302F" stroke-width="0.032" data-glyph-w="15.136611328125001" data-glyph-h="22.301083984375" data-glyph-ascender="18.0537109375" data-glyph-descender="-4.247373046875"/><path d="M3.31-11.39L3.31 0L3.31 0L2.39 0L1.48 0L1.48 0L1.48-13.97L1.48-13.97L2.61-13.97L3.75-13.97L3.75-13.97L10.75-2.61L10.75-2.61L10.75-2.61L10.75-13.97L10.75-13.97L11.66-13.97L12.57-13.97L12.57-13.97L12.57 0L11.54 0L10.50 0L3.31-11.39L3.31-11.39L3.31-11.39Z" transform="translate(73.51661132812501 76.4337109375) " fill="#30302F" stroke="#30302F" stroke-width="0.032" data-glyph-w="14.053388671875" data-glyph-h="22.301083984375" data-glyph-ascender="18.0537109375" data-glyph-descender="-4.247373046875"/><path d="M11.99 0L1.67 0L1.67 0L1.67-13.97L1.67-13.97L11.89-13.97L11.89-13.97L11.89-13.13L11.89-12.30L11.89-12.30L3.56-12.30L3.56-12.30L3.56-8.03L3.56-8.03L11.16-8.03L11.16-7.19L11.16-6.36L11.16-6.36L3.56-6.36L3.56-6.36L3.56-1.67L3.56-1.67L11.99-1.67L11.99-1.67L11.99-0.84L11.99 0L11.99 0Z" transform="translate(87.57000000000001 76.4337109375) " fill="#30302F" stroke="#30302F" stroke-width="0.032" data-glyph-w="12.97966796875" data-glyph-h="22.301083984375" data-glyph-ascender="18.0537109375" data-glyph-descender="-4.247373046875"/><path d="M3.31-11.39L3.31 0L3.31 0L2.39 0L1.48 0L1.48 0L1.48-13.97L1.48-13.97L2.61-13.97L3.75-13.97L3.75-13.97L10.75-2.61L10.75-2.61L10.75-2.61L10.75-13.97L10.75-13.97L11.66-13.97L12.57-13.97L12.57-13.97L12.57 0L11.54 0L10.50 0L3.31-11.39L3.31-11.39L3.31-11.39Z" transform="translate(100.54966796875001 76.4337109375) " fill="#30302F" stroke="#30302F" stroke-width="0.032" data-glyph-w="14.053388671875" data-glyph-h="22.301083984375" data-glyph-ascender="18.0537109375" data-glyph-descender="-4.247373046875"/><path d="M5.00 0L5.00 0L5.00-12.30L5.00-12.30L0.28-12.30L0.28-12.30L0.28-13.13L0.28-13.97L0.28-13.97L11.61-13.97L11.61-13.97L11.61-13.13L11.61-12.30L11.61-12.30L6.89-12.30L6.89-12.30L6.89 0L6.89 0L5.95 0L5.00 0Z" transform="translate(114.60305664062501 76.4337109375) " fill="#30302F" stroke="#30302F" stroke-width="0.032" data-glyph-w="11.886943359375001" data-glyph-h="22.301083984375" data-glyph-ascender="18.0537109375" data-glyph-descender="-4.247373046875"/><path d="M11.73-9.92L10.00-9.92L10.00-9.92Q9.87-11.24 8.96-11.96Q8.04-12.68 6.49-12.68L6.49-12.68Q4.89-12.68 4.07-12.06Q3.24-11.44 3.24-10.25L3.24-10.25Q3.24-9.44 3.79-9.05L3.79-9.05Q4.34-8.65 6.01-8.26L6.01-8.26L8.44-7.68Q10.40-7.21 11.23-6.30L11.23-6.30Q12.07-5.40 12.07-3.74L12.07-3.74Q12.07-1.84 10.63-0.73Q9.19 0.38 6.73 0.38L6.73 0.38Q3.99 0.38 2.45-0.90L2.45-0.90Q0.95-2.17 0.95-4.36L0.95-4.36L0.95-4.47L0.95-4.47L2.69-4.47L2.69-4.47Q2.74-2.95 3.79-2.12Q4.85-1.29 6.73-1.29L6.73-1.29Q8.47-1.29 9.37-1.89Q10.27-2.49 10.27-3.65L10.27-3.65Q10.27-4.66 9.67-5.14L9.67-5.14Q9.08-5.62 7.30-6.04L7.30-6.04L4.87-6.62Q3.02-7.06 2.23-7.84L2.23-7.84Q1.44-8.62 1.44-10.00L1.44-10.00Q1.44-12.00 2.81-13.17Q4.17-14.35 6.49-14.35L6.49-14.35Q8.85-14.35 10.24-13.17Q11.64-11.99 11.73-9.92L11.73-9.92L11.73-9.92Z" transform="translate(126.49000000000001 76.4337109375) " fill="#30302F" stroke="#30302F" stroke-width="0.032" data-glyph-w="12.97966796875" data-glyph-h="22.301083984375" data-glyph-ascender="18.0537109375" data-glyph-descender="-4.247373046875"/><path d="" transform="translate(139.46966796875 76.4337109375) " fill="#30302F" stroke="#30302F" stroke-width="0.032" data-glyph-w="7.745080000000001" data-glyph-h="19.46" data-glyph-ascender="17.1248" data-glyph-descender="-2.3352000000000004"/><path d="M2.62 0L1.67 0L1.67-13.97L1.67-13.97L11.35-13.97L11.35-13.97L11.35-13.13L11.35-12.30L11.35-12.30L3.56-12.30L3.56-12.30L3.56-8.03L3.56-8.03L10.38-8.03L10.38-7.19L10.38-6.36L10.38-6.36L3.56-6.36L3.56-6.36L3.56 0L2.62 0Z" transform="translate(147.21474796875 76.4337109375) " fill="#30302F" stroke="#30302F" stroke-width="0.032" data-glyph-w="11.886943359375001" data-glyph-h="22.301083984375" data-glyph-ascender="18.0537109375" data-glyph-descender="-4.247373046875"/><path d="M7.56 0.38L7.56 0.38Q4.52 0.38 2.64-1.65Q0.76-3.68 0.76-6.97L0.76-6.97Q0.76-10.28 2.64-12.31Q4.52-14.35 7.56-14.35L7.56-14.35Q10.62-14.35 12.50-12.31Q14.38-10.28 14.38-6.97L14.38-6.97Q14.38-3.68 12.50-1.65Q10.62 0.38 7.56 0.38L7.56 0.38ZM7.56-1.29L7.56-1.29Q9.75-1.29 11.09-2.86Q12.43-4.43 12.43-6.97L12.43-6.97Q12.43-9.53 11.09-11.10Q9.75-12.68 7.56-12.68L7.56-12.68Q5.39-12.68 4.05-11.10Q2.71-9.53 2.71-6.97L2.71-6.97Q2.71-4.43 4.05-2.86Q5.39-1.29 7.56-1.29L7.56-1.29Z" transform="translate(159.101691328125 76.4337109375) " fill="#30302F" stroke="#30302F" stroke-width="0.032" data-glyph-w="15.136611328125001" data-glyph-h="22.301083984375" data-glyph-ascender="18.0537109375" data-glyph-descender="-4.247373046875"/><path d="M1.71 0L1.71 0L1.71-13.97L1.71-13.97L2.65-13.97L2.65-13.97L8.21-13.97Q10.43-13.97 11.59-13.00Q12.75-12.04 12.75-10.18L12.75-10.18Q12.75-8.34 11.54-7.31L11.54-7.31Q11.24-7.05 10.89-6.85L10.89-6.85L10.89-6.85L11.20-6.70Q12.48-5.97 12.52-4.24L12.52-4.24L12.60-1.69Q12.62-1.06 12.76-0.79Q12.90-0.51 13.31-0.31L13.31-0.31L13.31-0.01L10.98-0.01Q10.91-0.18 10.83-0.90Q10.76-1.62 10.72-2.51L10.72-2.51L10.68-3.61Q10.64-4.91 10.04-5.47Q9.44-6.02 8.09-6.02L8.09-6.02L3.60-6.02L3.60-6.02L3.60 0L3.60 0L2.66 0L1.71 0ZM3.60-12.38L3.60-7.66L3.60-7.66L8.28-7.66Q9.59-7.66 10.20-8.23Q10.80-8.81 10.80-10.05L10.80-10.05Q10.80-11.26 10.16-11.82Q9.52-12.38 8.13-12.38L8.13-12.38L3.60-12.38L3.60-12.38Z" transform="translate(174.23830265625003 76.4337109375) " fill="#30302F" stroke="#30302F" stroke-width="0.032" data-glyph-w="14.053388671875" data-glyph-h="22.301083984375" data-glyph-ascender="18.0537109375" data-glyph-descender="-4.247373046875"/><path d="" transform="translate(188.29169132812504 76.4337109375) " fill="#30302F" stroke="#30302F" stroke-width="0.032" data-glyph-w="7.745080000000001" data-glyph-h="19.46" data-glyph-ascender="17.1248" data-glyph-descender="-2.3352000000000004"/><path d="M5.47 0L0.39-13.97L0.39-13.97L1.43-13.97L2.49-13.97L2.49-13.97L6.50-2.03L6.50-2.03L6.50-2.03L10.50-13.97L10.50-13.97L11.54-13.97L12.59-13.97L12.59-13.97L7.51 0L6.49 0L5.47 0Z" transform="translate(196.03677132812504 76.4337109375) " fill="#30302F" stroke="#30302F" stroke-width="0.032" data-glyph-w="12.97966796875" data-glyph-h="22.301083984375" data-glyph-ascender="18.0537109375" data-glyph-descender="-4.247373046875"/><path d="M12.53-13.97L12.53-5.12Q12.53-2.54 11.08-1.08Q9.63 0.38 7.04 0.38L7.04 0.38Q4.35 0.38 2.95-1.02Q1.54-2.42 1.54-5.12L1.54-5.12L1.54-13.97L1.54-13.97L2.48-13.97L3.43-13.97L3.43-13.97L3.43-5.26Q3.43-3.32 4.35-2.30Q5.27-1.29 7.04-1.29L7.04-1.29Q8.81-1.29 9.73-2.30Q10.64-3.32 10.64-5.26L10.64-5.26L10.64-13.97L10.64-13.97L11.58-13.97L12.53-13.97L12.53-13.97Z" transform="translate(209.01643929687503 76.4337109375) " fill="#30302F" stroke="#30302F" stroke-width="0.032" data-glyph-w="14.053388671875" data-glyph-h="22.301083984375" data-glyph-ascender="18.0537109375" data-glyph-descender="-4.247373046875"/><path d="M11.99 0L1.67 0L1.67 0L1.67-13.97L1.67-13.97L11.89-13.97L11.89-13.97L11.89-13.13L11.89-12.30L11.89-12.30L3.56-12.30L3.56-12.30L3.56-8.03L3.56-8.03L11.16-8.03L11.16-7.19L11.16-6.36L11.16-6.36L3.56-6.36L3.56-6.36L3.56-1.67L3.56-1.67L11.99-1.67L11.99-1.67L11.99-0.84L11.99 0L11.99 0Z" transform="translate(223.06982796875005 76.4337109375) " fill="#30302F" stroke="#30302F" stroke-width="0.032" data-glyph-w="12.97966796875" data-glyph-h="22.301083984375" data-glyph-ascender="18.0537109375" data-glyph-descender="-4.247373046875"/><path d="M7.91-9.97L7.91-9.97Q7.91-10.94 7.17-11.55Q6.43-12.16 5.28-12.16L5.28-12.16Q4.07-12.16 3.42-11.42Q2.77-10.67 2.71-9.19L2.71-9.19L2.71-9.19L1.05-9.19L1.05-9.19Q1.05-11.34 2.17-12.51Q3.30-13.68 5.36-13.68L5.36-13.68Q7.31-13.68 8.50-12.71Q9.69-11.73 9.69-10.14L9.69-10.14Q9.69-8.55 8.49-7.57L8.49-7.57Q8.27-7.38 8.00-7.23L8.00-7.23L8.00-7.23Q8.49-7.01 8.87-6.71L8.87-6.71Q10.16-5.70 10.16-3.99L10.16-3.99Q10.16-2.07 8.83-0.85Q7.50 0.37 5.41 0.37L5.41 0.37Q3.11 0.37 1.94-0.74Q0.77-1.84 0.67-4.12L0.67-4.12L0.67-4.12L2.46-4.12L2.46-4.12Q2.61-2.53 3.31-1.84Q4.00-1.15 5.46-1.15L5.46-1.15Q6.73-1.15 7.54-1.88Q8.34-2.60 8.34-3.74L8.34-3.74Q8.34-4.94 7.56-5.64L7.56-5.64Q6.90-6.25 5.85-6.33L5.85-6.33Q5.37-6.36 4.94-6.36Q4.50-6.36 4.36-6.32L4.36-6.32L4.36-7.82Q4.57-7.77 5.01-7.77Q5.44-7.77 5.87-7.83L5.87-7.83Q6.70-7.93 7.21-8.37L7.21-8.37Q7.91-8.94 7.91-9.97Z" transform="translate(236.04949593750004 76.4337109375) " fill="#30302F" stroke="#30302F" stroke-width="0.032" data-glyph-w="10.822724609375001" data-glyph-h="22.301083984375" data-glyph-ascender="18.0537109375" data-glyph-descender="-4.247373046875"/></g></svg></g></g>  <!----></svg>
