<?xml version="1.0"?>
<svg xmlns="http://www.w3.org/2000/svg" xmlns:xlink="http://www.w3.org/1999/xlink" data-noselect="" viewBox="0 0 800 600" width="1600" height="1200" preserveAspectRatio="none" version="1.1"><defs/> <g id="background" data-noselect=""><rect fill="#ffffff" width="800" height="600" data-noselect=""/> <!----></g> <g id="shape_Q98B44vnU4" transform="translate(40.00000000000003,251.71050044321026) rotate(0,57.46721821013905,49.28790934522702) scale(1,1)" filter="" style="cursor: move; opacity: 1;"><g><svg xmlns="http://www.w3.org/2000/svg" xmlns:xlink="http://www.w3.org/1999/xlink" version="1.1" id="&#x56FE;&#x5C42;_1" x="0px" y="0px" viewBox="0 0 189.7 162.7" style="enable-background:new 0 0 189.7 162.7;" xml:space="preserve" width="114.93443642027637" height="98.57581869045231" class="style-removed" preserveAspectRatio="none" data-parent="shape_Q98B44vnU4">

<g>
	<path d="M91.3,152.5c-13.7,0-26.5-4-37.3-10.7c14.3,12.9,33.3,20.8,54.1,20.9c35.7,0.1,66-22.7,77.1-54.7   c-10.5,4.2-21.9,8.3-33.9,12C138.6,139.6,116.5,152.6,91.3,152.5z" fill="#30CC9C" stroke-width="0"/>
	<path d="M108.7,0C87.9-0.1,68.9,7.7,54.4,20.5C65.3,13.8,78.1,10,91.8,10.1c39.3,0.1,71.1,32.1,71,71.5   c0,5.5-0.7,10.9-1.9,16.1c-5.4,1.4-10.9,2.7-16.5,3.9c-66.7,14.7-123.2,12.9-126.1-4c-1.1-6.7,9.1-17.2,20.5-22.4   C12.4,85-1.8,98.4,0.2,109.6c3.4,19.7,60.2,23.8,126.9,9.1c10.5-2.3,20.7-5,30.3-7.9c1.1-0.3,2.2-0.6,3.4-0.9   c9.2-2.6,18-5.4,26.5-8.3c0.1-0.4,0.2-0.9,0.3-1.3c0.8-3.5,1.4-7.2,1.8-10.9c0.3-2.5,0.4-5.1,0.4-7.7C189.9,36.7,153.6,0.2,108.7,0   z" fill="#30CC9C" stroke-width="0"/>
</g>
</svg></g></g><g id="shape_ma1soZ7pdM" transform="translate(98.50735746931309,43.19346681560549) rotate(0,364.1563212653435,240.45999999999998) scale(1,1)" filter="" style="cursor: move; opacity: 1;"><g><svg xmlns="http://www.w3.org/2000/svg" xmlns:xlink="http://www.w3.org/1999/xlink" version="1.1" width="861.952642530687" height="480.91999999999996" viewBox="0 0 861.952642530687 480.91999999999996"><g data-width="593.9410546874999" transform="translate(66.82, 0)"><line x1="0" x2="593.9410546874999" y1="272.14" y2="272.14" stroke="rgb(0, 0, 0)" stroke-width="0" stroke-opacity="1"/></g><g data-width="593.9410546874999" transform="translate(66.82, 0)"><path d="M56.05-47.18L4.70-47.18Q3.20-47.18 3.20-45.68L3.20-45.68L3.20 1.63Q3.20 3.13 4.70 3.13L4.70 3.13L56.05 3.13Q57.95 3.13 59.84 2.15L59.84 2.15Q63.56 0.26 63.56-4.44L63.56-4.44L63.56-9.46Q63.56-14.49 59.84-18.27L59.84-18.27L56.05-22.06L59.84-25.84Q63.56-29.56 63.56-34.65L63.56-34.65L63.56-39.67Q63.56-44.37 59.84-46.27L59.84-46.27Q57.95-47.18 56.05-47.18L56.05-47.18ZM14.81-43.39L51.03-43.39Q53.51-43.39 53.51-40.91L53.51-40.91L53.51-35.56Q53.51-33.08 51.94-31.52L51.94-31.52L44.37-23.95L13.25-23.95L13.25-41.89Q13.25-43.39 14.81-43.39L14.81-43.39ZM51.03-0.65L14.81-0.65Q13.25-0.65 13.25-2.15L13.25-2.15L13.25-20.16L44.37-20.16L51.94-12.59Q53.51-11.03 53.51-8.48L53.51-8.48L53.51-3.20Q53.51-0.65 51.03-0.65L51.03-0.65Z" transform="translate(0 264.46) " fill="#000000" stroke="#000000" stroke-width="0.111" stroke-miterlimit="3" data-glyph-w="66.82" data-glyph-h="65.25390625" data-glyph-ascender="57.42343749999999" data-glyph-descender="-7.83046875"/><path d="M3.20 1.63L3.20-45.68Q3.20-47.18 4.70-47.18L4.70-47.18L11.75-47.18Q13.25-47.18 13.25-45.68L13.25-45.68L13.25 1.63Q13.25 3.13 11.75 3.13L11.75 3.13L4.70 3.13Q3.20 3.13 3.20 1.63L3.20 1.63Z" transform="translate(66.82 264.46) " fill="#000000" stroke="#000000" stroke-width="0.111" stroke-miterlimit="3" data-glyph-w="16.443984375" data-glyph-h="65.25390625" data-glyph-ascender="57.42343749999999" data-glyph-descender="-7.83046875"/><path d="M3.20 1.57L3.20-45.74Q3.20-47.24 4.70-47.24L4.70-47.24L14.62-47.24Q15.20-47.24 15.66-46.85L15.66-46.85L50.96-11.75Q51.68-11.03 52.59-11.42L52.59-11.42Q53.51-11.81 53.51-12.86L53.51-12.86L53.51-45.74Q53.51-47.24 55.01-47.24L55.01-47.24L62.06-47.24Q63.56-47.24 63.56-45.74L63.56-45.74L63.56 1.57Q63.56 3.07 62.06 3.07L62.06 3.07L52.20 3.07Q51.55 3.07 51.16 2.61L51.16 2.61L15.86-32.43Q15.14-33.15 14.23-32.76L14.23-32.76Q13.25-32.37 13.25-31.39L13.25-31.39L13.25 1.57Q13.25 3.07 11.75 3.07L11.75 3.07L4.70 3.07Q3.20 3.07 3.20 1.57L3.20 1.57Z" transform="translate(83.26398437499999 264.46) " fill="#000000" stroke="#000000" stroke-width="0.111" stroke-miterlimit="3" data-glyph-w="66.82" data-glyph-h="65.25390625" data-glyph-ascender="57.42343749999999" data-glyph-descender="-7.83046875"/><path d="M3.20-21.73L3.20-22.51Q3.20-24.01 4.76-24.01L4.76-24.01L41.96-24.01Q43.46-24.01 43.46-22.51L43.46-22.51L43.46-21.73Q43.46-20.23 41.96-20.23L41.96-20.23L4.76-20.23Q3.20-20.23 3.20-21.73L3.20-21.73Z" transform="translate(150.083984375 264.46) " fill="#000000" stroke="#000000" stroke-width="0.111" stroke-miterlimit="3" data-glyph-w="46.656542968749996" data-glyph-h="65.25390625" data-glyph-ascender="57.42343749999999" data-glyph-descender="-7.83046875"/><path d="M3.20-45.74L3.20-4.50Q3.20 0.20 6.98 2.09L6.98 2.09Q8.87 3.07 10.77 3.07L10.77 3.07L56.05 3.07Q57.95 3.07 59.84 2.09L59.84 2.09Q63.56 0.20 63.56-4.50L63.56-4.50L63.56-45.74Q63.56-47.24 62.06-47.24L62.06-47.24L55.01-47.24Q53.51-47.24 53.51-45.74L53.51-45.74L53.51-3.26Q53.51-0.72 51.03-0.72L51.03-0.72L15.79-0.72Q13.25-0.72 13.25-3.26L13.25-3.26L13.25-45.74Q13.25-47.24 11.75-47.24L11.75-47.24L4.70-47.24Q3.20-47.24 3.20-45.74L3.20-45.74Z" transform="translate(196.74052734375 264.46) " fill="#000000" stroke="#000000" stroke-width="0.111" stroke-miterlimit="3" data-glyph-w="66.82" data-glyph-h="65.25390625" data-glyph-ascender="57.42343749999999" data-glyph-descender="-7.83046875"/><path d="M3.20 1.63L3.20-45.68Q3.20-47.18 4.70-47.18L4.70-47.18L11.75-47.18Q13.25-47.18 13.25-45.68L13.25-45.68L13.25 1.63Q13.25 3.13 11.75 3.13L11.75 3.13L4.70 3.13Q3.20 3.13 3.20 1.63L3.20 1.63Z" transform="translate(263.56052734375 264.46) " fill="#000000" stroke="#000000" stroke-width="0.111" stroke-miterlimit="3" data-glyph-w="16.443984375" data-glyph-h="65.25390625" data-glyph-ascender="57.42343749999999" data-glyph-descender="-7.83046875"/><path d="M3.20-21.73L3.20-22.51Q3.20-24.01 4.76-24.01L4.76-24.01L41.96-24.01Q43.46-24.01 43.46-22.51L43.46-22.51L43.46-21.73Q43.46-20.23 41.96-20.23L41.96-20.23L4.76-20.23Q3.20-20.23 3.20-21.73L3.20-21.73Z" transform="translate(280.00451171875 264.46) " fill="#000000" stroke="#000000" stroke-width="0.111" stroke-miterlimit="3" data-glyph-w="46.656542968749996" data-glyph-h="65.25390625" data-glyph-ascender="57.42343749999999" data-glyph-descender="-7.83046875"/><path d="M3.20 1.57L3.20-45.74Q3.20-47.24 4.70-47.24L4.70-47.24L14.62-47.24Q15.20-47.24 15.66-46.85L15.66-46.85L50.96-11.75Q51.68-11.03 52.59-11.42L52.59-11.42Q53.51-11.81 53.51-12.86L53.51-12.86L53.51-45.74Q53.51-47.24 55.01-47.24L55.01-47.24L62.06-47.24Q63.56-47.24 63.56-45.74L63.56-45.74L63.56 1.57Q63.56 3.07 62.06 3.07L62.06 3.07L52.20 3.07Q51.55 3.07 51.16 2.61L51.16 2.61L15.86-32.43Q15.14-33.15 14.23-32.76L14.23-32.76Q13.25-32.37 13.25-31.39L13.25-31.39L13.25 1.57Q13.25 3.07 11.75 3.07L11.75 3.07L4.70 3.07Q3.20 3.07 3.20 1.57L3.20 1.57Z" transform="translate(326.6610546875 264.46) " fill="#000000" stroke="#000000" stroke-width="0.111" stroke-miterlimit="3" data-glyph-w="66.82" data-glyph-h="65.25390625" data-glyph-ascender="57.42343749999999" data-glyph-descender="-7.83046875"/><path d="M62.06-47.18L10.77-47.18Q8.87-47.18 6.98-46.27L6.98-46.27Q3.20-44.37 3.20-39.67L3.20-39.67L3.20-4.44Q3.20-2.54 4.18-0.65L4.18-0.65Q6.07 3.13 10.77 3.13L10.77 3.13L62.06 3.13Q63.56 3.13 63.56 1.63L63.56 1.63L63.56 0.85Q63.56-0.65 62.06-0.65L62.06-0.65L15.79-0.65Q13.25-0.65 13.25-3.20L13.25-3.20L13.25-20.16L62.06-20.16Q63.56-20.16 63.56-21.66L63.56-21.66L63.56-22.45Q63.56-23.95 62.06-23.95L62.06-23.95L13.25-23.95L13.25-40.91Q13.25-43.39 15.79-43.39L15.79-43.39L62.06-43.39Q63.56-43.39 63.56-44.96L63.56-44.96L63.56-45.68Q63.56-47.18 62.06-47.18L62.06-47.18Z" transform="translate(393.4810546875 264.46) " fill="#000000" stroke="#000000" stroke-width="0.111" stroke-miterlimit="3" data-glyph-w="66.82" data-glyph-h="65.25390625" data-glyph-ascender="57.42343749999999" data-glyph-descender="-7.83046875"/><path d="M49.53 2.54L33.41-14.81L17.29 2.54Q16.84 3.07 16.18 3.07L16.18 3.07L6.66 3.07Q5.68 3.07 5.29 2.15L5.29 2.15Q4.89 1.24 5.55 0.52L5.55 0.52L26.62-22.12L5.55-44.70Q4.89-45.48 5.29-46.33L5.29-46.33Q5.68-47.24 6.66-47.24L6.66-47.24L16.18-47.24Q16.84-47.24 17.29-46.79L17.29-46.79L33.41-29.43L49.53-46.79Q49.98-47.24 50.64-47.24L50.64-47.24L60.10-47.24Q61.08-47.24 61.53-46.33L61.53-46.33Q61.93-45.48 61.21-44.70L61.21-44.70L40.20-22.12L61.21 0.52Q61.93 1.24 61.53 2.15L61.53 2.15Q61.08 3.07 60.10 3.07L60.10 3.07L50.64 3.07Q49.98 3.07 49.53 2.54L49.53 2.54Z" transform="translate(460.30105468749997 264.46) " fill="#000000" stroke="#000000" stroke-width="0.111" stroke-miterlimit="3" data-glyph-w="66.82" data-glyph-h="65.25390625" data-glyph-ascender="57.42343749999999" data-glyph-descender="-7.83046875"/><path d="M28.39 1.57L28.39-43.46L4.70-43.46Q3.20-43.46 3.20-45.03L3.20-45.03L3.20-45.74Q3.20-47.24 4.70-47.24L4.70-47.24L62.06-47.24Q63.56-47.24 63.56-45.74L63.56-45.74L63.56-45.03Q63.56-43.46 62.06-43.46L62.06-43.46L38.43-43.46L38.43 1.57Q38.43 3.07 36.93 3.07L36.93 3.07L29.89 3.07Q28.39 3.07 28.39 1.57L28.39 1.57Z" transform="translate(527.1210546875 264.46) " fill="#000000" stroke="#000000" stroke-width="0.111" stroke-miterlimit="3" data-glyph-w="66.82" data-glyph-h="65.25390625" data-glyph-ascender="57.42343749999999" data-glyph-descender="-7.83046875"/></g><g data-width="593.9410546874999" transform="translate(66.82, 0)"><path d="M56.05-47.18L4.70-47.18Q3.20-47.18 3.20-45.68L3.20-45.68L3.20 1.63Q3.20 3.13 4.70 3.13L4.70 3.13L56.05 3.13Q57.95 3.13 59.84 2.15L59.84 2.15Q63.56 0.26 63.56-4.44L63.56-4.44L63.56-9.46Q63.56-14.49 59.84-18.27L59.84-18.27L56.05-22.06L59.84-25.84Q63.56-29.56 63.56-34.65L63.56-34.65L63.56-39.67Q63.56-44.37 59.84-46.27L59.84-46.27Q57.95-47.18 56.05-47.18L56.05-47.18ZM14.81-43.39L51.03-43.39Q53.51-43.39 53.51-40.91L53.51-40.91L53.51-35.56Q53.51-33.08 51.94-31.52L51.94-31.52L44.37-23.95L13.25-23.95L13.25-41.89Q13.25-43.39 14.81-43.39L14.81-43.39ZM51.03-0.65L14.81-0.65Q13.25-0.65 13.25-2.15L13.25-2.15L13.25-20.16L44.37-20.16L51.94-12.59Q53.51-11.03 53.51-8.48L53.51-8.48L53.51-3.20Q53.51-0.65 51.03-0.65L51.03-0.65Z" transform="translate(0 264.46) " fill="rgb(13, 113, 192)" stroke="rgb(13, 113, 192)" stroke-width="0.111" data-glyph-w="66.82" data-glyph-h="65.25390625" data-glyph-ascender="57.42343749999999" data-glyph-descender="-7.83046875"/><path d="M3.20 1.63L3.20-45.68Q3.20-47.18 4.70-47.18L4.70-47.18L11.75-47.18Q13.25-47.18 13.25-45.68L13.25-45.68L13.25 1.63Q13.25 3.13 11.75 3.13L11.75 3.13L4.70 3.13Q3.20 3.13 3.20 1.63L3.20 1.63Z" transform="translate(66.82 264.46) " fill="rgb(13, 113, 192)" stroke="rgb(13, 113, 192)" stroke-width="0.111" data-glyph-w="16.443984375" data-glyph-h="65.25390625" data-glyph-ascender="57.42343749999999" data-glyph-descender="-7.83046875"/><path d="M3.20 1.57L3.20-45.74Q3.20-47.24 4.70-47.24L4.70-47.24L14.62-47.24Q15.20-47.24 15.66-46.85L15.66-46.85L50.96-11.75Q51.68-11.03 52.59-11.42L52.59-11.42Q53.51-11.81 53.51-12.86L53.51-12.86L53.51-45.74Q53.51-47.24 55.01-47.24L55.01-47.24L62.06-47.24Q63.56-47.24 63.56-45.74L63.56-45.74L63.56 1.57Q63.56 3.07 62.06 3.07L62.06 3.07L52.20 3.07Q51.55 3.07 51.16 2.61L51.16 2.61L15.86-32.43Q15.14-33.15 14.23-32.76L14.23-32.76Q13.25-32.37 13.25-31.39L13.25-31.39L13.25 1.57Q13.25 3.07 11.75 3.07L11.75 3.07L4.70 3.07Q3.20 3.07 3.20 1.57L3.20 1.57Z" transform="translate(83.26398437499999 264.46) " fill="rgb(13, 113, 192)" stroke="rgb(13, 113, 192)" stroke-width="0.111" data-glyph-w="66.82" data-glyph-h="65.25390625" data-glyph-ascender="57.42343749999999" data-glyph-descender="-7.83046875"/><path d="M3.20-21.73L3.20-22.51Q3.20-24.01 4.76-24.01L4.76-24.01L41.96-24.01Q43.46-24.01 43.46-22.51L43.46-22.51L43.46-21.73Q43.46-20.23 41.96-20.23L41.96-20.23L4.76-20.23Q3.20-20.23 3.20-21.73L3.20-21.73Z" transform="translate(150.083984375 264.46) " fill="rgb(13, 113, 192)" stroke="rgb(13, 113, 192)" stroke-width="0.111" data-glyph-w="46.656542968749996" data-glyph-h="65.25390625" data-glyph-ascender="57.42343749999999" data-glyph-descender="-7.83046875"/><path d="M3.20-45.74L3.20-4.50Q3.20 0.20 6.98 2.09L6.98 2.09Q8.87 3.07 10.77 3.07L10.77 3.07L56.05 3.07Q57.95 3.07 59.84 2.09L59.84 2.09Q63.56 0.20 63.56-4.50L63.56-4.50L63.56-45.74Q63.56-47.24 62.06-47.24L62.06-47.24L55.01-47.24Q53.51-47.24 53.51-45.74L53.51-45.74L53.51-3.26Q53.51-0.72 51.03-0.72L51.03-0.72L15.79-0.72Q13.25-0.72 13.25-3.26L13.25-3.26L13.25-45.74Q13.25-47.24 11.75-47.24L11.75-47.24L4.70-47.24Q3.20-47.24 3.20-45.74L3.20-45.74Z" transform="translate(196.74052734375 264.46) " fill="rgb(13, 113, 192)" stroke="rgb(13, 113, 192)" stroke-width="0.111" data-glyph-w="66.82" data-glyph-h="65.25390625" data-glyph-ascender="57.42343749999999" data-glyph-descender="-7.83046875"/><path d="M3.20 1.63L3.20-45.68Q3.20-47.18 4.70-47.18L4.70-47.18L11.75-47.18Q13.25-47.18 13.25-45.68L13.25-45.68L13.25 1.63Q13.25 3.13 11.75 3.13L11.75 3.13L4.70 3.13Q3.20 3.13 3.20 1.63L3.20 1.63Z" transform="translate(263.56052734375 264.46) " fill="rgb(13, 113, 192)" stroke="rgb(13, 113, 192)" stroke-width="0.111" data-glyph-w="16.443984375" data-glyph-h="65.25390625" data-glyph-ascender="57.42343749999999" data-glyph-descender="-7.83046875"/><path d="M3.20-21.73L3.20-22.51Q3.20-24.01 4.76-24.01L4.76-24.01L41.96-24.01Q43.46-24.01 43.46-22.51L43.46-22.51L43.46-21.73Q43.46-20.23 41.96-20.23L41.96-20.23L4.76-20.23Q3.20-20.23 3.20-21.73L3.20-21.73Z" transform="translate(280.00451171875 264.46) " fill="rgb(13, 113, 192)" stroke="rgb(13, 113, 192)" stroke-width="0.111" data-glyph-w="46.656542968749996" data-glyph-h="65.25390625" data-glyph-ascender="57.42343749999999" data-glyph-descender="-7.83046875"/><path d="M3.20 1.57L3.20-45.74Q3.20-47.24 4.70-47.24L4.70-47.24L14.62-47.24Q15.20-47.24 15.66-46.85L15.66-46.85L50.96-11.75Q51.68-11.03 52.59-11.42L52.59-11.42Q53.51-11.81 53.51-12.86L53.51-12.86L53.51-45.74Q53.51-47.24 55.01-47.24L55.01-47.24L62.06-47.24Q63.56-47.24 63.56-45.74L63.56-45.74L63.56 1.57Q63.56 3.07 62.06 3.07L62.06 3.07L52.20 3.07Q51.55 3.07 51.16 2.61L51.16 2.61L15.86-32.43Q15.14-33.15 14.23-32.76L14.23-32.76Q13.25-32.37 13.25-31.39L13.25-31.39L13.25 1.57Q13.25 3.07 11.75 3.07L11.75 3.07L4.70 3.07Q3.20 3.07 3.20 1.57L3.20 1.57Z" transform="translate(326.6610546875 264.46) " fill="rgb(13, 113, 192)" stroke="rgb(13, 113, 192)" stroke-width="0.111" data-glyph-w="66.82" data-glyph-h="65.25390625" data-glyph-ascender="57.42343749999999" data-glyph-descender="-7.83046875"/><path d="M62.06-47.18L10.77-47.18Q8.87-47.18 6.98-46.27L6.98-46.27Q3.20-44.37 3.20-39.67L3.20-39.67L3.20-4.44Q3.20-2.54 4.18-0.65L4.18-0.65Q6.07 3.13 10.77 3.13L10.77 3.13L62.06 3.13Q63.56 3.13 63.56 1.63L63.56 1.63L63.56 0.85Q63.56-0.65 62.06-0.65L62.06-0.65L15.79-0.65Q13.25-0.65 13.25-3.20L13.25-3.20L13.25-20.16L62.06-20.16Q63.56-20.16 63.56-21.66L63.56-21.66L63.56-22.45Q63.56-23.95 62.06-23.95L62.06-23.95L13.25-23.95L13.25-40.91Q13.25-43.39 15.79-43.39L15.79-43.39L62.06-43.39Q63.56-43.39 63.56-44.96L63.56-44.96L63.56-45.68Q63.56-47.18 62.06-47.18L62.06-47.18Z" transform="translate(393.4810546875 264.46) " fill="rgb(13, 113, 192)" stroke="rgb(13, 113, 192)" stroke-width="0.111" data-glyph-w="66.82" data-glyph-h="65.25390625" data-glyph-ascender="57.42343749999999" data-glyph-descender="-7.83046875"/><path d="M49.53 2.54L33.41-14.81L17.29 2.54Q16.84 3.07 16.18 3.07L16.18 3.07L6.66 3.07Q5.68 3.07 5.29 2.15L5.29 2.15Q4.89 1.24 5.55 0.52L5.55 0.52L26.62-22.12L5.55-44.70Q4.89-45.48 5.29-46.33L5.29-46.33Q5.68-47.24 6.66-47.24L6.66-47.24L16.18-47.24Q16.84-47.24 17.29-46.79L17.29-46.79L33.41-29.43L49.53-46.79Q49.98-47.24 50.64-47.24L50.64-47.24L60.10-47.24Q61.08-47.24 61.53-46.33L61.53-46.33Q61.93-45.48 61.21-44.70L61.21-44.70L40.20-22.12L61.21 0.52Q61.93 1.24 61.53 2.15L61.53 2.15Q61.08 3.07 60.10 3.07L60.10 3.07L50.64 3.07Q49.98 3.07 49.53 2.54L49.53 2.54Z" transform="translate(460.30105468749997 264.46) " fill="rgb(13, 113, 192)" stroke="rgb(13, 113, 192)" stroke-width="0.111" data-glyph-w="66.82" data-glyph-h="65.25390625" data-glyph-ascender="57.42343749999999" data-glyph-descender="-7.83046875"/><path d="M28.39 1.57L28.39-43.46L4.70-43.46Q3.20-43.46 3.20-45.03L3.20-45.03L3.20-45.74Q3.20-47.24 4.70-47.24L4.70-47.24L62.06-47.24Q63.56-47.24 63.56-45.74L63.56-45.74L63.56-45.03Q63.56-43.46 62.06-43.46L62.06-43.46L38.43-43.46L38.43 1.57Q38.43 3.07 36.93 3.07L36.93 3.07L29.89 3.07Q28.39 3.07 28.39 1.57L28.39 1.57Z" transform="translate(527.1210546875 264.46) " fill="rgb(13, 113, 192)" stroke="rgb(13, 113, 192)" stroke-width="0.111" data-glyph-w="66.82" data-glyph-h="65.25390625" data-glyph-ascender="57.42343749999999" data-glyph-descender="-7.83046875"/></g></svg></g></g><g id="shape_m12K1eBz2E" transform="translate(142.6373574693131,255.28519004630618) rotate(0,211.09037705553067,81.62029296875001) scale(1,1)" filter="" style="cursor: move; opacity: 1;"><g><svg xmlns="http://www.w3.org/2000/svg" xmlns:xlink="http://www.w3.org/1999/xlink" version="1.1" width="467.5607541110613" height="163.24058593750001" viewBox="0 0 467.5607541110613 163.24058593750001" data-parent="shape_m12K1eBz2E"><g data-width="287.8484421484375" transform="translate(22.69, 0)"><path d="M13.33-5.99L15.46-5.99L15.46-5.99Q15.03-2.98 13.15-1.27Q11.26 0.44 8.36 0.44L8.36 0.44Q5.00 0.44 3.00-1.88Q1.00-4.20 1.00-8.13L1.00-8.13Q1.00-12.07 3.07-14.40Q5.15-16.73 8.65-16.73L8.65-16.73Q11.41-16.73 13.18-15.31Q14.96-13.89 15.31-11.40L15.31-11.40L15.31-11.40L13.18-11.40L13.18-11.40Q12.87-13.02 11.68-13.90Q10.49-14.78 8.62-14.78L8.62-14.78Q6.17-14.78 4.72-12.98Q3.27-11.18 3.27-8.13L3.27-8.13Q3.27-4.90 4.61-3.20Q5.96-1.51 8.52-1.51L8.52-1.51Q10.41-1.51 11.67-2.68Q12.92-3.84 13.33-5.99L13.33-5.99L13.33-5.99Z" transform="translate(0 89.12029296875001) " fill="rgb(13, 113, 192)" stroke="rgb(13, 113, 192)" stroke-width="0.038" data-glyph-w="16.3859912109375" data-glyph-h="26.0026513671875" data-glyph-ascender="21.05029296875" data-glyph-descender="-4.9523583984375"/><path d="M8.82 0.44L8.82 0.44Q5.27 0.44 3.08-1.92Q0.89-4.29 0.89-8.13L0.89-8.13Q0.89-11.99 3.08-14.36Q5.27-16.73 8.82-16.73L8.82-16.73Q12.39-16.73 14.57-14.36Q16.76-11.99 16.76-8.13L16.76-8.13Q16.76-4.29 14.57-1.92Q12.39 0.44 8.82 0.44L8.82 0.44ZM8.82-1.51L8.82-1.51Q11.37-1.51 12.93-3.33Q14.49-5.16 14.49-8.13L14.49-8.13Q14.49-11.11 12.93-12.95Q11.37-14.78 8.82-14.78L8.82-14.78Q6.28-14.78 4.72-12.95Q3.16-11.11 3.16-8.13L3.16-8.13Q3.16-5.16 4.72-3.33Q6.28-1.51 8.82-1.51L8.82-1.51Z" transform="translate(16.3859912109375 89.12029296875001) " fill="rgb(13, 113, 192)" stroke="rgb(13, 113, 192)" stroke-width="0.038" data-glyph-w="17.649008789062503" data-glyph-h="26.0026513671875" data-glyph-ascender="21.05029296875" data-glyph-descender="-4.9523583984375"/><path d="M3.80-13.74L3.80 0L3.80 0L2.74 0L1.66 0L1.66 0L1.66-16.29L1.66-16.29L3.25-16.29L4.83-16.29L4.83-16.29L9.48-2.43L9.48-2.43L9.48-2.43L14.10-16.29L14.10-16.29L15.69-16.29L17.27-16.29L17.27-16.29L17.27 0L17.27 0L16.21 0L15.13 0L15.13 0L15.13-13.78L15.13-13.78L10.54 0L9.47 0L8.41 0L3.80-13.74L3.80-13.74Z" transform="translate(34.035000000000004 89.12029296875001) " fill="rgb(13, 113, 192)" stroke="rgb(13, 113, 192)" stroke-width="0.038" data-glyph-w="18.900947265625" data-glyph-h="26.0026513671875" data-glyph-ascender="21.05029296875" data-glyph-descender="-4.9523583984375"/><path d="M1.95 0L1.95 0L1.95-16.29L1.95-16.29L3.05-16.29L3.05-16.29L9.07-16.29Q11.44-16.29 12.78-15.10Q14.11-13.90 14.11-11.80L14.11-11.80Q14.11-9.48 12.78-8.18Q11.44-6.87 9.07-6.87L9.07-6.87Q5.96-6.88 4.15-6.85L4.15-6.85L4.15-6.85L4.15 0L4.15 0L3.06 0L1.95 0ZM4.15-14.40L4.15-8.75L4.15-8.75L8.53-8.75Q10.25-8.75 11.05-9.48Q11.84-10.20 11.84-11.75L11.84-11.75Q11.84-13.13 11.05-13.77Q10.25-14.40 8.53-14.40L8.53-14.40L4.15-14.40L4.15-14.40Z" transform="translate(52.935947265625 89.12029296875001) " fill="rgb(13, 113, 192)" stroke="rgb(13, 113, 192)" stroke-width="0.038" data-glyph-w="15.134052734375" data-glyph-h="26.0026513671875" data-glyph-ascender="21.05029296875" data-glyph-descender="-4.9523583984375"/><path d="M8.82 0.44L8.82 0.44Q5.27 0.44 3.08-1.92Q0.89-4.29 0.89-8.13L0.89-8.13Q0.89-11.99 3.08-14.36Q5.27-16.73 8.82-16.73L8.82-16.73Q12.39-16.73 14.57-14.36Q16.76-11.99 16.76-8.13L16.76-8.13Q16.76-4.29 14.57-1.92Q12.39 0.44 8.82 0.44L8.82 0.44ZM8.82-1.51L8.82-1.51Q11.37-1.51 12.93-3.33Q14.49-5.16 14.49-8.13L14.49-8.13Q14.49-11.11 12.93-12.95Q11.37-14.78 8.82-14.78L8.82-14.78Q6.28-14.78 4.72-12.95Q3.16-11.11 3.16-8.13L3.16-8.13Q3.16-5.16 4.72-3.33Q6.28-1.51 8.82-1.51L8.82-1.51Z" transform="translate(68.07000000000001 89.12029296875001) " fill="rgb(13, 113, 192)" stroke="rgb(13, 113, 192)" stroke-width="0.038" data-glyph-w="17.649008789062503" data-glyph-h="26.0026513671875" data-glyph-ascender="21.05029296875" data-glyph-descender="-4.9523583984375"/><path d="M3.86-13.28L3.86 0L3.86 0L2.79 0L1.73 0L1.73 0L1.73-16.29L1.73-16.29L3.05-16.29L4.38-16.29L4.38-16.29L12.53-3.05L12.53-3.05L12.53-3.05L12.53-16.29L12.53-16.29L13.59-16.29L14.66-16.29L14.66-16.29L14.66 0L13.45 0L12.24 0L3.86-13.28L3.86-13.28L3.86-13.28Z" transform="translate(85.71900878906251 89.12029296875001) " fill="rgb(13, 113, 192)" stroke="rgb(13, 113, 192)" stroke-width="0.038" data-glyph-w="16.3859912109375" data-glyph-h="26.0026513671875" data-glyph-ascender="21.05029296875" data-glyph-descender="-4.9523583984375"/><path d="M13.98 0L1.95 0L1.95 0L1.95-16.29L1.95-16.29L13.86-16.29L13.86-16.29L13.86-15.31L13.86-14.34L13.86-14.34L4.15-14.34L4.15-14.34L4.15-9.36L4.15-9.36L13.02-9.36L13.02-8.39L13.02-7.41L13.02-7.41L4.15-7.41L4.15-7.41L4.15-1.95L4.15-1.95L13.98-1.95L13.98-1.95L13.98-0.97L13.98 0L13.98 0Z" transform="translate(102.10500000000002 89.12029296875001) " fill="rgb(13, 113, 192)" stroke="rgb(13, 113, 192)" stroke-width="0.038" data-glyph-w="15.134052734375" data-glyph-h="26.0026513671875" data-glyph-ascender="21.05029296875" data-glyph-descender="-4.9523583984375"/><path d="M3.86-13.28L3.86 0L3.86 0L2.79 0L1.73 0L1.73 0L1.73-16.29L1.73-16.29L3.05-16.29L4.38-16.29L4.38-16.29L12.53-3.05L12.53-3.05L12.53-3.05L12.53-16.29L12.53-16.29L13.59-16.29L14.66-16.29L14.66-16.29L14.66 0L13.45 0L12.24 0L3.86-13.28L3.86-13.28L3.86-13.28Z" transform="translate(117.23905273437502 89.12029296875001) " fill="rgb(13, 113, 192)" stroke="rgb(13, 113, 192)" stroke-width="0.038" data-glyph-w="16.3859912109375" data-glyph-h="26.0026513671875" data-glyph-ascender="21.05029296875" data-glyph-descender="-4.9523583984375"/><path d="M5.83 0L5.83 0L5.83-14.34L5.83-14.34L0.32-14.34L0.32-14.34L0.32-15.31L0.32-16.29L0.32-16.29L13.54-16.29L13.54-16.29L13.54-15.31L13.54-14.34L13.54-14.34L8.03-14.34L8.03-14.34L8.03 0L8.03 0L6.94 0L5.83 0Z" transform="translate(133.6250439453125 89.12029296875001) " fill="rgb(13, 113, 192)" stroke="rgb(13, 113, 192)" stroke-width="0.038" data-glyph-w="13.859956054687501" data-glyph-h="26.0026513671875" data-glyph-ascender="21.05029296875" data-glyph-descender="-4.9523583984375"/><path d="M13.68-11.57L11.66-11.57L11.66-11.57Q11.51-13.11 10.44-13.94Q9.37-14.78 7.57-14.78L7.57-14.78Q5.71-14.78 4.74-14.06Q3.78-13.34 3.78-11.95L3.78-11.95Q3.78-11.01 4.42-10.55L4.42-10.55Q5.06-10.08 7.00-9.63L7.00-9.63L9.84-8.95Q12.12-8.41 13.10-7.35L13.10-7.35Q14.07-6.29 14.07-4.37L14.07-4.37Q14.07-2.15 12.39-0.85Q10.71 0.44 7.84 0.44L7.84 0.44Q4.65 0.44 2.86-1.05L2.86-1.05Q1.11-2.53 1.11-5.09L1.11-5.09L1.11-5.21L1.11-5.21L3.14-5.21L3.14-5.21Q3.19-3.43 4.42-2.47Q5.65-1.51 7.84-1.51L7.84-1.51Q9.87-1.51 10.92-2.20Q11.98-2.90 11.98-4.25L11.98-4.25Q11.98-5.43 11.28-5.99L11.28-5.99Q10.59-6.55 8.51-7.05L8.51-7.05L5.67-7.72Q3.52-8.23 2.60-9.14L2.60-9.14Q1.68-10.05 1.68-11.66L1.68-11.66Q1.68-13.99 3.27-15.36Q4.86-16.73 7.57-16.73L7.57-16.73Q10.31-16.73 11.94-15.36Q13.57-13.98 13.68-11.57L13.68-11.57L13.68-11.57Z" transform="translate(147.485 89.12029296875001) " fill="rgb(13, 113, 192)" stroke="rgb(13, 113, 192)" stroke-width="0.038" data-glyph-w="15.134052734375" data-glyph-h="26.0026513671875" data-glyph-ascender="21.05029296875" data-glyph-descender="-4.9523583984375"/><path d="" transform="translate(162.619052734375 89.12029296875001) " fill="rgb(13, 113, 192)" stroke="rgb(13, 113, 192)" stroke-width="0.038" data-glyph-w="9.03062" data-glyph-h="22.69" data-glyph-ascender="19.967200000000002" data-glyph-descender="-2.7228000000000003"/><path d="M3.06 0L1.95 0L1.95-16.29L1.95-16.29L13.23-16.29L13.23-16.29L13.23-15.31L13.23-14.34L13.23-14.34L4.15-14.34L4.15-14.34L4.15-9.36L4.15-9.36L12.10-9.36L12.10-8.39L12.10-7.41L12.10-7.41L4.15-7.41L4.15-7.41L4.15 0L3.06 0Z" transform="translate(171.649672734375 89.12029296875001) " fill="rgb(13, 113, 192)" stroke="rgb(13, 113, 192)" stroke-width="0.038" data-glyph-w="13.859956054687501" data-glyph-h="26.0026513671875" data-glyph-ascender="21.05029296875" data-glyph-descender="-4.9523583984375"/><path d="M8.82 0.44L8.82 0.44Q5.27 0.44 3.08-1.92Q0.89-4.29 0.89-8.13L0.89-8.13Q0.89-11.99 3.08-14.36Q5.27-16.73 8.82-16.73L8.82-16.73Q12.39-16.73 14.57-14.36Q16.76-11.99 16.76-8.13L16.76-8.13Q16.76-4.29 14.57-1.92Q12.39 0.44 8.82 0.44L8.82 0.44ZM8.82-1.51L8.82-1.51Q11.37-1.51 12.93-3.33Q14.49-5.16 14.49-8.13L14.49-8.13Q14.49-11.11 12.93-12.95Q11.37-14.78 8.82-14.78L8.82-14.78Q6.28-14.78 4.72-12.95Q3.16-11.11 3.16-8.13L3.16-8.13Q3.16-5.16 4.72-3.33Q6.28-1.51 8.82-1.51L8.82-1.51Z" transform="translate(185.5096287890625 89.12029296875001) " fill="rgb(13, 113, 192)" stroke="rgb(13, 113, 192)" stroke-width="0.038" data-glyph-w="17.649008789062503" data-glyph-h="26.0026513671875" data-glyph-ascender="21.05029296875" data-glyph-descender="-4.9523583984375"/><path d="M1.99 0L1.99 0L1.99-16.29L1.99-16.29L3.09-16.29L3.09-16.29L9.57-16.29Q12.16-16.29 13.52-15.16Q14.87-14.04 14.87-11.87L14.87-11.87Q14.87-9.73 13.46-8.52L13.46-8.52Q13.11-8.22 12.70-7.99L12.70-7.99L12.70-7.99L13.06-7.81Q14.55-6.96 14.60-4.94L14.60-4.94L14.69-1.97Q14.71-1.24 14.88-0.92Q15.05-0.60 15.52-0.37L15.52-0.37L15.52-0.01L12.81-0.01Q12.72-0.21 12.63-1.05Q12.54-1.89 12.50-2.92L12.50-2.92L12.45-4.21Q12.41-5.73 11.71-6.38Q11.01-7.02 9.43-7.02L9.43-7.02L4.20-7.02L4.20-7.02L4.20 0L4.20 0L3.10 0L1.99 0ZM4.20-14.44L4.20-8.93L4.20-8.93L9.65-8.93Q11.18-8.93 11.89-9.60Q12.60-10.27 12.60-11.72L12.60-11.72Q12.60-13.13 11.85-13.78Q11.10-14.44 9.48-14.44L9.48-14.44L4.20-14.44L4.20-14.44Z" transform="translate(203.158637578125 89.12029296875001) " fill="rgb(13, 113, 192)" stroke="rgb(13, 113, 192)" stroke-width="0.038" data-glyph-w="16.3859912109375" data-glyph-h="26.0026513671875" data-glyph-ascender="21.05029296875" data-glyph-descender="-4.9523583984375"/><path d="" transform="translate(219.5446287890625 89.12029296875001) " fill="rgb(13, 113, 192)" stroke="rgb(13, 113, 192)" stroke-width="0.038" data-glyph-w="9.03062" data-glyph-h="22.69" data-glyph-ascender="19.967200000000002" data-glyph-descender="-2.7228000000000003"/><path d="M6.38 0L0.45-16.29L0.45-16.29L1.67-16.29L2.90-16.29L2.90-16.29L7.58-2.37L7.58-2.37L7.58-2.37L12.24-16.29L12.24-16.29L13.46-16.29L14.68-16.29L14.68-16.29L8.75 0L7.57 0L6.38 0Z" transform="translate(228.5752487890625 89.12029296875001) " fill="rgb(13, 113, 192)" stroke="rgb(13, 113, 192)" stroke-width="0.038" data-glyph-w="15.134052734375" data-glyph-h="26.0026513671875" data-glyph-ascender="21.05029296875" data-glyph-descender="-4.9523583984375"/><path d="M14.61-16.29L14.61-5.97Q14.61-2.96 12.92-1.26Q11.22 0.44 8.21 0.44L8.21 0.44Q5.07 0.44 3.43-1.19Q1.79-2.83 1.79-5.97L1.79-5.97L1.79-16.29L1.79-16.29L2.89-16.29L4.00-16.29L4.00-16.29L4.00-6.14Q4.00-3.87 5.07-2.69Q6.15-1.51 8.21-1.51L8.21-1.51Q10.27-1.51 11.34-2.69Q12.41-3.87 12.41-6.14L12.41-6.14L12.41-16.29L12.41-16.29L13.51-16.29L14.61-16.29L14.61-16.29Z" transform="translate(243.7093015234375 89.12029296875001) " fill="rgb(13, 113, 192)" stroke="rgb(13, 113, 192)" stroke-width="0.038" data-glyph-w="16.3859912109375" data-glyph-h="26.0026513671875" data-glyph-ascender="21.05029296875" data-glyph-descender="-4.9523583984375"/><path d="M13.98 0L1.95 0L1.95 0L1.95-16.29L1.95-16.29L13.86-16.29L13.86-16.29L13.86-15.31L13.86-14.34L13.86-14.34L4.15-14.34L4.15-14.34L4.15-9.36L4.15-9.36L13.02-9.36L13.02-8.39L13.02-7.41L13.02-7.41L4.15-7.41L4.15-7.41L4.15-1.95L4.15-1.95L13.98-1.95L13.98-1.95L13.98-0.97L13.98 0L13.98 0Z" transform="translate(260.095292734375 89.12029296875001) " fill="rgb(13, 113, 192)" stroke="rgb(13, 113, 192)" stroke-width="0.038" data-glyph-w="15.134052734375" data-glyph-h="26.0026513671875" data-glyph-ascender="21.05029296875" data-glyph-descender="-4.9523583984375"/><path d="M9.22-11.62L9.22-11.62Q9.22-12.75 8.36-13.47Q7.50-14.18 6.16-14.18L6.16-14.18Q4.74-14.18 3.99-13.31Q3.24-12.44 3.16-10.71L3.16-10.71L3.16-10.71L1.22-10.71L1.22-10.71Q1.22-13.22 2.53-14.59Q3.84-15.95 6.25-15.95L6.25-15.95Q8.52-15.95 9.91-14.82Q11.30-13.68 11.30-11.82L11.30-11.82Q11.30-9.97 9.90-8.83L9.90-8.83Q9.64-8.61 9.33-8.43L9.33-8.43L9.33-8.43Q9.90-8.18 10.35-7.82L10.35-7.82Q11.84-6.65 11.84-4.65L11.84-4.65Q11.84-2.42 10.29-0.99Q8.74 0.43 6.30 0.43L6.30 0.43Q3.62 0.43 2.26-0.86Q0.90-2.15 0.78-4.81L0.78-4.81L0.78-4.81L2.87-4.81L2.87-4.81Q3.05-2.95 3.86-2.14Q4.66-1.34 6.37-1.34L6.37-1.34Q7.84-1.34 8.79-2.19Q9.73-3.04 9.73-4.37L9.73-4.37Q9.73-5.76 8.82-6.58L8.82-6.58Q8.04-7.29 6.82-7.38L6.82-7.38Q6.26-7.41 5.76-7.41Q5.25-7.41 5.09-7.37L5.09-7.37L5.09-9.12Q5.33-9.06 5.84-9.06Q6.35-9.06 6.85-9.13L6.85-9.13Q7.81-9.25 8.41-9.76L8.41-9.76Q9.22-10.43 9.22-11.62Z" transform="translate(275.22934546875 89.12029296875001) " fill="rgb(13, 113, 192)" stroke="rgb(13, 113, 192)" stroke-width="0.038" data-glyph-w="12.6190966796875" data-glyph-h="26.0026513671875" data-glyph-ascender="21.05029296875" data-glyph-descender="-4.9523583984375"/></g></svg></g></g><g id="shape_2fMLqhrThs" transform="translate(-19.23139506361963,-39.98653318439452) rotate(0,116.69861327375781,339.64) scale(1,1)" filter="" style="cursor: move; opacity: 1;"><g><svg xmlns="http://www.w3.org/2000/svg" xmlns:xlink="http://www.w3.org/1999/xlink" version="1.1" width="421.7172265475157" height="679.28" viewBox="0 0 421.7172265475157 679.28" data-parent="shape_2fMLqhrThs"><g data-width="44.91432" transform="translate(94.24145327375781, 0)"><line x1="0" x2="44.91432" y1="384.76" y2="384.76" stroke="rgb(0, 0, 0)" stroke-width="0" stroke-opacity="1"/></g><g data-width="44.91432" transform="translate(94.24145327375781, 0)"><path d="M43.13-18.36Q43.13-9.51 37.57-4.76Q32.01 0 23.45 0L23.45 0L4.43 0Q3.95 0 3.63-0.33Q3.30-0.66 3.30-1.13L3.30-1.13L3.30-64.78Q3.30-65.25 3.63-65.58Q3.95-65.91 4.43-65.91L4.43-65.91L21.00-65.91Q30.79-65.91 36.39-61.35Q42.00-56.78 42.00-47.64L42.00-47.64Q42.00-38.61 36.06-34.37L36.06-34.37Q35.59-34.09 35.97-33.80L35.97-33.80Q43.13-28.53 43.13-18.36L43.13-18.36ZM19.40-52.54Q18.93-52.54 18.93-52.07L18.93-52.07L18.93-40.02Q18.93-39.55 19.40-39.55L19.40-39.55L21.19-39.55Q23.82-39.55 25.23-41.20Q26.65-42.84 26.65-45.95L26.65-45.95Q26.65-49.15 25.23-50.85Q23.82-52.54 21.19-52.54L21.19-52.54L19.40-52.54ZM22.22-13.46Q24.67-13.46 26.08-15.35Q27.49-17.23 27.49-20.72L27.49-20.72Q27.49-24.20 26.08-26.27Q24.67-28.34 22.32-28.34L22.32-28.34L19.40-28.34Q18.93-28.34 18.93-27.87L18.93-27.87L18.93-13.94Q18.93-13.46 19.40-13.46L19.40-13.46L22.22-13.46Z" transform="translate(0 376.64) " fill="#000000" stroke="#000000" stroke-width="0.157" stroke-miterlimit="3" data-glyph-w="44.91432" data-glyph-h="112.99199999999999" data-glyph-ascender="94.16" data-glyph-descender="-18.831999999999997"/></g><g data-width="44.91432" transform="translate(94.24145327375781, 0)"><path d="M43.13-18.36Q43.13-9.51 37.57-4.76Q32.01 0 23.45 0L23.45 0L4.43 0Q3.95 0 3.63-0.33Q3.30-0.66 3.30-1.13L3.30-1.13L3.30-64.78Q3.30-65.25 3.63-65.58Q3.95-65.91 4.43-65.91L4.43-65.91L21.00-65.91Q30.79-65.91 36.39-61.35Q42.00-56.78 42.00-47.64L42.00-47.64Q42.00-38.61 36.06-34.37L36.06-34.37Q35.59-34.09 35.97-33.80L35.97-33.80Q43.13-28.53 43.13-18.36L43.13-18.36ZM19.40-52.54Q18.93-52.54 18.93-52.07L18.93-52.07L18.93-40.02Q18.93-39.55 19.40-39.55L19.40-39.55L21.19-39.55Q23.82-39.55 25.23-41.20Q26.65-42.84 26.65-45.95L26.65-45.95Q26.65-49.15 25.23-50.85Q23.82-52.54 21.19-52.54L21.19-52.54L19.40-52.54ZM22.22-13.46Q24.67-13.46 26.08-15.35Q27.49-17.23 27.49-20.72L27.49-20.72Q27.49-24.20 26.08-26.27Q24.67-28.34 22.32-28.34L22.32-28.34L19.40-28.34Q18.93-28.34 18.93-27.87L18.93-27.87L18.93-13.94Q18.93-13.46 19.40-13.46L19.40-13.46L22.22-13.46Z" transform="translate(0 376.64) " fill="rgb(13, 113, 192)" stroke="rgb(13, 113, 192)" stroke-width="0.157" data-glyph-w="44.91432" data-glyph-h="112.99199999999999" data-glyph-ascender="94.16" data-glyph-descender="-18.831999999999997"/></g></svg></g></g>  <!----></svg>
