<?xml version="1.0"?>
<svg xmlns="http://www.w3.org/2000/svg" xmlns:xlink="http://www.w3.org/1999/xlink" data-noselect="" viewBox="0 0 800 600" width="1600" height="1200" preserveAspectRatio="none" version="1.1"><defs/> <g id="background" data-noselect=""><rect fill="#ffffff" width="800" height="600" data-noselect=""/> <!----></g> <g id="shape_AjwXCJgVSQ" transform="translate(214.23595428467002,234.35412895753998) rotate(0,80,49.967828510696) scale(1,1)" filter="" style="cursor: move; opacity: 1;"><g><svg xmlns="http://www.w3.org/2000/svg" xmlns:xlink="http://www.w3.org/1999/xlink" version="1.1" id="&#x56FE;&#x5C42;_1" x="0px" y="0px" width="160" height="99.935657021393" viewBox="10.189589500427246 43.904483795166016 179.6204071044922 112.19052124023438" enable-background="new 0 0 200 200" xml:space="preserve" preserveAspectRatio="none" class="style-removed" data-parent="shape_AjwXCJgVSQ">
<g>
	<path fill="#246fdd" d="M106.321,89.494c0,0,21.712-23.689,49.111-19.623c20.564,3.052,29.926,14.137,34.378,20.14H176.37   c0,0-9.943-9.084-23.78-10.899C140.013,77.462,129.843,78.121,106.321,89.494z" stroke-width="0"/>
	<path fill="#246fdd" d="M147.161,71.716c0,0-5.801-22.574-33.028-27.054S61.92,55.92,43.31,82.687l22.517-4.021   c0,0,19.354-29.195,47.101-24.24c16.083,2.872,24.699,10.109,27.916,18.496L147.161,71.716z" stroke-width="0"/>
	<path fill="#24dd7f" d="M62.38,83.893c0,0-46.698,7.782-51.696,38.255c-4.136,25.216,18.611,33.947,33.43,33.947   c18.036,0,112.698,0,112.698,0l1.206-5.687c0,0-71.397,0.324-101.38,0c-15.968-0.172-28.147-4.996-28.147-22.574   c0-14.992,12.867-26.502,29.065-32.034L62.38,83.893z" stroke-width="0"/>
</g>
</svg></g></g><g id="shape_W7YDZ35Q8m" transform="translate(196.76404571533004,97.55687275143998) rotate(0,223.5,203.822) scale(1,1)" filter="" style="cursor: move; opacity: 1;"><g><svg xmlns="http://www.w3.org/2000/svg" xmlns:xlink="http://www.w3.org/1999/xlink" version="1.1" width="563" height="407.644" viewBox="0 0 563 407.644"><g data-width="330.0200000000001" transform="translate(58, 0)"><path d="M25.35 0L3.94 0L3.94-38.69L25.81-38.69Q30.97-38.69 33.29-37.47L33.29-37.47Q36.02-36.13 37.41-33.00L37.41-33.00Q38.40-30.86 38.40-28.54L38.40-28.54Q38.40-25.52 36.80-22.91Q35.21-20.30 32.77-19.31L32.77-19.31Q38.40-16.76 38.40-10.21L38.40-10.21Q38.40-6.44 36.60-3.89L36.60-3.89Q35.03-1.68 32.60-0.84Q30.16 0 25.35 0L25.35 0ZM12.18-31.78L12.18-22.79L23.37-22.79Q25.17-22.79 25.96-22.97Q26.74-23.14 27.49-23.72L27.49-23.72Q29.29-25.11 29.29-27.55L29.29-27.55Q29.29-29.87 27.61-30.97L27.61-30.97Q26.39-31.78 23.55-31.78L23.55-31.78L12.18-31.78ZM12.18-15.89L12.18-6.90L23.37-6.90Q25.17-6.90 25.98-7.08Q26.80-7.25 27.49-7.83L27.49-7.83Q29.29-9.22 29.29-11.66L29.29-11.66Q29.29-13.98 27.61-15.08L27.61-15.08Q26.39-15.89 23.55-15.89L23.55-15.89L12.18-15.89Z" transform="translate(0 223.822) skewX(-14)" fill="#246fdd" stroke="#246fdd" stroke-width="0.097" data-glyph-w="40.484" data-glyph-h="58" data-glyph-ascender="49.822" data-glyph-descender="-8.178"/><path d="M12.18 0L3.94 0L3.94-38.69L12.18-38.69L12.18 0Z" transform="translate(40.484 223.822) skewX(-14)" fill="#246fdd" stroke="#246fdd" stroke-width="0.097" data-glyph-w="16.066000000000003" data-glyph-h="58" data-glyph-ascender="49.822" data-glyph-descender="-8.178"/><path d="M27.61 0L11.83-28.36L11.83 0L3.94 0L3.94-38.69L14.50-38.69L29.87-9.86L29.87-38.69L37.70-38.69L37.70 0L27.61 0Z" transform="translate(56.550000000000004 223.822) skewX(-14)" fill="#246fdd" stroke="#246fdd" stroke-width="0.097" data-glyph-w="41.644000000000005" data-glyph-h="58" data-glyph-ascender="49.822" data-glyph-descender="-8.178"/><path d="M0-18.44L13.51-18.44L13.51-11.48L0-11.48L0-18.44Z" transform="translate(98.19400000000002 223.822) skewX(-14)" fill="#246fdd" stroke="#246fdd" stroke-width="0.097" data-glyph-w="13.514000000000001" data-glyph-h="58" data-glyph-ascender="49.822" data-glyph-descender="-8.178"/><path d="M3.48-38.69L11.66-38.69L11.66-15.49Q11.66-12.70 12.12-11.17Q12.59-9.63 13.69-8.53L13.69-8.53Q16.12-6.15 20.47-6.15L20.47-6.15Q23.26-6.15 25.32-7.11Q27.38-8.06 28.19-9.69L28.19-9.69Q29-11.31 29-15.49L29-15.49L29-38.69L37.24-38.69L37.24-15.89Q37.24-11.37 36.28-8.44Q35.32-5.51 33.35-3.71L33.35-3.71Q28.77 0.29 20.36 0.29L20.36 0.29Q11.37 0.29 7.25-3.65L7.25-3.65Q5.10-5.68 4.29-8.21Q3.48-10.73 3.48-15.31L3.48-15.31L3.48-38.69Z" transform="translate(111.70800000000001 223.822) skewX(-14)" fill="#246fdd" stroke="#246fdd" stroke-width="0.097" data-glyph-w="40.774" data-glyph-h="58" data-glyph-ascender="49.822" data-glyph-descender="-8.178"/><path d="M12.18 0L3.94 0L3.94-38.69L12.18-38.69L12.18 0Z" transform="translate(152.48200000000003 223.822) skewX(-14)" fill="#246fdd" stroke="#246fdd" stroke-width="0.097" data-glyph-w="16.066000000000003" data-glyph-h="58" data-glyph-ascender="49.822" data-glyph-descender="-8.178"/><path d="M0-18.44L13.51-18.44L13.51-11.48L0-11.48L0-18.44Z" transform="translate(168.54800000000003 223.822) skewX(-14)" fill="#246fdd" stroke="#246fdd" stroke-width="0.097" data-glyph-w="13.514000000000001" data-glyph-h="58" data-glyph-ascender="49.822" data-glyph-descender="-8.178"/><path d="M27.61 0L11.83-28.36L11.83 0L3.94 0L3.94-38.69L14.50-38.69L29.87-9.86L29.87-38.69L37.70-38.69L37.70 0L27.61 0Z" transform="translate(182.06200000000004 223.822) skewX(-14)" fill="#246fdd" stroke="#246fdd" stroke-width="0.097" data-glyph-w="41.644000000000005" data-glyph-h="58" data-glyph-ascender="49.822" data-glyph-descender="-8.178"/><path d="M19.08-38.69L32.94-38.69L32.94-31.78L22.21-31.78Q18.04-31.78 16.12-31.20Q14.21-30.62 12.93-28.94L12.93-28.94Q12.06-27.78 11.75-26.62Q11.43-25.46 11.19-22.68L11.19-22.68L32.94-22.68L32.94-15.78L11.19-15.78Q11.66-10.79 14.15-8.85Q16.65-6.90 22.62-6.90L22.62-6.90L32.94-6.90L32.94 0L22.21 0Q17.86 0 14.56-0.52L14.56-0.52Q9.34-1.39 6.26-5.10L6.26-5.10Q1.86-10.44 1.86-19.55L1.86-19.55Q1.86-29.64 8.06-35.26L8.06-35.26Q10.21-37.18 12.62-37.93Q15.02-38.69 19.08-38.69L19.08-38.69Z" transform="translate(223.70600000000005 223.822) skewX(-14)" fill="#246fdd" stroke="#246fdd" stroke-width="0.097" data-glyph-w="35.496" data-glyph-h="58" data-glyph-ascender="49.822" data-glyph-descender="-8.178"/><path d="M0.23 0L13.40-19.55L0.70-38.69L10.79-38.69L18.39-25.93L26.62-38.69L36.60-38.69L23.49-19.55L36.60 0L26.91 0L18.39-13.28L10.03 0L0.23 0Z" transform="translate(259.20200000000006 223.822) skewX(-14)" fill="#246fdd" stroke="#246fdd" stroke-width="0.097" data-glyph-w="36.946000000000005" data-glyph-h="58" data-glyph-ascender="49.822" data-glyph-descender="-8.178"/><path d="M12.53 0L12.53-31.78L0.23-31.78L0.23-38.69L33.58-38.69L33.58-31.78L20.76-31.78L20.76 0L12.53 0Z" transform="translate(296.1480000000001 223.822) skewX(-14)" fill="#246fdd" stroke="#246fdd" stroke-width="0.097" data-glyph-w="33.872" data-glyph-h="58" data-glyph-ascender="49.822" data-glyph-descender="-8.178"/></g></svg></g></g><g id="shape_KGTd7uuhMV" transform="translate(328.36404571533006,258.57223212644004) rotate(0,142.86411098925385,83.30664062499999) scale(1,1)" filter="" style="cursor: move; opacity: 1;"><g><svg xmlns="http://www.w3.org/2000/svg" xmlns:xlink="http://www.w3.org/1999/xlink" version="1.1" width="332.5282219785077" height="166.61328124999997" viewBox="0 0 332.5282219785077 166.61328124999997" data-parent="shape_KGTd7uuhMV"><g data-width="219.34309921875" transform="translate(23.4, 0)"><line x1="0" x2="219.34309921875" y1="94.34664062499999" y2="94.34664062499999" stroke="rgb(36, 111, 221)" stroke-width="0" stroke-opacity="1"/></g><g data-width="219.34309921875" transform="translate(23.4, 0)"><path d="M6.28-14.05Q9.31-14.05 11.06-11.57L11.06-11.57L9.63-10.57Q8.41-12.31 6.28-12.31L6.28-12.31Q4.59-12.31 3.40-11.12L3.40-11.12Q2.21-9.92 2.21-8.23L2.21-8.23Q2.21-6.54 3.40-5.35L3.40-5.35Q4.59-4.15 6.28-4.15L6.28-4.15Q8.41-4.15 9.63-5.88L9.63-5.88L11.06-4.89Q9.31-2.40 6.28-2.40L6.28-2.40Q3.87-2.40 2.16-4.11L2.16-4.11Q0.46-5.82 0.46-8.23L0.46-8.23Q0.46-10.65 2.16-12.35L2.16-12.35Q3.87-14.05 6.28-14.05L6.28-14.05Z" transform="translate(0 89.80664062499999) skewX(0)" fill="#000000" stroke="#000000" stroke-width="0.039" stroke-miterlimit="3" data-glyph-w="11.517187499999999" data-glyph-h="24.3826171875" data-glyph-ascender="19.606640624999997" data-glyph-descender="-4.7759765624999995"/><path d="M6.28-14.05Q8.70-14.05 10.41-12.35L10.41-12.35Q12.11-10.65 12.11-8.23L12.11-8.23Q12.11-5.82 10.41-4.11L10.41-4.11Q8.70-2.40 6.28-2.40L6.28-2.40Q3.87-2.40 2.16-4.11L2.16-4.11Q0.46-5.82 0.46-8.23L0.46-8.23Q0.46-10.65 2.16-12.35L2.16-12.35Q3.87-14.05 6.28-14.05L6.28-14.05ZM9.17-11.12Q7.98-12.31 6.28-12.31L6.28-12.31Q4.59-12.31 3.40-11.12L3.40-11.12Q2.21-9.92 2.21-8.23L2.21-8.23Q2.21-6.54 3.40-5.35L3.40-5.35Q4.59-4.15 6.28-4.15L6.28-4.15Q7.98-4.15 9.17-5.35L9.17-5.35Q10.36-6.54 10.36-8.23L10.36-8.23Q10.36-9.92 9.17-11.12L9.17-11.12Z" transform="translate(11.517187499999999 89.80664062499999) skewX(0)" fill="#000000" stroke="#000000" stroke-width="0.039" stroke-miterlimit="3" data-glyph-w="12.568359375" data-glyph-h="24.3826171875" data-glyph-ascender="19.606640624999997" data-glyph-descender="-4.7759765624999995"/><path d="M2.55-9.54L2.55-2.70L0.80-2.70L0.80-13.77L2.55-13.77L2.55-12.93Q3.77-14.05 5.46-14.05L5.46-14.05Q7.28-14.05 8.56-12.77L8.56-12.77Q8.80-12.53 9.00-12.27L9.00-12.27Q9.19-12.51 9.41-12.74L9.41-12.74Q10.73-14.05 12.60-14.05L12.60-14.05Q14.48-14.05 15.80-12.74L15.80-12.74Q17.12-11.41 17.12-9.54L17.12-9.54L17.12-2.70L15.37-2.70L15.37-9.54Q15.37-10.68 14.56-11.49L14.56-11.49Q13.75-12.31 12.60-12.31L12.60-12.31Q11.46-12.31 10.65-11.49L10.65-11.49Q9.84-10.68 9.84-9.54L9.84-9.54L9.84-2.70L8.09-2.70L8.09-9.54Q8.09-10.68 7.28-11.49L7.28-11.49Q6.47-12.31 5.31-12.31L5.31-12.31Q4.17-12.31 3.36-11.49L3.36-11.49Q2.55-10.68 2.55-9.54L2.55-9.54Z" transform="translate(24.085546875 89.80664062499999) skewX(0)" fill="#000000" stroke="#000000" stroke-width="0.039" stroke-miterlimit="3" data-glyph-w="17.915625" data-glyph-h="24.3826171875" data-glyph-ascender="19.606640624999997" data-glyph-descender="-4.7759765624999995"/><path d="M6.34-4.15Q7.91-4.15 9.01-5.35L9.01-5.35Q10.12-6.54 10.12-8.23L10.12-8.23Q10.12-9.92 9.01-11.12L9.01-11.12Q7.91-12.31 6.34-12.31L6.34-12.31Q4.76-12.31 3.66-11.12L3.66-11.12Q2.55-9.92 2.55-8.23L2.55-8.23Q2.55-6.54 3.66-5.35L3.66-5.35Q4.76-4.15 6.34-4.15L6.34-4.15ZM2.55-13.77L2.55-12.48Q4.14-14.05 6.34-14.05L6.34-14.05Q8.64-14.05 10.25-12.35L10.25-12.35Q11.87-10.65 11.87-8.23L11.87-8.23Q11.87-5.82 10.25-4.11L10.25-4.11Q8.64-2.40 6.34-2.40L6.34-2.40Q4.14-2.40 2.55-3.99L2.55-3.99L2.55 2.55L0.80 2.55L0.80-13.77L2.55-13.77Z" transform="translate(42.001171875 89.80664062499999) skewX(0)" fill="#000000" stroke="#000000" stroke-width="0.039" stroke-miterlimit="3" data-glyph-w="12.32841796875" data-glyph-h="24.3826171875" data-glyph-ascender="19.606640624999997" data-glyph-descender="-4.7759765624999995"/><path d="M6.28-14.05Q8.70-14.05 10.41-12.35L10.41-12.35Q12.11-10.65 12.11-8.23L12.11-8.23Q12.11-5.82 10.41-4.11L10.41-4.11Q8.70-2.40 6.28-2.40L6.28-2.40Q3.87-2.40 2.16-4.11L2.16-4.11Q0.46-5.82 0.46-8.23L0.46-8.23Q0.46-10.65 2.16-12.35L2.16-12.35Q3.87-14.05 6.28-14.05L6.28-14.05ZM9.17-11.12Q7.98-12.31 6.28-12.31L6.28-12.31Q4.59-12.31 3.40-11.12L3.40-11.12Q2.21-9.92 2.21-8.23L2.21-8.23Q2.21-6.54 3.40-5.35L3.40-5.35Q4.59-4.15 6.28-4.15L6.28-4.15Q7.98-4.15 9.17-5.35L9.17-5.35Q10.36-6.54 10.36-8.23L10.36-8.23Q10.36-9.92 9.17-11.12L9.17-11.12Z" transform="translate(54.32958984375 89.80664062499999) skewX(0)" fill="#000000" stroke="#000000" stroke-width="0.039" stroke-miterlimit="3" data-glyph-w="12.568359375" data-glyph-h="24.3826171875" data-glyph-ascender="19.606640624999997" data-glyph-descender="-4.7759765624999995"/><path d="M2.55-8.81L2.55-8.81L2.55-2.70L0.80-2.70L0.80-13.77L2.55-13.77L2.55-12.53Q2.56-12.55 2.58-12.57L2.58-12.57Q4.08-14.05 6.19-14.05L6.19-14.05Q8.31-14.05 9.80-12.57L9.80-12.57Q11.29-11.07 11.29-8.96L11.29-8.96L11.29-2.70L9.54-2.70L9.54-8.81Q9.54-10.26 8.52-11.29L8.52-11.29Q7.50-12.31 6.04-12.31L6.04-12.31Q4.59-12.31 3.58-11.29L3.58-11.29Q2.55-10.26 2.55-8.81Z" transform="translate(66.89794921875 89.80664062499999) skewX(0)" fill="#000000" stroke="#000000" stroke-width="0.039" stroke-miterlimit="3" data-glyph-w="12.088476562499999" data-glyph-h="24.3826171875" data-glyph-ascender="19.606640624999997" data-glyph-descender="-4.7759765624999995"/><path d="M2.30-7.36L12.05-7.36Q12.11-7.79 12.11-8.23L12.11-8.23Q12.11-10.65 10.41-12.35L10.41-12.35Q8.71-14.05 6.28-14.05L6.28-14.05Q3.87-14.05 2.17-12.35L2.17-12.35Q0.46-10.65 0.46-8.23L0.46-8.23Q0.46-5.82 2.17-4.11L2.17-4.11Q3.87-2.40 6.28-2.40L6.28-2.40Q9.32-2.40 11.06-4.89L11.06-4.89L9.63-5.88Q8.41-4.15 6.28-4.15L6.28-4.15Q4.59-4.15 3.40-5.35L3.40-5.35Q2.53-6.22 2.30-7.36L2.30-7.36ZM2.30-9.11Q2.53-10.24 3.40-11.12L3.40-11.12Q4.59-12.31 6.28-12.31L6.28-12.31Q7.98-12.31 9.17-11.12L9.17-11.12Q10.04-10.24 10.27-9.11L10.27-9.11L2.30-9.11Z" transform="translate(78.98642578125 89.80664062499999) skewX(0)" fill="#000000" stroke="#000000" stroke-width="0.039" stroke-miterlimit="3" data-glyph-w="12.568359375" data-glyph-h="24.3826171875" data-glyph-ascender="19.606640624999997" data-glyph-descender="-4.7759765624999995"/><path d="M2.55-8.81L2.55-8.81L2.55-2.70L0.80-2.70L0.80-13.77L2.55-13.77L2.55-12.53Q2.56-12.55 2.58-12.57L2.58-12.57Q4.08-14.05 6.19-14.05L6.19-14.05Q8.31-14.05 9.80-12.57L9.80-12.57Q11.29-11.07 11.29-8.96L11.29-8.96L11.29-2.70L9.54-2.70L9.54-8.81Q9.54-10.26 8.52-11.29L8.52-11.29Q7.50-12.31 6.04-12.31L6.04-12.31Q4.59-12.31 3.58-11.29L3.58-11.29Q2.55-10.26 2.55-8.81Z" transform="translate(91.55478515625 89.80664062499999) skewX(0)" fill="#000000" stroke="#000000" stroke-width="0.039" stroke-miterlimit="3" data-glyph-w="12.088476562499999" data-glyph-h="24.3826171875" data-glyph-ascender="19.606640624999997" data-glyph-descender="-4.7759765624999995"/><path d="M2.79-12.02L2.79-5.90Q2.79-4.57 3.72-3.63L3.72-3.63Q4.66-2.70 5.99-2.70L5.99-2.70L7.45-2.70L7.45-4.44L5.99-4.44Q5.39-4.44 4.96-4.87L4.96-4.87Q4.54-5.30 4.54-5.90L4.54-5.90L4.54-12.02L7.45-12.02L7.45-13.77L4.54-13.77L4.54-17.26L2.79-17.26L2.79-13.77L0.46-13.77L0.46-12.02L2.79-12.02Z" transform="translate(103.64326171875001 89.80664062499999) skewX(0)" fill="#000000" stroke="#000000" stroke-width="0.039" stroke-miterlimit="3" data-glyph-w="7.906640625" data-glyph-h="24.3826171875" data-glyph-ascender="19.606640624999997" data-glyph-descender="-4.7759765624999995"/><path d="M5.64-14.05Q7.28-14.05 8.59-13.22L8.59-13.22Q9.84-12.44 10.24-11.31L10.24-11.31L8.56-10.87Q8.42-11.44 7.60-11.86L7.60-11.86Q6.74-12.31 5.64-12.31L5.64-12.31Q4.40-12.31 3.59-11.93L3.59-11.93Q2.73-11.53 2.73-10.85L2.73-10.85Q2.73-10.07 3.99-9.70L3.99-9.70Q4.12-9.67 6.74-9.20L6.74-9.20Q8.60-8.88 9.49-8.28L9.49-8.28Q10.75-7.47 10.75-5.90L10.75-5.90Q10.75-4.22 9.25-3.28L9.25-3.28Q7.87-2.40 5.64-2.40L5.64-2.40Q3.80-2.40 2.32-3.31L2.32-3.31Q0.81-4.25 0.46-5.64L0.46-5.64L2.24-5.95Q2.53-5.14 3.45-4.65L3.45-4.65Q4.38-4.15 5.64-4.15L5.64-4.15Q7.11-4.15 8.02-4.58L8.02-4.58Q9.00-5.06 9.00-5.90L9.00-5.90Q9.00-6.83 7.75-7.24L7.75-7.24Q7.30-7.39 4.99-7.77L4.99-7.77Q3.11-8.07 2.24-8.59L2.24-8.59Q0.98-9.35 0.98-10.85L0.98-10.85Q0.98-12.34 2.35-13.22L2.35-13.22Q3.64-14.05 5.64-14.05L5.64-14.05Z" transform="translate(111.54990234375 89.80664062499999) skewX(0)" fill="#000000" stroke="#000000" stroke-width="0.039" stroke-miterlimit="3" data-glyph-w="11.231542968749999" data-glyph-h="24.3826171875" data-glyph-ascender="19.606640624999997" data-glyph-descender="-4.7759765624999995"/><path d="" transform="translate(122.78144531250001 89.80664062499999) skewX(0)" fill="#000000" stroke="#000000" stroke-width="0.039" stroke-miterlimit="3" data-glyph-w="9.3132" data-glyph-h="23.400000000000002" data-glyph-ascender="20.592000000000002" data-glyph-descender="-2.8080000000000003"/><path d="M3.08-13.77L3.08-15.80Q3.08-17.13 4.02-18.08L4.02-18.08Q4.96-19.01 6.28-19.01L6.28-19.01L8.62-19.01L8.62-17.26L6.28-17.26Q5.69-17.26 5.26-16.84L5.26-16.84Q4.83-16.41 4.83-15.80L4.83-15.80L4.83-13.77L8.62-13.77L8.62-12.02L4.83-12.02L4.83-2.70L3.08-2.70L3.08-12.02L0.46-12.02L0.46-13.77L3.08-13.77Z" transform="translate(132.0946453125 89.80664062499999) skewX(0)" fill="#000000" stroke="#000000" stroke-width="0.039" stroke-miterlimit="3" data-glyph-w="9.0720703125" data-glyph-h="24.3826171875" data-glyph-ascender="19.606640624999997" data-glyph-descender="-4.7759765624999995"/><path d="M6.28-14.05Q8.70-14.05 10.41-12.35L10.41-12.35Q12.11-10.65 12.11-8.23L12.11-8.23Q12.11-5.82 10.41-4.11L10.41-4.11Q8.70-2.40 6.28-2.40L6.28-2.40Q3.87-2.40 2.16-4.11L2.16-4.11Q0.46-5.82 0.46-8.23L0.46-8.23Q0.46-10.65 2.16-12.35L2.16-12.35Q3.87-14.05 6.28-14.05L6.28-14.05ZM9.17-11.12Q7.98-12.31 6.28-12.31L6.28-12.31Q4.59-12.31 3.40-11.12L3.40-11.12Q2.21-9.92 2.21-8.23L2.21-8.23Q2.21-6.54 3.40-5.35L3.40-5.35Q4.59-4.15 6.28-4.15L6.28-4.15Q7.98-4.15 9.17-5.35L9.17-5.35Q10.36-6.54 10.36-8.23L10.36-8.23Q10.36-9.92 9.17-11.12L9.17-11.12Z" transform="translate(141.166715625 89.80664062499999) skewX(0)" fill="#000000" stroke="#000000" stroke-width="0.039" stroke-miterlimit="3" data-glyph-w="12.568359375" data-glyph-h="24.3826171875" data-glyph-ascender="19.606640624999997" data-glyph-descender="-4.7759765624999995"/><path d="M0.80-2.70L0.80-13.77L2.55-13.77L2.55-12.72Q4.02-14.05 6.04-14.05L6.04-14.05Q6.49-14.05 6.92-13.99L6.92-13.99L6.92-12.20Q6.49-12.31 6.04-12.31L6.04-12.31Q4.60-12.31 3.58-11.29L3.58-11.29Q2.55-10.26 2.55-8.81L2.55-8.81L2.55-2.70L0.80-2.70Z" transform="translate(153.735075 89.80664062499999) skewX(0)" fill="#000000" stroke="#000000" stroke-width="0.039" stroke-miterlimit="3" data-glyph-w="7.3810546875" data-glyph-h="24.3826171875" data-glyph-ascender="19.606640624999997" data-glyph-descender="-4.7759765624999995"/><path d="" transform="translate(161.1161296875 89.80664062499999) skewX(0)" fill="#000000" stroke="#000000" stroke-width="0.039" stroke-miterlimit="3" data-glyph-w="9.3132" data-glyph-h="23.400000000000002" data-glyph-ascender="20.592000000000002" data-glyph-descender="-2.8080000000000003"/><path d="M11.23-13.77L9.32-13.77L5.61-5.23L1.91-13.77L0-13.77L4.81-2.70L6.42-2.70L11.23-13.77Z" transform="translate(170.4293296875 89.80664062499999) skewX(0)" fill="#000000" stroke="#000000" stroke-width="0.039" stroke-miterlimit="3" data-glyph-w="11.231542968749999" data-glyph-h="24.3826171875" data-glyph-ascender="19.606640624999997" data-glyph-descender="-4.7759765624999995"/><path d="M9.54-7.64L9.54-7.64L9.54-13.77L11.29-13.77L11.29-2.70L9.54-2.70L9.54-3.93Q9.53-3.92 9.51-3.90L9.51-3.90Q8.01-2.40 5.91-2.40L5.91-2.40Q3.79-2.40 2.30-3.90L2.30-3.90Q0.80-5.39 0.80-7.51L0.80-7.51L0.80-13.77L2.55-13.77L2.55-7.64Q2.55-6.19 3.58-5.18L3.58-5.18Q4.59-4.15 6.04-4.15L6.04-4.15Q7.50-4.15 8.52-5.18L8.52-5.18Q9.54-6.19 9.54-7.64Z" transform="translate(181.66087265625 89.80664062499999) skewX(0)" fill="#000000" stroke="#000000" stroke-width="0.039" stroke-miterlimit="3" data-glyph-w="12.088476562499999" data-glyph-h="24.3826171875" data-glyph-ascender="19.606640624999997" data-glyph-descender="-4.7759765624999995"/><path d="M2.30-7.36L12.05-7.36Q12.11-7.79 12.11-8.23L12.11-8.23Q12.11-10.65 10.41-12.35L10.41-12.35Q8.71-14.05 6.28-14.05L6.28-14.05Q3.87-14.05 2.17-12.35L2.17-12.35Q0.46-10.65 0.46-8.23L0.46-8.23Q0.46-5.82 2.17-4.11L2.17-4.11Q3.87-2.40 6.28-2.40L6.28-2.40Q9.32-2.40 11.06-4.89L11.06-4.89L9.63-5.88Q8.41-4.15 6.28-4.15L6.28-4.15Q4.59-4.15 3.40-5.35L3.40-5.35Q2.53-6.22 2.30-7.36L2.30-7.36ZM2.30-9.11Q2.53-10.24 3.40-11.12L3.40-11.12Q4.59-12.31 6.28-12.31L6.28-12.31Q7.98-12.31 9.17-11.12L9.17-11.12Q10.04-10.24 10.27-9.11L10.27-9.11L2.30-9.11Z" transform="translate(193.74934921875 89.80664062499999) skewX(0)" fill="#000000" stroke="#000000" stroke-width="0.039" stroke-miterlimit="3" data-glyph-w="12.568359375" data-glyph-h="24.3826171875" data-glyph-ascender="19.606640624999997" data-glyph-descender="-4.7759765624999995"/><path d="M5.35-12.02L6.51-12.02Q8.14-12.02 9.20-12.75L9.20-12.75Q10.31-13.52 10.31-14.78L10.31-14.78Q10.31-15.94 9.20-16.75L9.20-16.75Q8.09-17.55 6.51-17.55L6.51-17.55Q4.95-17.55 3.84-16.75L3.84-16.75Q2.73-15.94 2.73-14.78L2.73-14.78L0.98-14.78Q0.98-16.66 2.61-17.98L2.61-17.98Q4.23-19.31 6.51-19.31L6.51-19.31Q8.81-19.31 10.43-17.98L10.43-17.98Q12.05-16.66 12.05-14.78L12.05-14.78Q12.05-12.76 10.43-11.49L10.43-11.49Q10.20-11.32 9.96-11.16L9.96-11.16Q10.32-10.96 10.64-10.71L10.64-10.71Q12.34-9.35 12.34-7.21L12.34-7.21Q12.34-5.22 10.64-3.80L10.64-3.80Q8.93-2.40 6.51-2.40L6.51-2.40Q4.10-2.40 2.40-3.80L2.40-3.80Q0.69-5.22 0.69-7.21L0.69-7.21L2.43-7.21Q2.43-5.94 3.63-5.05L3.63-5.05Q4.82-4.15 6.51-4.15L6.51-4.15Q8.20-4.15 9.40-5.05L9.40-5.05Q10.59-5.94 10.59-7.21L10.59-7.21Q10.59-8.68 9.40-9.51L9.40-9.51Q8.30-10.27 6.51-10.27L6.51-10.27L5.35-10.27L5.35-12.02Z" transform="translate(206.31770859375 89.80664062499999) skewX(0)" fill="#000000" stroke="#000000" stroke-width="0.039" stroke-miterlimit="3" data-glyph-w="13.025390625" data-glyph-h="24.3826171875" data-glyph-ascender="19.606640624999997" data-glyph-descender="-4.7759765624999995"/></g><g data-width="219.34309921875" transform="translate(23.4, 0)"><path d="M6.28-14.05Q9.31-14.05 11.06-11.57L11.06-11.57L9.63-10.57Q8.41-12.31 6.28-12.31L6.28-12.31Q4.59-12.31 3.40-11.12L3.40-11.12Q2.21-9.92 2.21-8.23L2.21-8.23Q2.21-6.54 3.40-5.35L3.40-5.35Q4.59-4.15 6.28-4.15L6.28-4.15Q8.41-4.15 9.63-5.88L9.63-5.88L11.06-4.89Q9.31-2.40 6.28-2.40L6.28-2.40Q3.87-2.40 2.16-4.11L2.16-4.11Q0.46-5.82 0.46-8.23L0.46-8.23Q0.46-10.65 2.16-12.35L2.16-12.35Q3.87-14.05 6.28-14.05L6.28-14.05Z" transform="translate(0 89.80664062499999) skewX(0)" fill="rgb(36, 111, 221)" stroke="rgb(36, 111, 221)" stroke-width="0.039" data-glyph-w="11.517187499999999" data-glyph-h="24.3826171875" data-glyph-ascender="19.606640624999997" data-glyph-descender="-4.7759765624999995"/><path d="M6.28-14.05Q8.70-14.05 10.41-12.35L10.41-12.35Q12.11-10.65 12.11-8.23L12.11-8.23Q12.11-5.82 10.41-4.11L10.41-4.11Q8.70-2.40 6.28-2.40L6.28-2.40Q3.87-2.40 2.16-4.11L2.16-4.11Q0.46-5.82 0.46-8.23L0.46-8.23Q0.46-10.65 2.16-12.35L2.16-12.35Q3.87-14.05 6.28-14.05L6.28-14.05ZM9.17-11.12Q7.98-12.31 6.28-12.31L6.28-12.31Q4.59-12.31 3.40-11.12L3.40-11.12Q2.21-9.92 2.21-8.23L2.21-8.23Q2.21-6.54 3.40-5.35L3.40-5.35Q4.59-4.15 6.28-4.15L6.28-4.15Q7.98-4.15 9.17-5.35L9.17-5.35Q10.36-6.54 10.36-8.23L10.36-8.23Q10.36-9.92 9.17-11.12L9.17-11.12Z" transform="translate(11.517187499999999 89.80664062499999) skewX(0)" fill="rgb(36, 111, 221)" stroke="rgb(36, 111, 221)" stroke-width="0.039" data-glyph-w="12.568359375" data-glyph-h="24.3826171875" data-glyph-ascender="19.606640624999997" data-glyph-descender="-4.7759765624999995"/><path d="M2.55-9.54L2.55-2.70L0.80-2.70L0.80-13.77L2.55-13.77L2.55-12.93Q3.77-14.05 5.46-14.05L5.46-14.05Q7.28-14.05 8.56-12.77L8.56-12.77Q8.80-12.53 9.00-12.27L9.00-12.27Q9.19-12.51 9.41-12.74L9.41-12.74Q10.73-14.05 12.60-14.05L12.60-14.05Q14.48-14.05 15.80-12.74L15.80-12.74Q17.12-11.41 17.12-9.54L17.12-9.54L17.12-2.70L15.37-2.70L15.37-9.54Q15.37-10.68 14.56-11.49L14.56-11.49Q13.75-12.31 12.60-12.31L12.60-12.31Q11.46-12.31 10.65-11.49L10.65-11.49Q9.84-10.68 9.84-9.54L9.84-9.54L9.84-2.70L8.09-2.70L8.09-9.54Q8.09-10.68 7.28-11.49L7.28-11.49Q6.47-12.31 5.31-12.31L5.31-12.31Q4.17-12.31 3.36-11.49L3.36-11.49Q2.55-10.68 2.55-9.54L2.55-9.54Z" transform="translate(24.085546875 89.80664062499999) skewX(0)" fill="rgb(36, 111, 221)" stroke="rgb(36, 111, 221)" stroke-width="0.039" data-glyph-w="17.915625" data-glyph-h="24.3826171875" data-glyph-ascender="19.606640624999997" data-glyph-descender="-4.7759765624999995"/><path d="M6.34-4.15Q7.91-4.15 9.01-5.35L9.01-5.35Q10.12-6.54 10.12-8.23L10.12-8.23Q10.12-9.92 9.01-11.12L9.01-11.12Q7.91-12.31 6.34-12.31L6.34-12.31Q4.76-12.31 3.66-11.12L3.66-11.12Q2.55-9.92 2.55-8.23L2.55-8.23Q2.55-6.54 3.66-5.35L3.66-5.35Q4.76-4.15 6.34-4.15L6.34-4.15ZM2.55-13.77L2.55-12.48Q4.14-14.05 6.34-14.05L6.34-14.05Q8.64-14.05 10.25-12.35L10.25-12.35Q11.87-10.65 11.87-8.23L11.87-8.23Q11.87-5.82 10.25-4.11L10.25-4.11Q8.64-2.40 6.34-2.40L6.34-2.40Q4.14-2.40 2.55-3.99L2.55-3.99L2.55 2.55L0.80 2.55L0.80-13.77L2.55-13.77Z" transform="translate(42.001171875 89.80664062499999) skewX(0)" fill="rgb(36, 111, 221)" stroke="rgb(36, 111, 221)" stroke-width="0.039" data-glyph-w="12.32841796875" data-glyph-h="24.3826171875" data-glyph-ascender="19.606640624999997" data-glyph-descender="-4.7759765624999995"/><path d="M6.28-14.05Q8.70-14.05 10.41-12.35L10.41-12.35Q12.11-10.65 12.11-8.23L12.11-8.23Q12.11-5.82 10.41-4.11L10.41-4.11Q8.70-2.40 6.28-2.40L6.28-2.40Q3.87-2.40 2.16-4.11L2.16-4.11Q0.46-5.82 0.46-8.23L0.46-8.23Q0.46-10.65 2.16-12.35L2.16-12.35Q3.87-14.05 6.28-14.05L6.28-14.05ZM9.17-11.12Q7.98-12.31 6.28-12.31L6.28-12.31Q4.59-12.31 3.40-11.12L3.40-11.12Q2.21-9.92 2.21-8.23L2.21-8.23Q2.21-6.54 3.40-5.35L3.40-5.35Q4.59-4.15 6.28-4.15L6.28-4.15Q7.98-4.15 9.17-5.35L9.17-5.35Q10.36-6.54 10.36-8.23L10.36-8.23Q10.36-9.92 9.17-11.12L9.17-11.12Z" transform="translate(54.32958984375 89.80664062499999) skewX(0)" fill="rgb(36, 111, 221)" stroke="rgb(36, 111, 221)" stroke-width="0.039" data-glyph-w="12.568359375" data-glyph-h="24.3826171875" data-glyph-ascender="19.606640624999997" data-glyph-descender="-4.7759765624999995"/><path d="M2.55-8.81L2.55-8.81L2.55-2.70L0.80-2.70L0.80-13.77L2.55-13.77L2.55-12.53Q2.56-12.55 2.58-12.57L2.58-12.57Q4.08-14.05 6.19-14.05L6.19-14.05Q8.31-14.05 9.80-12.57L9.80-12.57Q11.29-11.07 11.29-8.96L11.29-8.96L11.29-2.70L9.54-2.70L9.54-8.81Q9.54-10.26 8.52-11.29L8.52-11.29Q7.50-12.31 6.04-12.31L6.04-12.31Q4.59-12.31 3.58-11.29L3.58-11.29Q2.55-10.26 2.55-8.81Z" transform="translate(66.89794921875 89.80664062499999) skewX(0)" fill="rgb(36, 111, 221)" stroke="rgb(36, 111, 221)" stroke-width="0.039" data-glyph-w="12.088476562499999" data-glyph-h="24.3826171875" data-glyph-ascender="19.606640624999997" data-glyph-descender="-4.7759765624999995"/><path d="M2.30-7.36L12.05-7.36Q12.11-7.79 12.11-8.23L12.11-8.23Q12.11-10.65 10.41-12.35L10.41-12.35Q8.71-14.05 6.28-14.05L6.28-14.05Q3.87-14.05 2.17-12.35L2.17-12.35Q0.46-10.65 0.46-8.23L0.46-8.23Q0.46-5.82 2.17-4.11L2.17-4.11Q3.87-2.40 6.28-2.40L6.28-2.40Q9.32-2.40 11.06-4.89L11.06-4.89L9.63-5.88Q8.41-4.15 6.28-4.15L6.28-4.15Q4.59-4.15 3.40-5.35L3.40-5.35Q2.53-6.22 2.30-7.36L2.30-7.36ZM2.30-9.11Q2.53-10.24 3.40-11.12L3.40-11.12Q4.59-12.31 6.28-12.31L6.28-12.31Q7.98-12.31 9.17-11.12L9.17-11.12Q10.04-10.24 10.27-9.11L10.27-9.11L2.30-9.11Z" transform="translate(78.98642578125 89.80664062499999) skewX(0)" fill="rgb(36, 111, 221)" stroke="rgb(36, 111, 221)" stroke-width="0.039" data-glyph-w="12.568359375" data-glyph-h="24.3826171875" data-glyph-ascender="19.606640624999997" data-glyph-descender="-4.7759765624999995"/><path d="M2.55-8.81L2.55-8.81L2.55-2.70L0.80-2.70L0.80-13.77L2.55-13.77L2.55-12.53Q2.56-12.55 2.58-12.57L2.58-12.57Q4.08-14.05 6.19-14.05L6.19-14.05Q8.31-14.05 9.80-12.57L9.80-12.57Q11.29-11.07 11.29-8.96L11.29-8.96L11.29-2.70L9.54-2.70L9.54-8.81Q9.54-10.26 8.52-11.29L8.52-11.29Q7.50-12.31 6.04-12.31L6.04-12.31Q4.59-12.31 3.58-11.29L3.58-11.29Q2.55-10.26 2.55-8.81Z" transform="translate(91.55478515625 89.80664062499999) skewX(0)" fill="rgb(36, 111, 221)" stroke="rgb(36, 111, 221)" stroke-width="0.039" data-glyph-w="12.088476562499999" data-glyph-h="24.3826171875" data-glyph-ascender="19.606640624999997" data-glyph-descender="-4.7759765624999995"/><path d="M2.79-12.02L2.79-5.90Q2.79-4.57 3.72-3.63L3.72-3.63Q4.66-2.70 5.99-2.70L5.99-2.70L7.45-2.70L7.45-4.44L5.99-4.44Q5.39-4.44 4.96-4.87L4.96-4.87Q4.54-5.30 4.54-5.90L4.54-5.90L4.54-12.02L7.45-12.02L7.45-13.77L4.54-13.77L4.54-17.26L2.79-17.26L2.79-13.77L0.46-13.77L0.46-12.02L2.79-12.02Z" transform="translate(103.64326171875001 89.80664062499999) skewX(0)" fill="rgb(36, 111, 221)" stroke="rgb(36, 111, 221)" stroke-width="0.039" data-glyph-w="7.906640625" data-glyph-h="24.3826171875" data-glyph-ascender="19.606640624999997" data-glyph-descender="-4.7759765624999995"/><path d="M5.64-14.05Q7.28-14.05 8.59-13.22L8.59-13.22Q9.84-12.44 10.24-11.31L10.24-11.31L8.56-10.87Q8.42-11.44 7.60-11.86L7.60-11.86Q6.74-12.31 5.64-12.31L5.64-12.31Q4.40-12.31 3.59-11.93L3.59-11.93Q2.73-11.53 2.73-10.85L2.73-10.85Q2.73-10.07 3.99-9.70L3.99-9.70Q4.12-9.67 6.74-9.20L6.74-9.20Q8.60-8.88 9.49-8.28L9.49-8.28Q10.75-7.47 10.75-5.90L10.75-5.90Q10.75-4.22 9.25-3.28L9.25-3.28Q7.87-2.40 5.64-2.40L5.64-2.40Q3.80-2.40 2.32-3.31L2.32-3.31Q0.81-4.25 0.46-5.64L0.46-5.64L2.24-5.95Q2.53-5.14 3.45-4.65L3.45-4.65Q4.38-4.15 5.64-4.15L5.64-4.15Q7.11-4.15 8.02-4.58L8.02-4.58Q9.00-5.06 9.00-5.90L9.00-5.90Q9.00-6.83 7.75-7.24L7.75-7.24Q7.30-7.39 4.99-7.77L4.99-7.77Q3.11-8.07 2.24-8.59L2.24-8.59Q0.98-9.35 0.98-10.85L0.98-10.85Q0.98-12.34 2.35-13.22L2.35-13.22Q3.64-14.05 5.64-14.05L5.64-14.05Z" transform="translate(111.54990234375 89.80664062499999) skewX(0)" fill="rgb(36, 111, 221)" stroke="rgb(36, 111, 221)" stroke-width="0.039" data-glyph-w="11.231542968749999" data-glyph-h="24.3826171875" data-glyph-ascender="19.606640624999997" data-glyph-descender="-4.7759765624999995"/><path d="" transform="translate(122.78144531250001 89.80664062499999) skewX(0)" fill="rgb(36, 111, 221)" stroke="rgb(36, 111, 221)" stroke-width="0.039" data-glyph-w="9.3132" data-glyph-h="23.400000000000002" data-glyph-ascender="20.592000000000002" data-glyph-descender="-2.8080000000000003"/><path d="M3.08-13.77L3.08-15.80Q3.08-17.13 4.02-18.08L4.02-18.08Q4.96-19.01 6.28-19.01L6.28-19.01L8.62-19.01L8.62-17.26L6.28-17.26Q5.69-17.26 5.26-16.84L5.26-16.84Q4.83-16.41 4.83-15.80L4.83-15.80L4.83-13.77L8.62-13.77L8.62-12.02L4.83-12.02L4.83-2.70L3.08-2.70L3.08-12.02L0.46-12.02L0.46-13.77L3.08-13.77Z" transform="translate(132.0946453125 89.80664062499999) skewX(0)" fill="rgb(36, 111, 221)" stroke="rgb(36, 111, 221)" stroke-width="0.039" data-glyph-w="9.0720703125" data-glyph-h="24.3826171875" data-glyph-ascender="19.606640624999997" data-glyph-descender="-4.7759765624999995"/><path d="M6.28-14.05Q8.70-14.05 10.41-12.35L10.41-12.35Q12.11-10.65 12.11-8.23L12.11-8.23Q12.11-5.82 10.41-4.11L10.41-4.11Q8.70-2.40 6.28-2.40L6.28-2.40Q3.87-2.40 2.16-4.11L2.16-4.11Q0.46-5.82 0.46-8.23L0.46-8.23Q0.46-10.65 2.16-12.35L2.16-12.35Q3.87-14.05 6.28-14.05L6.28-14.05ZM9.17-11.12Q7.98-12.31 6.28-12.31L6.28-12.31Q4.59-12.31 3.40-11.12L3.40-11.12Q2.21-9.92 2.21-8.23L2.21-8.23Q2.21-6.54 3.40-5.35L3.40-5.35Q4.59-4.15 6.28-4.15L6.28-4.15Q7.98-4.15 9.17-5.35L9.17-5.35Q10.36-6.54 10.36-8.23L10.36-8.23Q10.36-9.92 9.17-11.12L9.17-11.12Z" transform="translate(141.166715625 89.80664062499999) skewX(0)" fill="rgb(36, 111, 221)" stroke="rgb(36, 111, 221)" stroke-width="0.039" data-glyph-w="12.568359375" data-glyph-h="24.3826171875" data-glyph-ascender="19.606640624999997" data-glyph-descender="-4.7759765624999995"/><path d="M0.80-2.70L0.80-13.77L2.55-13.77L2.55-12.72Q4.02-14.05 6.04-14.05L6.04-14.05Q6.49-14.05 6.92-13.99L6.92-13.99L6.92-12.20Q6.49-12.31 6.04-12.31L6.04-12.31Q4.60-12.31 3.58-11.29L3.58-11.29Q2.55-10.26 2.55-8.81L2.55-8.81L2.55-2.70L0.80-2.70Z" transform="translate(153.735075 89.80664062499999) skewX(0)" fill="rgb(36, 111, 221)" stroke="rgb(36, 111, 221)" stroke-width="0.039" data-glyph-w="7.3810546875" data-glyph-h="24.3826171875" data-glyph-ascender="19.606640624999997" data-glyph-descender="-4.7759765624999995"/><path d="" transform="translate(161.1161296875 89.80664062499999) skewX(0)" fill="rgb(36, 111, 221)" stroke="rgb(36, 111, 221)" stroke-width="0.039" data-glyph-w="9.3132" data-glyph-h="23.400000000000002" data-glyph-ascender="20.592000000000002" data-glyph-descender="-2.8080000000000003"/><path d="M11.23-13.77L9.32-13.77L5.61-5.23L1.91-13.77L0-13.77L4.81-2.70L6.42-2.70L11.23-13.77Z" transform="translate(170.4293296875 89.80664062499999) skewX(0)" fill="rgb(36, 111, 221)" stroke="rgb(36, 111, 221)" stroke-width="0.039" data-glyph-w="11.231542968749999" data-glyph-h="24.3826171875" data-glyph-ascender="19.606640624999997" data-glyph-descender="-4.7759765624999995"/><path d="M9.54-7.64L9.54-7.64L9.54-13.77L11.29-13.77L11.29-2.70L9.54-2.70L9.54-3.93Q9.53-3.92 9.51-3.90L9.51-3.90Q8.01-2.40 5.91-2.40L5.91-2.40Q3.79-2.40 2.30-3.90L2.30-3.90Q0.80-5.39 0.80-7.51L0.80-7.51L0.80-13.77L2.55-13.77L2.55-7.64Q2.55-6.19 3.58-5.18L3.58-5.18Q4.59-4.15 6.04-4.15L6.04-4.15Q7.50-4.15 8.52-5.18L8.52-5.18Q9.54-6.19 9.54-7.64Z" transform="translate(181.66087265625 89.80664062499999) skewX(0)" fill="rgb(36, 111, 221)" stroke="rgb(36, 111, 221)" stroke-width="0.039" data-glyph-w="12.088476562499999" data-glyph-h="24.3826171875" data-glyph-ascender="19.606640624999997" data-glyph-descender="-4.7759765624999995"/><path d="M2.30-7.36L12.05-7.36Q12.11-7.79 12.11-8.23L12.11-8.23Q12.11-10.65 10.41-12.35L10.41-12.35Q8.71-14.05 6.28-14.05L6.28-14.05Q3.87-14.05 2.17-12.35L2.17-12.35Q0.46-10.65 0.46-8.23L0.46-8.23Q0.46-5.82 2.17-4.11L2.17-4.11Q3.87-2.40 6.28-2.40L6.28-2.40Q9.32-2.40 11.06-4.89L11.06-4.89L9.63-5.88Q8.41-4.15 6.28-4.15L6.28-4.15Q4.59-4.15 3.40-5.35L3.40-5.35Q2.53-6.22 2.30-7.36L2.30-7.36ZM2.30-9.11Q2.53-10.24 3.40-11.12L3.40-11.12Q4.59-12.31 6.28-12.31L6.28-12.31Q7.98-12.31 9.17-11.12L9.17-11.12Q10.04-10.24 10.27-9.11L10.27-9.11L2.30-9.11Z" transform="translate(193.74934921875 89.80664062499999) skewX(0)" fill="rgb(36, 111, 221)" stroke="rgb(36, 111, 221)" stroke-width="0.039" data-glyph-w="12.568359375" data-glyph-h="24.3826171875" data-glyph-ascender="19.606640624999997" data-glyph-descender="-4.7759765624999995"/><path d="M5.35-12.02L6.51-12.02Q8.14-12.02 9.20-12.75L9.20-12.75Q10.31-13.52 10.31-14.78L10.31-14.78Q10.31-15.94 9.20-16.75L9.20-16.75Q8.09-17.55 6.51-17.55L6.51-17.55Q4.95-17.55 3.84-16.75L3.84-16.75Q2.73-15.94 2.73-14.78L2.73-14.78L0.98-14.78Q0.98-16.66 2.61-17.98L2.61-17.98Q4.23-19.31 6.51-19.31L6.51-19.31Q8.81-19.31 10.43-17.98L10.43-17.98Q12.05-16.66 12.05-14.78L12.05-14.78Q12.05-12.76 10.43-11.49L10.43-11.49Q10.20-11.32 9.96-11.16L9.96-11.16Q10.32-10.96 10.64-10.71L10.64-10.71Q12.34-9.35 12.34-7.21L12.34-7.21Q12.34-5.22 10.64-3.80L10.64-3.80Q8.93-2.40 6.51-2.40L6.51-2.40Q4.10-2.40 2.40-3.80L2.40-3.80Q0.69-5.22 0.69-7.21L0.69-7.21L2.43-7.21Q2.43-5.94 3.63-5.05L3.63-5.05Q4.82-4.15 6.51-4.15L6.51-4.15Q8.20-4.15 9.40-5.05L9.40-5.05Q10.59-5.94 10.59-7.21L10.59-7.21Q10.59-8.68 9.40-9.51L9.40-9.51Q8.30-10.27 6.51-10.27L6.51-10.27L5.35-10.27L5.35-12.02Z" transform="translate(206.31770859375 89.80664062499999) skewX(0)" fill="rgb(36, 111, 221)" stroke="rgb(36, 111, 221)" stroke-width="0.039" data-glyph-w="13.025390625" data-glyph-h="24.3826171875" data-glyph-ascender="19.606640624999997" data-glyph-descender="-4.7759765624999995"/></g></svg></g></g>  <!----></svg>
