<?xml version="1.0"?>
<svg xmlns="http://www.w3.org/2000/svg" xmlns:xlink="http://www.w3.org/1999/xlink" data-noselect="" viewBox="0 0 800 600" width="1600" height="1200" preserveAspectRatio="none" version="1.1"><defs/> <g id="background" data-noselect=""><rect fill="rgb(224, 224, 226)" width="800" height="600" data-noselect=""/> <!----></g> <g id="shape_QCVZNw9t6R" transform="translate(40.00000000000003,233.9179901002489) rotate(0,70.78254158806419,70.78254158806419) scale(1,1)" filter="" style="cursor: move; opacity: 1;"><g><svg xmlns="http://www.w3.org/2000/svg" viewBox="0 0 276.9625549316406 258.57000732421875" width="141.56508317613196" height="132.16401979950223" class="style-removed" preserveAspectRatio="none" data-parent="shape_QCVZNw9t6R"><g><g fill-rule="evenodd"><path d="M276.77 187.78c0 37.94-33.07 68.12-71.08 70.62v.17H56v-101.5c15.78 3.89 32.9 5 49.11 5.5v49.35h99.15a29.93 29.93 0 0 0 26.28-29.7c0-7.57-.79-13.19-6.24-18.64 12.65 1.66 52.48 10.76 52.48 24.2M205.69.17a76.35 76.35 0 0 1 57 120.63 66.08 66.08 0 0 0-7-6.86c-9.56-8.07-21-13.24-33-16.6a32.42 32.42 0 0 0 7.84-21c0-15.25-12-29.7-26.29-29.7H105.1V90c-17.47 0-34.23-.72-49.11-3.4V0h149.7z" fill="#26333b" stroke-width="0"/><path d="M0 62.42c0 94.86 69.5 89.73 152.21 89.73 48.09 0 95.63-.32 124.38 22.19-7-43.4-103-48-140.52-50 45.63-2.29 115.06 3.32 134.18 30.51C244.71 47.17 45 145.57 0 62.42" fill="#8fc740" stroke-width="0"/></g></g></svg></g></g><g id="shape_MQeVzpvhgL" transform="translate(133.24572554971843,39.71968005414567) rotate(0,210.29414003059117,260.2803482920676) scale(1,1)" filter="" style="cursor: move; opacity: 1;"><g><svg xmlns="http://www.w3.org/2000/svg" xmlns:xlink="http://www.w3.org/1999/xlink" version="1.1" width="845.2393688036994" height="511.4090997421114" viewBox="0 0 950.64 575.18138" data-parent="shape_MQeVzpvhgL"><g data-width="622.67982" transform="translate(81.91, 0)"><path d="M35.79 0L5.57 0L5.57-54.63L36.45-54.63Q43.74-54.63 47.02-52.91L47.02-52.91Q50.87-51.03 52.83-46.61L52.83-46.61Q54.22-43.58 54.22-40.30L54.22-40.30Q54.22-36.04 51.97-32.35Q49.72-28.67 46.28-27.28L46.28-27.28Q54.22-23.67 54.22-14.42L54.22-14.42Q54.22-9.09 51.69-5.49L51.69-5.49Q49.47-2.38 46.03-1.19Q42.59 0 35.79 0L35.79 0ZM17.20-44.89L17.20-32.19L33.01-32.19Q35.55-32.19 36.65-32.44Q37.76-32.68 38.83-33.50L38.83-33.50Q41.36-35.47 41.36-38.91L41.36-38.91Q41.36-42.18 38.99-43.74L38.99-43.74Q37.27-44.89 33.26-44.89L33.26-44.89L17.20-44.89ZM17.20-22.44L17.20-9.75L33.01-9.75Q35.55-9.75 36.70-9.99Q37.84-10.24 38.83-11.06L38.83-11.06Q41.36-13.02 41.36-16.46L41.36-16.46Q41.36-19.74 38.99-21.30L38.99-21.30Q37.27-22.44 33.26-22.44L33.26-22.44L17.20-22.44Z" transform="translate(0 316.09069) skewX(0)" fill="rgb(25, 25, 25)" stroke="rgb(25, 25, 25)" stroke-width="0.137" data-glyph-w="57.173179999999995" data-glyph-h="81.91" data-glyph-ascender="70.36068999999999" data-glyph-descender="-11.54931"/><path d="M17.20 0L5.57 0L5.57-54.63L17.20-54.63L17.20 0Z" transform="translate(57.173179999999995 316.09069) skewX(0)" fill="rgb(25, 25, 25)" stroke="rgb(25, 25, 25)" stroke-width="0.137" data-glyph-w="22.689069999999997" data-glyph-h="81.91" data-glyph-ascender="70.36068999999999" data-glyph-descender="-11.54931"/><path d="M38.99 0L16.71-40.05L16.71 0L5.57 0L5.57-54.63L20.48-54.63L42.18-13.92L42.18-54.63L53.24-54.63L53.24 0L38.99 0Z" transform="translate(79.86224999999999 316.09069) skewX(0)" fill="rgb(25, 25, 25)" stroke="rgb(25, 25, 25)" stroke-width="0.137" data-glyph-w="58.81138" data-glyph-h="81.91" data-glyph-ascender="70.36068999999999" data-glyph-descender="-11.54931"/><path d="M0-26.05L19.09-26.05L19.09-16.22L0-16.22L0-26.05Z" transform="translate(138.67363 316.09069) skewX(0)" fill="rgb(25, 25, 25)" stroke="rgb(25, 25, 25)" stroke-width="0.137" data-glyph-w="19.08503" data-glyph-h="81.91" data-glyph-ascender="70.36068999999999" data-glyph-descender="-11.54931"/><path d="M13.84 0L0.25 0L22.85-54.63L36.20-54.63L58.81 0L45.21 0L39.89-12.61L19.17-12.61L13.84 0ZM37.35-22.36L29.57-41.45L21.79-22.36L37.35-22.36Z" transform="translate(157.75866 316.09069) skewX(0)" fill="rgb(25, 25, 25)" stroke="rgb(25, 25, 25)" stroke-width="0.137" data-glyph-w="59.139019999999995" data-glyph-h="81.91" data-glyph-ascender="70.36068999999999" data-glyph-descender="-11.54931"/><path d="M5.57 0L5.57-54.63L28.75-54.63Q37.43-54.63 42.18-52.91L42.18-52.91Q50.95-49.72 53.90-41.20L53.90-41.20Q56.11-34.65 56.11-27.19L56.11-27.19Q56.11-19.82 53.98-13.27L53.98-13.27Q51.85-6.55 46.93-3.36L46.93-3.36Q43.82-1.39 40.09-0.70Q36.37 0 28.75 0L28.75 0L5.57 0ZM28.75-44.89L17.20-44.89L17.20-9.75L28.75-9.75Q36.37-9.75 39.32-13.11L39.32-13.11Q41.12-15.24 42.22-19.09Q43.33-22.93 43.33-27.28L43.33-27.28Q43.33-32.11 42.02-36.12Q40.71-40.14 38.58-42.10L38.58-42.10Q35.47-44.89 28.75-44.89L28.75-44.89Z" transform="translate(216.89767999999998 316.09069) skewX(0)" fill="rgb(25, 25, 25)" stroke="rgb(25, 25, 25)" stroke-width="0.137" data-glyph-w="58.64756" data-glyph-h="81.91" data-glyph-ascender="70.36068999999999" data-glyph-descender="-11.54931"/><path d="M5.32-54.63L22.28-54.63L35.88-11.96L50.21-54.63L67.17-54.63L67.17 0L56.11 0L56.11-40.95L41.86 0L29.90 0L16.38-40.95L16.38 0L5.32 0L5.32-54.63Z" transform="translate(275.54524 316.09069) skewX(0)" fill="rgb(25, 25, 25)" stroke="rgb(25, 25, 25)" stroke-width="0.137" data-glyph-w="72.81799" data-glyph-h="81.91" data-glyph-ascender="70.36068999999999" data-glyph-descender="-11.54931"/><path d="M17.20 0L5.57 0L5.57-54.63L17.20-54.63L17.20 0Z" transform="translate(348.36323 316.09069) skewX(0)" fill="rgb(25, 25, 25)" stroke="rgb(25, 25, 25)" stroke-width="0.137" data-glyph-w="22.689069999999997" data-glyph-h="81.91" data-glyph-ascender="70.36068999999999" data-glyph-descender="-11.54931"/><path d="M38.99 0L16.71-40.05L16.71 0L5.57 0L5.57-54.63L20.48-54.63L42.18-13.92L42.18-54.63L53.24-54.63L53.24 0L38.99 0Z" transform="translate(371.0523 316.09069) skewX(0)" fill="rgb(25, 25, 25)" stroke="rgb(25, 25, 25)" stroke-width="0.137" data-glyph-w="58.81138" data-glyph-h="81.91" data-glyph-ascender="70.36068999999999" data-glyph-descender="-11.54931"/><path d="M0-26.05L19.09-26.05L19.09-16.22L0-16.22L0-26.05Z" transform="translate(429.86368 316.09069) skewX(0)" fill="rgb(25, 25, 25)" stroke="rgb(25, 25, 25)" stroke-width="0.137" data-glyph-w="19.08503" data-glyph-h="81.91" data-glyph-ascender="70.36068999999999" data-glyph-descender="-11.54931"/><path d="M35.88-19.09L17.20-19.09L17.20 0L5.57 0L5.57-54.63L32.85-54.63Q40.30-54.63 43.49-53.57L43.49-53.57Q48.90-51.77 52.01-46.12L52.01-46.12Q54.31-41.86 54.31-36.86L54.31-36.86Q54.31-32.68 52.79-28.96Q51.28-25.23 48.57-22.85L48.57-22.85Q46.12-20.72 43.37-19.90Q40.63-19.09 35.88-19.09L35.88-19.09ZM17.20-44.89L17.20-28.83L33.01-28.83Q37.27-28.83 38.99-30.14L38.99-30.14Q41.53-32.19 41.53-37.27L41.53-37.27Q41.53-42.76 37.68-44.31L37.68-44.31Q36.29-44.89 33.26-44.89L33.26-44.89L17.20-44.89Z" transform="translate(448.94871 316.09069) skewX(0)" fill="rgb(25, 25, 25)" stroke="rgb(25, 25, 25)" stroke-width="0.137" data-glyph-w="56.108349999999994" data-glyph-h="81.91" data-glyph-ascender="70.36068999999999" data-glyph-descender="-11.54931"/><path d="M26.54-20.72L17.20-20.72L17.20 0L5.57 0L5.57-54.63L32.27-54.63Q43.74-54.63 48.24-51.69L48.24-51.69Q51.36-49.72 53.04-46.48Q54.72-43.25 54.72-39.40L54.72-39.40Q54.72-31.62 50.78-27.36L50.78-27.36Q48.33-24.82 44.31-23.51L44.31-23.51Q47.51-22.36 49.15-21.09Q50.78-19.82 52.09-17.36L52.09-17.36Q53.08-15.40 53.53-13.60Q53.98-11.80 54.22-8.27L54.22-8.27Q54.72-2.38 55.53 0L55.53 0L42.51 0Q41.94-1.88 41.28-7.78L41.28-7.78Q40.87-12.53 39.60-15.07Q38.33-17.61 35.79-19.09L35.79-19.09Q32.60-20.81 26.54-20.72L26.54-20.72ZM17.20-44.89L17.20-30.47L33.50-30.47Q37.60-30.47 39.32-31.70L39.32-31.70Q41.94-33.50 41.94-38.01L41.94-38.01Q41.94-43.00 38.01-44.40L38.01-44.40Q36.61-44.89 33.50-44.89L33.50-44.89L17.20-44.89Z" transform="translate(505.05706 316.09069) skewX(0)" fill="rgb(25, 25, 25)" stroke="rgb(25, 25, 25)" stroke-width="0.137" data-glyph-w="58.48374" data-glyph-h="81.91" data-glyph-ascender="70.36068999999999" data-glyph-descender="-11.54931"/><path d="M29.57-54.96L29.57-54.96Q37.76-54.96 43.99-52.18L43.99-52.18Q51.28-48.82 54.22-40.95L54.22-40.95Q56.52-34.81 56.52-26.54L56.52-26.54Q56.52-18.18 53.73-12.04L53.73-12.04Q50.21-4.75 42.92-1.80L42.92-1.80Q37.51 0.33 30.47 0.33L30.47 0.33Q21.21 0.33 14.42-3.11L14.42-3.11Q8.68-5.98 5.65-12.12Q2.62-18.27 2.62-27.03L2.62-27.03Q2.62-42.68 10.40-49.31L10.40-49.31Q16.96-54.88 29.57-54.96ZM29.65-45.79L29.65-45.79Q21.62-45.79 18.18-40.55L18.18-40.55Q15.40-36.45 15.40-27.36L15.40-27.36Q15.40-17.77 18.84-13.27L18.84-13.27Q22.28-8.85 29.73-8.85L29.73-8.85Q36.94-8.85 40.34-13.35Q43.74-17.86 43.74-27.28L43.74-27.28Q43.74-35.88 40.95-40.38L40.95-40.38Q37.76-45.71 29.65-45.79Z" transform="translate(563.5408 316.09069) skewX(0)" fill="rgb(25, 25, 25)" stroke="rgb(25, 25, 25)" stroke-width="0.137" data-glyph-w="59.139019999999995" data-glyph-h="81.91" data-glyph-ascender="70.36068999999999" data-glyph-descender="-11.54931"/></g></svg></g></g>  <!----></svg>
