<?xml version="1.0"?>
<svg xmlns="http://www.w3.org/2000/svg" xmlns:xlink="http://www.w3.org/1999/xlink" data-noselect="" viewBox="0 0 800 600" width="1600" height="1200" preserveAspectRatio="none" version="1.1"><defs/> <g id="background" data-noselect=""><rect fill="rgb(2, 15, 33)" width="800" height="600" data-noselect=""/> <!----></g> <g id="shape_SdPXGta28i" transform="translate(40.00000000000006,210.18466311648984) rotate(0,117.15043941327575,89.81533688351206) scale(1,1)" filter="" style="cursor: move; opacity: 1;"><g><svg xmlns="http://www.w3.org/2000/svg" xmlns:xlink="http://www.w3.org/1999/xlink" version="1.1" id="&#x56FE;&#x5C42;_1" x="0px" y="0px" width="234.3008788265515" height="179.63067376702023" viewBox="0 0 30 23" style="enable-background:new 0 0 30 23;" xml:space="preserve" class="style-removed" preserveAspectRatio="none" data-parent="shape_SdPXGta28i">

<g>
	<path d="M29,8.6c0,0-1.1-2.1-2.7-2.7c0,0,0.5,0.7,0.2,1.3c-0.3-0.1-0.7-0.2-1-0.2c-0.9-0.1-1.9-0.1-2.8,0.2   c-0.1,0-0.3,0-0.3-0.2c-0.2-1.4-0.8-2.8-1.8-3.8c-1.2-1.4-3-2.2-4.8-2.3c-1.8-0.1-3.7,0.5-5.1,1.7C9.2,3.8,8.3,5.5,8.2,7.4l1.3,0.1   c0.1-1.5,0.9-2.9,2-3.9c1.1-1,2.7-1.5,4.2-1.4c1.5,0.1,3,0.8,4,1.9c1,1.1,1.6,2.6,1.5,4.1l0,0.1c0,0.5,0.5,0.8,0.9,0.5   c0.9-0.7,2.1-1.1,3.3-1.1C26.7,7.6,27.9,7.9,29,8.6L29,8.6C29,8.6,29,8.6,29,8.6C29,8.6,29,8.6,29,8.6z" fill="#00B1DB" stroke-width="0"/>
	<path d="M21.2,21.3c0.2,0,0.4,0,0.5-0.1c-0.8,0-1.7,0-2.5-0.2c-0.8-0.1-1.6-0.3-2.4-0.6c-0.8-0.3-1.5-0.6-2.2-1   c-0.5-0.3-1-0.6-1.4-1c0.5-0.7,0.9-1.4,1.2-2.3c0.5-1.7,0.4-3.5-0.3-5.1c-0.7-1.6-2-2.9-3.5-3.6C9.1,6.9,7.3,6.8,5.7,7.2   c-1.6,0.5-3,1.5-3.8,2.9l0,0C3,8.9,4.4,8,5.9,7.7c1.5-0.3,3.1,0,4.4,0.7c1.3,0.7,2.3,1.9,2.8,3.2c0.5,1.4,0.5,2.9,0.1,4.2   c-0.4,1.4-1.4,2.5-2.6,3.3c-0.6,0.4-1.3,0.7-2,0.8c-0.7,0.2-1.4,0.2-2.2,0.1c-1.5-0.2-2.9-0.9-3.9-2c-1-1.1-1.7-2.6-1.9-4.2h0   c-0.1,1.6,0.4,3.3,1.4,4.6c1,1.3,2.6,2.3,4.2,2.6c1.7,0.3,3.5,0,5-0.9c0.4-0.2,0.8-0.6,1.2-0.9c0.6,0.4,1.2,0.7,1.8,0.9   c0.8,0.3,1.6,0.6,2.5,0.8c0.3,0,0.5,0.1,0.8,0.1c0.6,0.6,0.2,1.1,0.2,1.1c1.8,0.3,4.1-1.1,4.1-1.1C21.6,21.3,21.4,21.3,21.2,21.3z" fill="#0387D8" stroke-width="0"/>
</g>
</svg></g></g><g id="shape_7X3ibmc2tN" transform="translate(144.2760914995343,269.4145160938006) rotate(0,129.02266045948147,82.8) scale(1,1)" filter="" style="cursor: move; opacity: 1;"><g><svg xmlns="http://www.w3.org/2000/svg" xmlns:xlink="http://www.w3.org/1999/xlink" version="1.1" width="302.9453209189629" height="165.6" viewBox="0 0 302.9453209189629 165.6" data-parent="shape_7X3ibmc2tN"><g data-width="207.23595" transform="translate(22.45, 0)"><line x1="0" x2="207.23595" y1="93.36" y2="93.36" stroke="#FFFFFF" stroke-width="0" stroke-opacity="1"/></g><g data-width="207.23595" transform="translate(22.45, 0)"><path d="M2.40-15.36L7.14-15.36L6.51-10.82L13.40-10.82L12.33-2.85Q12.15-2.20 11.70-1.77Q11.25-1.35 10.60-1.35L10.60-1.35L0.90-1.35L2.83-14.70L2.40-15.36ZM8.87-8.67L6.29-8.67L5.55-3.50L8.10-3.50L8.87-8.67Z" transform="translate(0 89.8) " fill="#000000" stroke="#000000" stroke-width="0.037" stroke-miterlimit="3" data-glyph-w="14.300650000000001" data-glyph-h="29.185000000000002" data-glyph-ascender="22.450000000000003" data-glyph-descender="-6.735"/><path d="M6.94-14.05L6.51-11.47L2.40-11.47L2.63-14.05L6.94-14.05ZM1.55-10.82L6.51-10.82L5.21-1.35L0.90-1.35L2.20-10.19L1.55-10.82Z" transform="translate(14.300650000000001 89.8) " fill="#000000" stroke="#000000" stroke-width="0.037" stroke-miterlimit="3" data-glyph-w="7.835050000000001" data-glyph-h="29.185000000000002" data-glyph-ascender="22.450000000000003" data-glyph-descender="-6.735"/><path d="M1.55-10.82L13.40-10.82L12.10-1.35L7.79-1.35L8.87-8.67L6.29-8.67L5.21-1.35L0.90-1.35L2.20-10.19L1.55-10.82Z" transform="translate(22.1357 89.8) " fill="#000000" stroke="#000000" stroke-width="0.037" stroke-miterlimit="3" data-glyph-w="14.300650000000001" data-glyph-h="29.185000000000002" data-glyph-ascender="22.450000000000003" data-glyph-descender="-6.735"/><path d="M8.98-7.72L8.60-5.43L0.94-5.43L1.30-7.72L8.98-7.72Z" transform="translate(36.436350000000004 89.8) " fill="#000000" stroke="#000000" stroke-width="0.037" stroke-miterlimit="3" data-glyph-w="9.990250000000001" data-glyph-h="29.185000000000002" data-glyph-ascender="22.450000000000003" data-glyph-descender="-6.735"/><path d="M1.55-10.82L6.51-10.82L5.52-4.09L8.22-4.36L9.09-10.19L8.44-10.82L13.40-10.82L12.10-1.35L7.79-1.35L7.92-2.20L0.90-1.35L2.20-10.19L1.55-10.82Z" transform="translate(46.42660000000001 89.8) " fill="#000000" stroke="#000000" stroke-width="0.037" stroke-miterlimit="3" data-glyph-w="14.300650000000001" data-glyph-h="29.185000000000002" data-glyph-ascender="22.450000000000003" data-glyph-descender="-6.735"/><path d="M6.94-14.05L6.51-11.47L2.40-11.47L2.63-14.05L6.94-14.05ZM1.55-10.82L6.51-10.82L5.21-1.35L0.90-1.35L2.20-10.19L1.55-10.82Z" transform="translate(60.72725000000001 89.8) " fill="#000000" stroke="#000000" stroke-width="0.037" stroke-miterlimit="3" data-glyph-w="7.835050000000001" data-glyph-h="29.185000000000002" data-glyph-ascender="22.450000000000003" data-glyph-descender="-6.735"/><path d="M8.98-7.72L8.60-5.43L0.94-5.43L1.30-7.72L8.98-7.72Z" transform="translate(68.56230000000001 89.8) " fill="#000000" stroke="#000000" stroke-width="0.037" stroke-miterlimit="3" data-glyph-w="9.990250000000001" data-glyph-h="29.185000000000002" data-glyph-ascender="22.450000000000003" data-glyph-descender="-6.735"/><path d="M1.55-10.82L13.40-10.82L12.10-1.35L7.79-1.35L8.87-8.67L6.29-8.67L5.21-1.35L0.90-1.35L2.20-10.19L1.55-10.82Z" transform="translate(78.55255000000001 89.8) " fill="#000000" stroke="#000000" stroke-width="0.037" stroke-miterlimit="3" data-glyph-w="14.300650000000001" data-glyph-h="29.185000000000002" data-glyph-ascender="22.450000000000003" data-glyph-descender="-6.735"/><path d="M13.18-10.82L12.33-5.23L5.43-5.23L5.21-3.50L11.25-3.50L12.33-4.36L11.67-1.35L2.20-1.35Q1.55-1.35 1.22-1.77Q0.90-2.20 0.90-2.85L0.90-2.85L1.98-10.82L13.18-10.82ZM8.67-8.67L6.06-8.67L5.86-7.39L8.44-7.39L8.67-8.67Z" transform="translate(92.85320000000002 89.8) " fill="#000000" stroke="#000000" stroke-width="0.037" stroke-miterlimit="3" data-glyph-w="14.07615" data-glyph-h="29.185000000000002" data-glyph-ascender="22.450000000000003" data-glyph-descender="-6.735"/><path d="M2.18-9.97L1.53-10.82L6.06-10.82L7.00-8.82L8.22-10.39L7.99-10.82L12.73-10.82L8.78-6.08L11.45-1.35L7.14-1.35L6.20-3.12L4.53-1.35L0.45-1.35L4.40-6.08L2.18-9.97Z" transform="translate(106.92935000000001 89.8) " fill="#000000" stroke="#000000" stroke-width="0.037" stroke-miterlimit="3" data-glyph-w="13.17815" data-glyph-h="29.185000000000002" data-glyph-ascender="22.450000000000003" data-glyph-descender="-6.735"/><path d="M2.87-10.82L3.05-12.12L2.63-12.77L7.36-12.77L7.07-10.82L9.74-10.82L9.29-8.67L6.80-8.67L6.06-3.50L8.22-3.50L7.79-1.35L3.05-1.35Q2.40-1.35 2.00-1.77Q1.59-2.20 1.75-2.85L1.75-2.85L2.63-8.67L0.90-8.67L1.12-10.82L2.87-10.82Z" transform="translate(120.10750000000002 89.8) " fill="#000000" stroke="#000000" stroke-width="0.037" stroke-miterlimit="3" data-glyph-w="10.192300000000001" data-glyph-h="29.185000000000002" data-glyph-ascender="22.450000000000003" data-glyph-descender="-6.735"/><path d="" transform="translate(130.2998 89.8) " fill="#000000" stroke="#000000" stroke-width="0.037" stroke-miterlimit="3" data-glyph-w="8.9351" data-glyph-h="22.450000000000003" data-glyph-ascender="19.756" data-glyph-descender="-2.694"/><path d="M8.01-6.96L8.35-8.67L6.06-8.67L5.86-7.81L1.55-7.81L2.20-10.82L12.75-10.82L11.45-2.42L12.33-1.35L2.20-1.35Q1.55-1.35 1.22-1.77Q0.90-2.20 0.90-2.85L0.90-2.85L1.55-6.96L8.01-6.96ZM7.59-4.80L5.43-4.80L5.21-3.50L7.36-3.50L7.59-4.80Z" transform="translate(139.2349 89.8) " fill="#000000" stroke="#000000" stroke-width="0.037" stroke-miterlimit="3" data-glyph-w="13.53735" data-glyph-h="29.185000000000002" data-glyph-ascender="22.450000000000003" data-glyph-descender="-6.735"/><path d="M8.87-10.82L9.52-15.36L13.83-15.36L11.90-1.35L2.20-1.35Q1.55-1.35 1.22-1.77Q0.90-2.20 0.90-2.85L0.90-2.85L1.98-10.82L8.87-10.82ZM8.67-8.67L5.95-8.67L5.12-3.50L7.86-3.50L8.67-8.67Z" transform="translate(152.77225 89.8) " fill="#000000" stroke="#000000" stroke-width="0.037" stroke-miterlimit="3" data-glyph-w="14.592500000000001" data-glyph-h="29.185000000000002" data-glyph-ascender="22.450000000000003" data-glyph-descender="-6.735"/><path d="M1.75-10.82L16.84-10.82L15.56-1.35L11.67-1.35L12.75-8.67L11.02-8.67L9.95-1.35L6.51-1.35L7.61-8.67L5.90-8.67L4.78-1.35L0.90-1.35L2.20-10.19L1.75-10.82Z" transform="translate(167.36475000000002 89.8) " fill="#000000" stroke="#000000" stroke-width="0.037" stroke-miterlimit="3" data-glyph-w="17.735500000000002" data-glyph-h="29.185000000000002" data-glyph-ascender="22.450000000000003" data-glyph-descender="-6.735"/><path d="M6.94-14.05L6.51-11.47L2.40-11.47L2.63-14.05L6.94-14.05ZM1.55-10.82L6.51-10.82L5.21-1.35L0.90-1.35L2.20-10.19L1.55-10.82Z" transform="translate(185.10025000000002 89.8) " fill="#000000" stroke="#000000" stroke-width="0.037" stroke-miterlimit="3" data-glyph-w="7.835050000000001" data-glyph-h="29.185000000000002" data-glyph-ascender="22.450000000000003" data-glyph-descender="-6.735"/><path d="M1.55-10.82L13.40-10.82L12.10-1.35L7.79-1.35L8.87-8.67L6.29-8.67L5.21-1.35L0.90-1.35L2.20-10.19L1.55-10.82Z" transform="translate(192.9353 89.8) " fill="#000000" stroke="#000000" stroke-width="0.037" stroke-miterlimit="3" data-glyph-w="14.300650000000001" data-glyph-h="29.185000000000002" data-glyph-ascender="22.450000000000003" data-glyph-descender="-6.735"/></g><g data-width="207.23595" transform="translate(22.45, 0)"><path d="M2.40-15.36L7.14-15.36L6.51-10.82L13.40-10.82L12.33-2.85Q12.15-2.20 11.70-1.77Q11.25-1.35 10.60-1.35L10.60-1.35L0.90-1.35L2.83-14.70L2.40-15.36ZM8.87-8.67L6.29-8.67L5.55-3.50L8.10-3.50L8.87-8.67Z" transform="translate(0 89.8) " fill="rgb(255, 255, 255)" stroke="rgb(255, 255, 255)" stroke-width="0.037" data-glyph-w="14.300650000000001" data-glyph-h="29.185000000000002" data-glyph-ascender="22.450000000000003" data-glyph-descender="-6.735"/><path d="M6.94-14.05L6.51-11.47L2.40-11.47L2.63-14.05L6.94-14.05ZM1.55-10.82L6.51-10.82L5.21-1.35L0.90-1.35L2.20-10.19L1.55-10.82Z" transform="translate(14.300650000000001 89.8) " fill="rgb(255, 255, 255)" stroke="rgb(255, 255, 255)" stroke-width="0.037" data-glyph-w="7.835050000000001" data-glyph-h="29.185000000000002" data-glyph-ascender="22.450000000000003" data-glyph-descender="-6.735"/><path d="M1.55-10.82L13.40-10.82L12.10-1.35L7.79-1.35L8.87-8.67L6.29-8.67L5.21-1.35L0.90-1.35L2.20-10.19L1.55-10.82Z" transform="translate(22.1357 89.8) " fill="rgb(255, 255, 255)" stroke="rgb(255, 255, 255)" stroke-width="0.037" data-glyph-w="14.300650000000001" data-glyph-h="29.185000000000002" data-glyph-ascender="22.450000000000003" data-glyph-descender="-6.735"/><path d="M8.98-7.72L8.60-5.43L0.94-5.43L1.30-7.72L8.98-7.72Z" transform="translate(36.436350000000004 89.8) " fill="rgb(255, 255, 255)" stroke="rgb(255, 255, 255)" stroke-width="0.037" data-glyph-w="9.990250000000001" data-glyph-h="29.185000000000002" data-glyph-ascender="22.450000000000003" data-glyph-descender="-6.735"/><path d="M1.55-10.82L6.51-10.82L5.52-4.09L8.22-4.36L9.09-10.19L8.44-10.82L13.40-10.82L12.10-1.35L7.79-1.35L7.92-2.20L0.90-1.35L2.20-10.19L1.55-10.82Z" transform="translate(46.42660000000001 89.8) " fill="rgb(255, 255, 255)" stroke="rgb(255, 255, 255)" stroke-width="0.037" data-glyph-w="14.300650000000001" data-glyph-h="29.185000000000002" data-glyph-ascender="22.450000000000003" data-glyph-descender="-6.735"/><path d="M6.94-14.05L6.51-11.47L2.40-11.47L2.63-14.05L6.94-14.05ZM1.55-10.82L6.51-10.82L5.21-1.35L0.90-1.35L2.20-10.19L1.55-10.82Z" transform="translate(60.72725000000001 89.8) " fill="rgb(255, 255, 255)" stroke="rgb(255, 255, 255)" stroke-width="0.037" data-glyph-w="7.835050000000001" data-glyph-h="29.185000000000002" data-glyph-ascender="22.450000000000003" data-glyph-descender="-6.735"/><path d="M8.98-7.72L8.60-5.43L0.94-5.43L1.30-7.72L8.98-7.72Z" transform="translate(68.56230000000001 89.8) " fill="rgb(255, 255, 255)" stroke="rgb(255, 255, 255)" stroke-width="0.037" data-glyph-w="9.990250000000001" data-glyph-h="29.185000000000002" data-glyph-ascender="22.450000000000003" data-glyph-descender="-6.735"/><path d="M1.55-10.82L13.40-10.82L12.10-1.35L7.79-1.35L8.87-8.67L6.29-8.67L5.21-1.35L0.90-1.35L2.20-10.19L1.55-10.82Z" transform="translate(78.55255000000001 89.8) " fill="rgb(255, 255, 255)" stroke="rgb(255, 255, 255)" stroke-width="0.037" data-glyph-w="14.300650000000001" data-glyph-h="29.185000000000002" data-glyph-ascender="22.450000000000003" data-glyph-descender="-6.735"/><path d="M13.18-10.82L12.33-5.23L5.43-5.23L5.21-3.50L11.25-3.50L12.33-4.36L11.67-1.35L2.20-1.35Q1.55-1.35 1.22-1.77Q0.90-2.20 0.90-2.85L0.90-2.85L1.98-10.82L13.18-10.82ZM8.67-8.67L6.06-8.67L5.86-7.39L8.44-7.39L8.67-8.67Z" transform="translate(92.85320000000002 89.8) " fill="rgb(255, 255, 255)" stroke="rgb(255, 255, 255)" stroke-width="0.037" data-glyph-w="14.07615" data-glyph-h="29.185000000000002" data-glyph-ascender="22.450000000000003" data-glyph-descender="-6.735"/><path d="M2.18-9.97L1.53-10.82L6.06-10.82L7.00-8.82L8.22-10.39L7.99-10.82L12.73-10.82L8.78-6.08L11.45-1.35L7.14-1.35L6.20-3.12L4.53-1.35L0.45-1.35L4.40-6.08L2.18-9.97Z" transform="translate(106.92935000000001 89.8) " fill="rgb(255, 255, 255)" stroke="rgb(255, 255, 255)" stroke-width="0.037" data-glyph-w="13.17815" data-glyph-h="29.185000000000002" data-glyph-ascender="22.450000000000003" data-glyph-descender="-6.735"/><path d="M2.87-10.82L3.05-12.12L2.63-12.77L7.36-12.77L7.07-10.82L9.74-10.82L9.29-8.67L6.80-8.67L6.06-3.50L8.22-3.50L7.79-1.35L3.05-1.35Q2.40-1.35 2.00-1.77Q1.59-2.20 1.75-2.85L1.75-2.85L2.63-8.67L0.90-8.67L1.12-10.82L2.87-10.82Z" transform="translate(120.10750000000002 89.8) " fill="rgb(255, 255, 255)" stroke="rgb(255, 255, 255)" stroke-width="0.037" data-glyph-w="10.192300000000001" data-glyph-h="29.185000000000002" data-glyph-ascender="22.450000000000003" data-glyph-descender="-6.735"/><path d="" transform="translate(130.2998 89.8) " fill="rgb(255, 255, 255)" stroke="rgb(255, 255, 255)" stroke-width="0.037" data-glyph-w="8.9351" data-glyph-h="22.450000000000003" data-glyph-ascender="19.756" data-glyph-descender="-2.694"/><path d="M8.01-6.96L8.35-8.67L6.06-8.67L5.86-7.81L1.55-7.81L2.20-10.82L12.75-10.82L11.45-2.42L12.33-1.35L2.20-1.35Q1.55-1.35 1.22-1.77Q0.90-2.20 0.90-2.85L0.90-2.85L1.55-6.96L8.01-6.96ZM7.59-4.80L5.43-4.80L5.21-3.50L7.36-3.50L7.59-4.80Z" transform="translate(139.2349 89.8) " fill="rgb(255, 255, 255)" stroke="rgb(255, 255, 255)" stroke-width="0.037" data-glyph-w="13.53735" data-glyph-h="29.185000000000002" data-glyph-ascender="22.450000000000003" data-glyph-descender="-6.735"/><path d="M8.87-10.82L9.52-15.36L13.83-15.36L11.90-1.35L2.20-1.35Q1.55-1.35 1.22-1.77Q0.90-2.20 0.90-2.85L0.90-2.85L1.98-10.82L8.87-10.82ZM8.67-8.67L5.95-8.67L5.12-3.50L7.86-3.50L8.67-8.67Z" transform="translate(152.77225 89.8) " fill="rgb(255, 255, 255)" stroke="rgb(255, 255, 255)" stroke-width="0.037" data-glyph-w="14.592500000000001" data-glyph-h="29.185000000000002" data-glyph-ascender="22.450000000000003" data-glyph-descender="-6.735"/><path d="M1.75-10.82L16.84-10.82L15.56-1.35L11.67-1.35L12.75-8.67L11.02-8.67L9.95-1.35L6.51-1.35L7.61-8.67L5.90-8.67L4.78-1.35L0.90-1.35L2.20-10.19L1.75-10.82Z" transform="translate(167.36475000000002 89.8) " fill="rgb(255, 255, 255)" stroke="rgb(255, 255, 255)" stroke-width="0.037" data-glyph-w="17.735500000000002" data-glyph-h="29.185000000000002" data-glyph-ascender="22.450000000000003" data-glyph-descender="-6.735"/><path d="M6.94-14.05L6.51-11.47L2.40-11.47L2.63-14.05L6.94-14.05ZM1.55-10.82L6.51-10.82L5.21-1.35L0.90-1.35L2.20-10.19L1.55-10.82Z" transform="translate(185.10025000000002 89.8) " fill="rgb(255, 255, 255)" stroke="rgb(255, 255, 255)" stroke-width="0.037" data-glyph-w="7.835050000000001" data-glyph-h="29.185000000000002" data-glyph-ascender="22.450000000000003" data-glyph-descender="-6.735"/><path d="M1.55-10.82L13.40-10.82L12.10-1.35L7.79-1.35L8.87-8.67L6.29-8.67L5.21-1.35L0.90-1.35L2.20-10.19L1.55-10.82Z" transform="translate(192.9353 89.8) " fill="rgb(255, 255, 255)" stroke="rgb(255, 255, 255)" stroke-width="0.037" data-glyph-w="14.300650000000001" data-glyph-h="29.185000000000002" data-glyph-ascender="22.450000000000003" data-glyph-descender="-6.735"/></g></svg></g></g><g id="shape_TGhCTApbWy" transform="translate(98.88641082393809,61.10261396165902) rotate(0,364.9317945880309,251) scale(1,1)" filter="" style="cursor: move; opacity: 1;"><g><svg xmlns="http://www.w3.org/2000/svg" xmlns:xlink="http://www.w3.org/1999/xlink" version="1.1" width="867.3635891760619" height="502" viewBox="0 0 867.3635891760619 502"><g data-width="591.6625" transform="translate(68.75, 0)"><line x1="0" x2="591.6625" y1="283.64" y2="283.64" stroke="#FFFFFF" stroke-width="0" stroke-opacity="1"/></g><g data-width="591.6625" transform="translate(68.75, 0)"><path d="M5.71-43.04L49.98-43.04L47.99-27.23L44-24.61L47.30-21.93L45.31-8.73Q44.83-6.74 43.45-5.43Q42.08-4.13 40.08-4.13L40.08-4.13L3.09-4.13L7.70-40.43L5.71-43.04ZM36.09-36.44L20.28-36.44L19.59-27.91L34.79-27.91L36.09-36.44ZM34.10-21.31L18.29-21.31L16.98-10.73L32.79-10.73L34.10-21.31Z" transform="translate(0 275) " fill="#000000" stroke="#000000" stroke-width="0.115" stroke-miterlimit="3" data-glyph-w="53.075" data-glyph-h="89.37500000000001" data-glyph-ascender="68.75" data-glyph-descender="-20.625"/><path d="M6.05-43.04L21.93-43.04L15.95-4.13L3.44-4.13L8.04-40.43L6.05-43.04Z" transform="translate(53.075 275) " fill="#000000" stroke="#000000" stroke-width="0.115" stroke-miterlimit="3" data-glyph-w="25.368750000000002" data-glyph-h="89.37500000000001" data-glyph-ascender="68.75" data-glyph-descender="-20.625"/><path d="M5.71-43.04L21.59-43.04L35.41-18.63L38.71-43.04L49.98-43.04L44.69-4.13L31.49-4.13L18.29-27.91L14.99-4.13L3.09-4.13L8.39-40.43L5.71-43.04Z" transform="translate(78.44375000000001 275) " fill="#000000" stroke="#000000" stroke-width="0.115" stroke-miterlimit="3" data-glyph-w="53.075" data-glyph-h="89.37500000000001" data-glyph-ascender="68.75" data-glyph-descender="-20.625"/><path d="M27.50-23.65L26.33-16.64L2.89-16.64L3.99-23.65L27.50-23.65Z" transform="translate(131.51875 275) " fill="#000000" stroke="#000000" stroke-width="0.115" stroke-miterlimit="3" data-glyph-w="30.593750000000004" data-glyph-h="89.37500000000001" data-glyph-ascender="68.75" data-glyph-descender="-20.625"/><path d="M16.16-43.04L43.24-43.04L48.47-4.13L36.64-4.13L35.27-14.71L18.77-14.71L14.16-4.13L2.96-4.13L18.15-41.11L16.16-43.04ZM32.66-36.44L28.05-36.44L21.45-21.31L34.65-21.31L32.66-36.44Z" transform="translate(162.1125 275) " fill="#000000" stroke="#000000" stroke-width="0.115" stroke-miterlimit="3" data-glyph-w="51.425000000000004" data-glyph-h="89.37500000000001" data-glyph-ascender="68.75" data-glyph-descender="-20.625"/><path d="M5.71-43.04L49.98-43.04L45.31-8.73Q45.31-6.74 43.69-5.43Q42.08-4.13 40.08-4.13L40.08-4.13L3.09-4.13L7.70-40.43L5.71-43.04ZM36.78-36.44L20.90-36.44L16.98-10.73L32.79-10.73L36.78-36.44Z" transform="translate(213.53750000000002 275) " fill="#000000" stroke="#000000" stroke-width="0.115" stroke-miterlimit="3" data-glyph-w="53.075" data-glyph-h="89.37500000000001" data-glyph-ascender="68.75" data-glyph-descender="-20.625"/><path d="M5.71-43.04L22.89-43.04L30.18-18.63L44-43.04L57.89-43.04L52.59-4.13L40.70-4.13L44-24.61L33.48-6.74L22.89-6.74L17.60-23.93L14.99-4.13L3.09-4.13L8.39-40.43L5.71-43.04Z" transform="translate(266.6125 275) " fill="#000000" stroke="#000000" stroke-width="0.115" stroke-miterlimit="3" data-glyph-w="60.98125" data-glyph-h="89.37500000000001" data-glyph-ascender="68.75" data-glyph-descender="-20.625"/><path d="M6.05-43.04L21.93-43.04L15.95-4.13L3.44-4.13L8.04-40.43L6.05-43.04Z" transform="translate(327.59375 275) " fill="#000000" stroke="#000000" stroke-width="0.115" stroke-miterlimit="3" data-glyph-w="25.368750000000002" data-glyph-h="89.37500000000001" data-glyph-ascender="68.75" data-glyph-descender="-20.625"/><path d="M5.71-43.04L21.59-43.04L35.41-18.63L38.71-43.04L49.98-43.04L44.69-4.13L31.49-4.13L18.29-27.91L14.99-4.13L3.09-4.13L8.39-40.43L5.71-43.04Z" transform="translate(352.9625 275) " fill="#000000" stroke="#000000" stroke-width="0.115" stroke-miterlimit="3" data-glyph-w="53.075" data-glyph-h="89.37500000000001" data-glyph-ascender="68.75" data-glyph-descender="-20.625"/><path d="M27.50-23.65L26.33-16.64L2.89-16.64L3.99-23.65L27.50-23.65Z" transform="translate(406.03749999999997 275) " fill="#000000" stroke="#000000" stroke-width="0.115" stroke-miterlimit="3" data-glyph-w="30.593750000000004" data-glyph-h="89.37500000000001" data-glyph-ascender="68.75" data-glyph-descender="-20.625"/><path d="M5.71-43.04L48.61-43.04L45.99-21.93Q45.44-19.94 43.83-18.63Q42.21-17.33 40.70-17.33L40.70-17.33L17.60-17.33L15.61-4.13L3.09-4.13L7.70-41.11L5.71-43.04ZM34.79-36.44L20.28-36.44L18.91-23.93L32.79-23.93L34.79-36.44Z" transform="translate(436.63124999999997 275) " fill="#000000" stroke="#000000" stroke-width="0.115" stroke-miterlimit="3" data-glyph-w="51.35625" data-glyph-h="89.37500000000001" data-glyph-ascender="68.75" data-glyph-descender="-20.625"/><path d="M5.71-43.04L48.61-43.04L45.99-23.24Q45.99-22.28 45.55-21.42Q45.10-20.56 44.34-19.94Q43.59-19.32 42.66-18.98Q41.73-18.63 40.70-18.63L40.70-18.63L32.11-18.63L45.99-4.13L31.49-4.13L18.29-18.63L16.29-4.13L3.09-4.13L7.70-40.43L5.71-43.04ZM34.79-36.44L20.28-36.44L18.91-25.23L33.48-25.23L34.79-36.44Z" transform="translate(487.98749999999995 275) " fill="#000000" stroke="#000000" stroke-width="0.115" stroke-miterlimit="3" data-glyph-w="51.7" data-glyph-h="89.37500000000001" data-glyph-ascender="68.75" data-glyph-descender="-20.625"/><path d="M7.84-43.04L44.83-43.04Q45.79-43.04 46.61-42.69Q47.44-42.35 48.02-41.73Q48.61-41.11 48.81-40.29Q49.02-39.46 48.74-38.43L48.74-38.43L44.14-4.13L7.15-4.13Q6.19-4.13 5.36-4.47Q4.54-4.81 3.95-5.43Q3.37-6.05 3.16-6.91Q2.96-7.77 3.23-8.73L3.23-8.73L7.84-43.04ZM35.54-36.44L19.73-36.44L16.43-10.73L31.63-10.73L35.54-36.44Z" transform="translate(539.6875 275) " fill="#000000" stroke="#000000" stroke-width="0.115" stroke-miterlimit="3" data-glyph-w="51.975" data-glyph-h="89.37500000000001" data-glyph-ascender="68.75" data-glyph-descender="-20.625"/></g><g data-width="591.6625" transform="translate(68.75, 0)"><path d="M5.71-43.04L49.98-43.04L47.99-27.23L44-24.61L47.30-21.93L45.31-8.73Q44.83-6.74 43.45-5.43Q42.08-4.13 40.08-4.13L40.08-4.13L3.09-4.13L7.70-40.43L5.71-43.04ZM36.09-36.44L20.28-36.44L19.59-27.91L34.79-27.91L36.09-36.44ZM34.10-21.31L18.29-21.31L16.98-10.73L32.79-10.73L34.10-21.31Z" transform="translate(0 275) " fill="#FFFFFF" stroke="#FFFFFF" stroke-width="0.115" data-glyph-w="53.075" data-glyph-h="89.37500000000001" data-glyph-ascender="68.75" data-glyph-descender="-20.625"/><path d="M6.05-43.04L21.93-43.04L15.95-4.13L3.44-4.13L8.04-40.43L6.05-43.04Z" transform="translate(53.075 275) " fill="#FFFFFF" stroke="#FFFFFF" stroke-width="0.115" data-glyph-w="25.368750000000002" data-glyph-h="89.37500000000001" data-glyph-ascender="68.75" data-glyph-descender="-20.625"/><path d="M5.71-43.04L21.59-43.04L35.41-18.63L38.71-43.04L49.98-43.04L44.69-4.13L31.49-4.13L18.29-27.91L14.99-4.13L3.09-4.13L8.39-40.43L5.71-43.04Z" transform="translate(78.44375000000001 275) " fill="#FFFFFF" stroke="#FFFFFF" stroke-width="0.115" data-glyph-w="53.075" data-glyph-h="89.37500000000001" data-glyph-ascender="68.75" data-glyph-descender="-20.625"/><path d="M27.50-23.65L26.33-16.64L2.89-16.64L3.99-23.65L27.50-23.65Z" transform="translate(131.51875 275) " fill="#FFFFFF" stroke="#FFFFFF" stroke-width="0.115" data-glyph-w="30.593750000000004" data-glyph-h="89.37500000000001" data-glyph-ascender="68.75" data-glyph-descender="-20.625"/><path d="M16.16-43.04L43.24-43.04L48.47-4.13L36.64-4.13L35.27-14.71L18.77-14.71L14.16-4.13L2.96-4.13L18.15-41.11L16.16-43.04ZM32.66-36.44L28.05-36.44L21.45-21.31L34.65-21.31L32.66-36.44Z" transform="translate(162.1125 275) " fill="#FFFFFF" stroke="#FFFFFF" stroke-width="0.115" data-glyph-w="51.425000000000004" data-glyph-h="89.37500000000001" data-glyph-ascender="68.75" data-glyph-descender="-20.625"/><path d="M5.71-43.04L49.98-43.04L45.31-8.73Q45.31-6.74 43.69-5.43Q42.08-4.13 40.08-4.13L40.08-4.13L3.09-4.13L7.70-40.43L5.71-43.04ZM36.78-36.44L20.90-36.44L16.98-10.73L32.79-10.73L36.78-36.44Z" transform="translate(213.53750000000002 275) " fill="#FFFFFF" stroke="#FFFFFF" stroke-width="0.115" data-glyph-w="53.075" data-glyph-h="89.37500000000001" data-glyph-ascender="68.75" data-glyph-descender="-20.625"/><path d="M5.71-43.04L22.89-43.04L30.18-18.63L44-43.04L57.89-43.04L52.59-4.13L40.70-4.13L44-24.61L33.48-6.74L22.89-6.74L17.60-23.93L14.99-4.13L3.09-4.13L8.39-40.43L5.71-43.04Z" transform="translate(266.6125 275) " fill="#FFFFFF" stroke="#FFFFFF" stroke-width="0.115" data-glyph-w="60.98125" data-glyph-h="89.37500000000001" data-glyph-ascender="68.75" data-glyph-descender="-20.625"/><path d="M6.05-43.04L21.93-43.04L15.95-4.13L3.44-4.13L8.04-40.43L6.05-43.04Z" transform="translate(327.59375 275) " fill="#FFFFFF" stroke="#FFFFFF" stroke-width="0.115" data-glyph-w="25.368750000000002" data-glyph-h="89.37500000000001" data-glyph-ascender="68.75" data-glyph-descender="-20.625"/><path d="M5.71-43.04L21.59-43.04L35.41-18.63L38.71-43.04L49.98-43.04L44.69-4.13L31.49-4.13L18.29-27.91L14.99-4.13L3.09-4.13L8.39-40.43L5.71-43.04Z" transform="translate(352.9625 275) " fill="#FFFFFF" stroke="#FFFFFF" stroke-width="0.115" data-glyph-w="53.075" data-glyph-h="89.37500000000001" data-glyph-ascender="68.75" data-glyph-descender="-20.625"/><path d="M27.50-23.65L26.33-16.64L2.89-16.64L3.99-23.65L27.50-23.65Z" transform="translate(406.03749999999997 275) " fill="#FFFFFF" stroke="#FFFFFF" stroke-width="0.115" data-glyph-w="30.593750000000004" data-glyph-h="89.37500000000001" data-glyph-ascender="68.75" data-glyph-descender="-20.625"/><path d="M5.71-43.04L48.61-43.04L45.99-21.93Q45.44-19.94 43.83-18.63Q42.21-17.33 40.70-17.33L40.70-17.33L17.60-17.33L15.61-4.13L3.09-4.13L7.70-41.11L5.71-43.04ZM34.79-36.44L20.28-36.44L18.91-23.93L32.79-23.93L34.79-36.44Z" transform="translate(436.63124999999997 275) " fill="#FFFFFF" stroke="#FFFFFF" stroke-width="0.115" data-glyph-w="51.35625" data-glyph-h="89.37500000000001" data-glyph-ascender="68.75" data-glyph-descender="-20.625"/><path d="M5.71-43.04L48.61-43.04L45.99-23.24Q45.99-22.28 45.55-21.42Q45.10-20.56 44.34-19.94Q43.59-19.32 42.66-18.98Q41.73-18.63 40.70-18.63L40.70-18.63L32.11-18.63L45.99-4.13L31.49-4.13L18.29-18.63L16.29-4.13L3.09-4.13L7.70-40.43L5.71-43.04ZM34.79-36.44L20.28-36.44L18.91-25.23L33.48-25.23L34.79-36.44Z" transform="translate(487.98749999999995 275) " fill="#FFFFFF" stroke="#FFFFFF" stroke-width="0.115" data-glyph-w="51.7" data-glyph-h="89.37500000000001" data-glyph-ascender="68.75" data-glyph-descender="-20.625"/><path d="M7.84-43.04L44.83-43.04Q45.79-43.04 46.61-42.69Q47.44-42.35 48.02-41.73Q48.61-41.11 48.81-40.29Q49.02-39.46 48.74-38.43L48.74-38.43L44.14-4.13L7.15-4.13Q6.19-4.13 5.36-4.47Q4.54-4.81 3.95-5.43Q3.37-6.05 3.16-6.91Q2.96-7.77 3.23-8.73L3.23-8.73L7.84-43.04ZM35.54-36.44L19.73-36.44L16.43-10.73L31.63-10.73L35.54-36.44Z" transform="translate(539.6875 275) " fill="#FFFFFF" stroke="#FFFFFF" stroke-width="0.115" data-glyph-w="51.975" data-glyph-h="89.37500000000001" data-glyph-ascender="68.75" data-glyph-descender="-20.625"/></g></svg></g></g>  <!----></svg>
