<?xml version="1.0"?>
<svg xmlns="http://www.w3.org/2000/svg" xmlns:xlink="http://www.w3.org/1999/xlink" data-noselect="" viewBox="0 0 800 600" width="1600" height="1200" preserveAspectRatio="none" version="1.1"><defs/> <g id="background" data-noselect=""><rect fill="#ffffff" width="800" height="600" data-noselect=""/> <!----></g> <g id="shape_BwJcYnEnBE" transform="translate(356.68384135505846,222.25395393371502) rotate(0,49.475871313675,49.475871313675) scale(1,1)" filter="" style="cursor: move; opacity: 1;"><g><svg xmlns="http://www.w3.org/2000/svg" xmlns:xlink="http://www.w3.org/1999/xlink" version="1.1" id="&#x56FE;&#x5C42;_1" x="0px" y="0px" width="86.63230338645302" height="98.95174262735" viewBox="2.5205726623535156 0.9727122783660889 77.49693298339844 88.51728820800781" style="enable-background:new 0 0 82 91;" xml:space="preserve" class="style-removed" preserveAspectRatio="none" data-parent="shape_BwJcYnEnBE">

<g>
	<g>
		<g>
			<g>
				<defs>
					<path id="SVGID_1_" d="M42.36,15.21c3.68-3.87,12.41-10.56,29.28-11.21c1.34-0.05,2.57,0.76,3.01,2.02       c2.12,6.12,0.74,23.93-8.59,31.68c0.7,2.36,0.97,4.65,0.92,6.83c-0.02,0.73-0.07,1.45-0.16,2.16       c-21.72,3.6-31.85-6.31-35.55-9.54c-3.51-3.9-5.89-4.38-9.57-3.02c-1.38,0.51-2.68,1.23-3.88,2.09       C6.29,44.5,3.39,43.9,3.39,43.9l-0.04,0c0.55-4.55,1.73-8.39,3.35-11.62c0.6-1.19,1.25-2.3,1.96-3.33       c2.76-3.33,5.54-5.54,7.58-6.94c0.57-0.39,3.2-2.18,7.06-3.82c2.05-0.87,3.86-1.46,5.26-1.85c-0.25,0.3-3.09,3.71-2.49,5.65       c0.63,2.02,2.84,0.57,6.61-6.39c0.77-0.11,1.51-0.19,2.22-0.26l0,0.04c0,0-3.3,5.18-3.03,6.81c0.15,0.88,2.62,3.49,6.95-7.06       C40.01,15.15,41.19,15.18,42.36,15.21z M50.04,30.28c0-4.15-3.79-7.13-7.43-7.43c-4.27-0.35-8.79,2.96-8.83,7.35       c-0.04,4.44,4.52,7.85,8.83,7.51C46.25,37.42,50.04,34.43,50.04,30.28z" data-ignorecolor="" stroke-width="0"/>
				</defs>
				<use xlink:href="#SVGID_1_" overflow="visible" fill="#E59658" stroke-width="0"/>
				<clipPath id="SVGID_2_">
					<use xlink:href="#SVGID_1_" overflow="visible" data-ignorecolor=""/>
				</clipPath>
				<g clip-path="url(#SVGID_2_)">
					<path d="M77.4,1.67c-0.38-0.71-14.84,11.79-18.72,25.09c0,0,9.34,9.35,9.44,17.27       C77.27,26.64,77.96,2.71,77.4,1.67z" fill="#F4CBBB" stroke-width="0"/>
				</g>
			</g>
			<g>
				<path d="M19.27,83.29c-3.13-2.29-5.91-5.22-8.22-8.64h0c0.02-0.29,0.06-0.57,0.09-0.85      c1.03,1.54,5.04,1.74,4.41,0.64c-0.63-1.1-4.13-2.05-4.13-2.05l-0.03-0.01c0.14-0.65,0.31-1.26,0.49-1.82h0      c0.61,1.34,5.69,2.2,4.24,0.6c-1.45-1.59-3.75-1.9-3.75-1.9c1.23-2.89,2.85-4.33,2.85-4.33c6.06,3.35,23.41,5.96,35.83,1.06      c7.9-3.11,14.04-9.62,15.56-17.97c0.08-0.44,0.15-0.88,0.2-1.33c0.09-0.71,0.14-1.43,0.16-2.16c0.24,1.9,0.37,3.86,0.37,5.84      c0,17.96-10.18,33.04-23.93,37.24c0,0-0.71-10.39-5.54-14.75c-1.85-1.67-4.47-2.19-6.85-1.46c-9.13,2.78-7.71,14.38-7.71,14.38      C21.91,85.06,20.56,84.23,19.27,83.29z" fill="#E59658" stroke-width="0"/>
			</g>
			<g>
				<path d="M66.81,46.7c-0.05,0.45-0.12,0.89-0.2,1.33C65.09,56.38,58.95,62.88,51.05,66      c-12.43,4.9-29.77,2.29-35.83-1.06c-4.67-2.58-9.54-8.71-11.3-14.78v0c-0.58-1.98-0.82-3.96-0.62-5.8      c0.02-0.15,0.04-0.3,0.05-0.46l0.04,0c0,0,2.9,0.6,14.43-7.67c1.2-0.86,2.5-1.57,3.88-2.09c3.68-1.36,6.05-0.88,9.57,3.02      C34.96,40.39,45.1,50.3,66.81,46.7z M27.4,36.18c0.07-0.8-1.06-1.59-2.06-1.74c-1.07-0.16-2.38,0.34-2.51,1.08      c-0.07,0.42,0.11,0.81,0.44,1.21c0.27,0.33,0.7,0.87,1.43,0.99c0.68,0.11,1.33-0.29,1.58-0.43      C26.58,37.12,27.35,36.78,27.4,36.18z" fill="#FFFFFF" stroke-width="0"/>
			</g>
			<g>
				<path d="M42.61,22.85c3.64,0.3,7.43,3.28,7.43,7.43s-3.79,7.14-7.43,7.43c-4.31,0.34-8.88-3.07-8.83-7.51      C33.82,25.81,38.34,22.5,42.61,22.85z M45.66,29.43c0-2.43-1.97-4.4-4.4-4.4s-4.4,1.97-4.4,4.4s1.97,4.4,4.4,4.4      S45.66,31.86,45.66,29.43z" fill="#FFFFFF" stroke-width="0"/>
			</g>
			<g>
				<path d="M41.27,25.04c2.43,0,4.4,1.97,4.4,4.4s-1.97,4.4-4.4,4.4s-4.4-1.97-4.4-4.4S38.84,25.04,41.27,25.04z" fill="#311709" stroke-width="0"/>
			</g>
			<g>
				<path d="M37.88,72.86c4.83,4.36,5.54,14.75,5.54,14.75c-2.49,0.76-5.1,1.17-7.79,1.17c-4.37,0-8.53-1.07-12.32-3.01      c0,0-1.41-11.6,7.71-14.38C33.41,70.67,36.02,71.19,37.88,72.86z" fill="#FFFFFF" stroke-width="0"/>
			</g>
			<g>
				<path d="M34.9,15.33c1.48-0.14,2.81-0.2,3.93-0.21c-4.33,10.55-6.81,7.94-6.95,7.06c-0.27-1.62,3.03-6.81,3.03-6.81      L34.9,15.33z" fill="#9D612E" stroke-width="0"/>
			</g>
			<g>
				<path d="M31.86,15.71c0.28-0.04,0.55-0.08,0.82-0.12c-3.77,6.97-5.98,8.42-6.61,6.39c-0.6-1.93,2.24-5.35,2.49-5.65      C29.7,16.08,30.8,15.87,31.86,15.71z" fill="#9D612E" stroke-width="0"/>
			</g>
			<g>
				<path d="M15.42,22.08c-1.89,1.36-3.68,2.99-5.28,4.93c-0.51,0.62-1.01,1.28-1.48,1.97      c-0.71,1.03-1.36,2.14-1.96,3.33h0C1.71,20.41,11.78,0.87,17.05,1.73c5.26,0.87,14.81,14.01,14.81,14.01      c-1.06,0.16-2.16,0.37-3.29,0.63c-3.71,0.85-7.72,2.25-11.45,4.58C16.55,21.3,15.98,21.68,15.42,22.08z" fill="#E59658" stroke-width="0"/>
			</g>
			<g>
				<path d="M25.35,34.44c1,0.15,2.13,0.94,2.06,1.74c-0.05,0.61-0.82,0.94-1.12,1.11c-0.25,0.14-0.89,0.53-1.58,0.43      c-0.73-0.12-1.16-0.66-1.43-0.99c-0.33-0.4-0.51-0.79-0.44-1.21C22.96,34.78,24.27,34.28,25.35,34.44z" fill="#311709" stroke-width="0"/>
			</g>
			<g>
				<path d="M16.12,71.17c1.45,1.59-3.63,0.73-4.24-0.6h0c0.15-0.46,0.32-0.89,0.49-1.3      C12.37,69.27,14.66,69.58,16.12,71.17z" fill="#9D612E" stroke-width="0"/>
			</g>
			<g>
				<path d="M15.55,74.44c0.63,1.1-3.37,0.9-4.41-0.64c0.06-0.49,0.15-0.96,0.24-1.42l0.03,0.01      C11.42,72.39,14.92,73.34,15.55,74.44z" fill="#9D612E" stroke-width="0"/>
			</g>
			<g>
				<path d="M15.22,65.07c0,0-1.69,1.51-2.99,4.54c-0.18,0.42-0.36,0.88-0.52,1.36c-0.2,0.59-0.37,1.23-0.52,1.91      c-0.1,0.47-0.19,0.97-0.26,1.49c-0.04,0.29-0.07,0.59-0.1,0.89h0c-4.68-6.94-7.49-15.81-7.49-25.48c0-0.08,0-0.16,0-0.24      C5.21,55.92,10.32,62.36,15.22,65.07z" fill="#E66453" stroke-width="0"/>
			</g>
		</g>
		<g>
			<path d="M14.38,2.62C12.5,4.36,11,6.33,9.78,8.41C8.8,8.46,9.45,9.37,8.66,10.62c-0.34,0.54-1.04,1.28-0.83,1.78     c-3.9,9.62-1.78,17.99-1.78,17.99s-0.81,3.78,1.69-0.68C6.62,24.69,7.32,18.49,9.85,13.6c0.95,0.02,1.61-0.53,2.03-1.63     c0.24-0.64,0.21-2.03-0.56-2.68C12.86,5.31,14.38,2.62,14.38,2.62z" fill="#F3E5DF" stroke-width="0"/>
		</g>
		<g>
			<ellipse cx="12.28" cy="13.86" rx="0.52" ry="0.73" fill="#F3E5DF" stroke-width="0"/>
		</g>
		<g>
			<path d="M68.9,9.48c0,0-8.95,11.83-2.44,27.27C63.67,32.24,59,25.97,59,25.97S60.3,19.34,68.9,9.48z" fill="#E8AC93" stroke-width="0"/>
		</g>
		<g>
			<path d="M45.12,12.69c0,0,14.51-7.13,25.55-6.94c-1.25,2.12-5.13,10.48-6.01,13.94c4.77-8.25,9.79-14.47,9.79-14.47     s-5.91-5.49-29.55,7.23L45.12,12.69z" fill="#F3E5DF" stroke-width="0"/>
		</g>
		<g>
			<path d="M17.05,1.7c0,0,5.31,6.74,7.45,10.93c0.61,1.96-6.56,6.69-7.38,8.28c3.96-1.91,11.95-5.31,14.44-5.16     C29.45,12.2,20.36,1.13,17.05,1.7z" fill="#B67A48" stroke-width="0"/>
		</g>
		<g>
			<path d="M16.48,65.56c0,0,6.2,5.69,23.96,6.4c3.68,0.15,6.98,2.39,8.43,5.77c1.1,2.57,1.63,5.33,1.46,6.68     c2.91-2.1,7.11-5.38,9.45-9.15c2.34-3.77,5.69-10.76,6.39-14.54C66.88,56.94,63,56.9,63,56.9s-6.42,9.19-17.13,10.62     C34.93,68.7,28.25,69.87,16.48,65.56z" fill="#B67A48" stroke-width="0"/>
		</g>
	</g>
	<g>
		<circle cx="39.97" cy="30.28" r="1.3" fill="#FFFFFF" stroke-width="0"/>
	</g>
</g>
<g>
	<path d="M4.39,51.58c0,0,25.34,27.04,59.91,3.02c-4.68,6.03-7.44,12.71-28.02,14.09   C18.89,67.13,12.33,67.79,4.39,51.58z" fill="#EFE8D5" stroke-width="0"/>
</g>
<g>
	<g>
		<path d="M34.89,69.4c-1.38,0-2.78-0.05-4.19-0.15c-6.42-0.44-12.48-1.86-15.82-3.71C9.9,62.8,5,56.41,3.24,50.35    c-0.11-0.37,0.11-0.76,0.48-0.87c0.37-0.11,0.76,0.11,0.87,0.48c1.66,5.73,6.28,11.78,10.97,14.37    c6.27,3.46,23.53,5.64,35.24,1.02c8.06-3.18,13.72-9.7,15.13-17.44c0.08-0.45,0.15-0.87,0.19-1.28c0.09-0.69,0.14-1.4,0.16-2.1    c0.05-2.22-0.24-4.44-0.89-6.61c-1.92-6.47-6.9-12.52-14.81-17.99c-0.32-0.22-0.4-0.66-0.18-0.97c0.22-0.32,0.66-0.4,0.97-0.18    c8.17,5.66,13.34,11.97,15.35,18.75c0.68,2.3,1,4.67,0.94,7.04c-0.02,0.75-0.08,1.5-0.17,2.23c-0.05,0.43-0.12,0.88-0.21,1.37    c-1.5,8.22-7.47,15.14-15.99,18.5C46.73,68.45,41.01,69.4,34.89,69.4z" fill="#311709" stroke-width="0"/>
	</g>
	<g>
		<path d="M3.92,50.85c-0.29,0-0.57-0.19-0.67-0.48c-0.41-1.24-0.65-2.52-0.71-3.81c-0.06-1.12,0.03-2.02,0.12-2.75    c0.21-1.67,0.86-6.74,3.42-11.85c0.6-1.19,1.27-2.34,2-3.41c0.48-0.7,0.99-1.38,1.52-2.02c1.56-1.89,3.38-3.59,5.41-5.05    c0.55-0.4,1.14-0.79,1.73-1.16c3.36-2.09,7.28-3.66,11.66-4.66c1.09-0.25,2.22-0.46,3.34-0.64c0.28-0.04,0.56-0.08,0.84-0.12    c0.75-0.1,1.5-0.19,2.25-0.26c1.32-0.12,2.66-0.2,3.98-0.22c2.03-0.03,3.35,0.07,3.6,0.1c0.36,0.03,0.65,0.33,0.65,0.7    c0,0.39-0.31,0.7-0.7,0.7l-0.06,0c-0.24-0.02-1.49-0.12-3.46-0.09c-1.29,0.02-2.59,0.09-3.87,0.21c-0.73,0.07-1.46,0.15-2.19,0.25    c-0.27,0.04-0.54,0.08-0.81,0.12c-1.09,0.17-2.18,0.38-3.24,0.62c-4.22,0.97-8,2.48-11.23,4.49c-0.57,0.36-1.13,0.73-1.66,1.11    c-1.94,1.39-3.67,3.01-5.15,4.81c-0.5,0.61-0.99,1.26-1.45,1.93c-0.7,1.02-1.34,2.11-1.91,3.25c-2.45,4.9-3.07,9.79-3.28,11.4    c-0.09,0.7-0.17,1.5-0.11,2.51c0.06,1.16,0.28,2.32,0.65,3.44C4.7,50.3,4.5,50.7,4.14,50.82C4.06,50.84,3.99,50.85,3.92,50.85z" fill="#311709" stroke-width="0"/>
	</g>
	<g>
		<path d="M6.7,32.98c-0.27,0-0.53-0.16-0.65-0.43c-3.77-8.98,0.78-22.07,5.51-28.06c2.01-2.55,3.95-3.75,5.6-3.48    c5.48,0.9,14.87,13.74,15.27,14.29c0.23,0.31,0.16,0.75-0.15,0.98c-0.31,0.23-0.75,0.16-0.98-0.15    C28.68,12.53,21.02,3.06,16.93,2.39c-1.07-0.18-2.67,0.93-4.27,2.97C8.15,11.08,3.79,23.52,7.35,32c0.15,0.36-0.02,0.77-0.37,0.92    C6.88,32.96,6.79,32.98,6.7,32.98z" fill="#311709" stroke-width="0"/>
	</g>
	<g>
		<path d="M66.06,38.41c-0.2,0-0.4-0.09-0.54-0.25c-0.25-0.3-0.21-0.74,0.09-0.99c9.23-7.67,10.35-25.24,8.38-30.91    c-0.33-0.95-1.29-1.59-2.32-1.55c-16.58,0.64-25.16,7.16-28.8,10.99c-1.45,1.52-2.09,2.6-2.09,2.61c-0.2,0.33-0.62,0.45-0.96,0.25    c-0.33-0.19-0.45-0.62-0.25-0.96c0.03-0.05,0.71-1.22,2.29-2.87c3.78-3.98,12.68-10.77,29.76-11.42c1.65-0.07,3.17,0.96,3.7,2.49    c1.2,3.46,1.21,9.72,0.02,15.6c-1.49,7.37-4.62,13.36-8.83,16.85C66.38,38.36,66.22,38.41,66.06,38.41z" fill="#311709" stroke-width="0"/>
	</g>
	<g>
		<path d="M63.58,22.88c-0.09,0-0.17-0.02-0.26-0.05c-0.36-0.14-0.54-0.55-0.39-0.91c3.68-9.29,10.49-16.85,10.78-17.17    c0.26-0.29,0.7-0.31,0.99-0.05c0.29,0.26,0.31,0.7,0.05,0.99c-0.07,0.08-6.93,7.69-10.51,16.74    C64.13,22.71,63.86,22.88,63.58,22.88z" fill="#311709" stroke-width="0"/>
	</g>
	<g>
		<path d="M11.05,75.35c-0.02,0-0.04,0-0.06,0c-0.39-0.03-0.67-0.37-0.64-0.76c0.02-0.28,0.05-0.56,0.09-0.88    c0.07-0.5,0.15-0.99,0.25-1.47c0.14-0.64,0.31-1.28,0.51-1.9c0.15-0.45,0.32-0.91,0.51-1.35c1.28-2.99,2.95-4.51,3.02-4.57    c0.29-0.26,0.73-0.23,0.99,0.06c0.26,0.29,0.23,0.73-0.05,0.99c-0.03,0.03-1.53,1.41-2.67,4.08c-0.18,0.41-0.33,0.83-0.47,1.24    c-0.19,0.57-0.35,1.15-0.47,1.75c-0.1,0.45-0.17,0.9-0.23,1.36c-0.04,0.29-0.07,0.56-0.09,0.82    C11.72,75.08,11.41,75.35,11.05,75.35z" fill="#311709" stroke-width="0"/>
	</g>
	<g>
		<path d="M3.92,51.08c-0.39,0-0.7-0.31-0.7-0.7c0-0.08,0-0.16,0-0.24c0.01-0.38,0.33-0.68,0.71-0.68    c0.38,0,0.69,0.32,0.69,0.7l0,0.02c0,0.07,0,0.14,0,0.21C4.62,50.77,4.3,51.08,3.92,51.08z" fill="#311709" stroke-width="0"/>
	</g>
	<g>
		<path d="M35.63,89.49c-4.38,0-8.64-1.04-12.64-3.08c-1.42-0.72-2.81-1.58-4.13-2.55c-3.2-2.34-6.02-5.3-8.39-8.81    c-0.22-0.32-0.13-0.76,0.19-0.97c0.32-0.22,0.76-0.13,0.97,0.19c2.27,3.37,4.98,6.22,8.05,8.46c1.26,0.92,2.59,1.74,3.94,2.43    c3.81,1.94,7.84,2.93,12,2.93c2.57,0,5.12-0.38,7.58-1.14C57,82.73,66.64,67.69,66.64,50.38c0-1.93-0.12-3.87-0.36-5.76    l-0.02-0.17c-0.05-0.38,0.22-0.73,0.61-0.78c0.38-0.05,0.73,0.22,0.78,0.61l0.02,0.17c0.25,1.94,0.37,3.94,0.37,5.93    c0,8.86-2.39,17.21-6.92,24.16c-4.41,6.76-10.62,11.65-17.5,13.75C41.02,89.08,38.33,89.49,35.63,89.49z" fill="#311709" stroke-width="0"/>
	</g>
	<g>
		<path d="M19.27,83.99c-0.34,0-0.63-0.24-0.69-0.59c-0.88-5.34,0.85-12.61,0.92-12.92c0.09-0.38,0.47-0.61,0.84-0.52    c0.38,0.09,0.61,0.47,0.52,0.84c-0.02,0.07-1.73,7.3-0.9,12.36c0.06,0.38-0.2,0.74-0.58,0.8C19.34,83.99,19.31,83.99,19.27,83.99z    " fill="#311709" stroke-width="0"/>
	</g>
	<g>
		<path d="M24.95,38.43c-0.12,0-0.23-0.01-0.35-0.03c-0.96-0.15-1.52-0.82-1.82-1.18l-0.04-0.04    c-0.5-0.6-0.7-1.18-0.6-1.78c0.21-1.2,1.92-1.87,3.31-1.66c1.37,0.21,2.76,1.26,2.65,2.49c-0.08,0.92-0.95,1.38-1.37,1.61    c-0.04,0.02-0.07,0.04-0.1,0.06l-0.04,0.02C26.3,38.08,25.68,38.43,24.95,38.43z M24.92,35.11c-0.74,0-1.37,0.37-1.4,0.53    c-0.01,0.07-0.04,0.25,0.29,0.64l0.04,0.05c0.23,0.28,0.52,0.63,0.96,0.7c0.4,0.06,0.86-0.19,1.08-0.32l0.04-0.02    c0.04-0.02,0.08-0.05,0.13-0.07c0.52-0.27,0.63-0.42,0.64-0.49l0,0c0.02-0.25-0.64-0.86-1.47-0.99    C25.13,35.11,25.03,35.11,24.92,35.11z" fill="#311709" stroke-width="0"/>
	</g>
	<g>
		<path d="M27.56,44.51c-0.06,0-0.12,0-0.17,0c-1.08-0.04-1.95-0.43-2.59-1.16c-1.21-1.39-1.18-3.66-1.05-4.89    c0.04-0.38,0.38-0.67,0.77-0.63c0.38,0.04,0.66,0.38,0.63,0.77c-0.08,0.81-0.18,2.8,0.72,3.83c0.38,0.43,0.89,0.66,1.58,0.68    c0.37,0.01,0.74-0.04,1.11-0.15c0.11-0.03,0.22-0.07,0.33-0.12c0.3-0.13,0.6-0.33,0.92-0.6l1.16-1.01    c0.29-0.25,0.73-0.22,0.99,0.07c0.25,0.29,0.22,0.73-0.07,0.99l-1.17,1.01c-0.42,0.36-0.84,0.63-1.26,0.82    c-0.16,0.07-0.33,0.13-0.49,0.18C28.5,44.44,28.03,44.51,27.56,44.51z" fill="#311709" stroke-width="0"/>
	</g>
	<g>
		<path d="M24.45,39.14c-0.03,0-0.05,0-0.08,0c-0.38-0.04-0.66-0.39-0.62-0.77c0.05-0.43,0.1-0.7,0.11-0.71    c0.08-0.38,0.45-0.62,0.82-0.55c0.38,0.08,0.62,0.45,0.55,0.82h0c0,0-0.05,0.23-0.09,0.59C25.11,38.88,24.8,39.14,24.45,39.14z" fill="#311709" stroke-width="0"/>
	</g>
	<g>
		<path d="M21.47,43.38c-0.54,0-1.07-0.16-1.55-0.46c-0.71-0.46-1.19-1.19-1.33-2.02l-0.05-0.31    c-0.06-0.38,0.19-0.74,0.57-0.81c0.38-0.06,0.74,0.19,0.81,0.57l0.05,0.31c0.07,0.44,0.33,0.83,0.71,1.07    c0.35,0.23,0.76,0.3,1.16,0.19c1.44-0.38,1.82-2.76,1.91-3.48l0-0.03c0-0.02,0-0.05,0.01-0.07c0.02-0.2,0.03-0.34,0.03-0.34    c0.01-0.39,0.34-0.69,0.72-0.67c0.39,0.01,0.69,0.34,0.67,0.72c0,0.02-0.01,0.19-0.04,0.46l-0.01,0.09    c-0.14,1.2-0.71,4.08-2.94,4.67C21.96,43.35,21.71,43.38,21.47,43.38z" fill="#311709" stroke-width="0"/>
	</g>
	<g>
		<path d="M43.41,88.32c-0.36,0-0.67-0.28-0.7-0.65c-0.01-0.1-0.75-10.16-5.31-14.28c-1.63-1.47-4-1.98-6.18-1.31    c-3.52,1.07-5.8,3.66-6.79,7.69C23.67,82.85,24,85.67,24,85.7c0.05,0.38-0.23,0.73-0.61,0.78c-0.38,0.05-0.73-0.23-0.78-0.61    c-0.02-0.12-0.36-3.06,0.45-6.4c1.09-4.5,3.77-7.52,7.76-8.74c2.65-0.81,5.53-0.19,7.53,1.61c4.98,4.5,5.74,14.79,5.77,15.23    c0.03,0.39-0.26,0.72-0.65,0.75C43.45,88.32,43.43,88.32,43.41,88.32z" fill="#311709" stroke-width="0"/>
	</g>
</g>
<g>
	<path d="M21.57,42.78c-0.06-0.18,1.85-0.71,2.34-1.71c0.52,0.55,1.05,1.99,2.23,2.54   C25.62,44.68,22.96,47.09,21.57,42.78z" fill="#311709" stroke-width="0"/>
</g>
<g>
	<path d="M21.79,43.24c0,0,3.06-0.51,4.13,1.02C24.8,45.64,22.61,47.66,21.79,43.24z" fill="#E66453" stroke-width="0"/>
</g>
<g>
	<path d="M23.7,46.35c-0.19,0-0.38-0.02-0.58-0.07c-0.76-0.19-1.38-0.75-1.7-1.52c-0.4-0.99-0.38-1.86-0.38-1.9   c0.01-0.29,0.25-0.52,0.54-0.51c0.29,0.01,0.52,0.25,0.51,0.54c0,0.02-0.01,0.7,0.3,1.47c0.19,0.46,0.55,0.79,0.98,0.9   c0.41,0.1,0.83,0,1.18-0.28c0.71-0.58,1.24-1.37,1.25-1.38c0.16-0.24,0.49-0.3,0.73-0.14c0.24,0.16,0.31,0.49,0.14,0.73   c-0.03,0.04-0.62,0.93-1.45,1.61C24.78,46.16,24.24,46.35,23.7,46.35z" fill="#311709" stroke-width="0"/>
</g>
<g>
	<g>
		<g>
			<path d="M78.71,58.12c0.42,0.11,0.67,0.54,0.56,0.96l-0.59,2.27c-0.11,0.42-0.54,0.67-0.96,0.56l-1.6-0.41     l-22.81-5.91l-0.99-0.26c-0.42-0.11-0.67-0.54-0.57-0.96l0.59-2.27c0.11-0.42,0.54-0.67,0.96-0.56l1.23,0.32l21.89,5.67     L78.71,58.12z" fill="#FFFFFF" stroke-width="0"/>
		</g>
		<g>
			<path d="M77.09,37.74c0.21,0.73-0.01,1.33-0.08,1.52c-1.53,0.56-3.06,1.12-4.59,1.68c-0.59,0.22-1.06,0.67-1.3,1.26     c-0.11,0.28-0.22,0.55-0.33,0.82c-0.1,0.24-0.05,0.51,0.1,0.72c0,0,0,0,0,0l0,0c0.1,0.14,0.14,0.27,0.1,0.38     c-0.13,0.4-1.13,0.45-2.24,0.1c-1.11-0.35-1.9-0.96-1.78-1.37c0.04-0.11,0.14-0.2,0.3-0.26c0,0,0,0,0,0     c0.28-0.1,0.52-0.29,0.65-0.55l1.06-2.13c0.23-0.47,0.63-0.84,1.11-1.05l5.83-2.53C76.07,36.41,76.82,36.83,77.09,37.74z" fill="#CD4B3B" stroke-width="0"/>
		</g>
		<g>
			<path d="M70.89,43.75c4.62,2.37,7.14,7.69,5.79,12.93c-0.07,0.29-0.16,0.57-0.26,0.85l-21.89-5.67     c0.05-0.29,0.11-0.58,0.19-0.87c1.46-5.64,6.92-9.19,12.56-8.39c-0.16,0.06-0.27,0.14-0.3,0.26c-0.13,0.4,0.67,1.02,1.78,1.37     c1.11,0.35,2.11,0.31,2.24-0.1C71.03,44.02,70.99,43.89,70.89,43.75z" fill="#FFFFFF" stroke-width="0"/>
		</g>
		<g>
			<polygon points="53.32,55.59 76.13,61.5 75.32,63.73 75.28,63.71 52.93,57.93 52.91,57.92    " fill="#FFFFFF" stroke-width="0"/>
		</g>
		<g>
			<path d="M75.32,63.73l-8.34,23.03c-0.26,0.72-1.03,1.13-1.77,0.93l-15.4-3.99c-0.75-0.19-1.23-0.93-1.09-1.7     l4.19-24.08l0.02,0l22.35,5.78L75.32,63.73z M66.2,84.76l4.97-14c-1.08-0.66-2.74-1.47-4.87-1.72c-2.94-0.35-4.34,0.68-6.76,0.45     c-1.61-0.16-3.87-0.89-6.44-3.59l-2.44,14.85c-0.12,0.76,0.35,1.49,1.1,1.68l12.67,3.28C65.17,85.9,65.94,85.49,66.2,84.76z" fill="#FFFFFF" stroke-width="0"/>
		</g>
		<g>
			<path d="M71.61,69.52l-5.06,13.9c-0.26,0.73-1.03,1.14-1.78,0.94l-12.67-3.28c-0.75-0.19-1.22-0.92-1.1-1.68     l2.44-14.85c2.57,2.7,4.83,3.44,6.44,3.59c2.42,0.23,3.81-0.8,6.76-0.45C68.77,67.95,70.54,68.87,71.61,69.52z" fill="#CD4B3B" stroke-width="0"/>
		</g>
		<g>
			<path d="M71.17,70.76l-4.97,14c-0.26,0.73-1.03,1.14-1.78,0.94l-12.67-3.28c-0.75-0.19-1.22-0.92-1.1-1.68L53.1,65.9     c2.57,2.7,4.83,3.44,6.44,3.59c2.42,0.23,3.81-0.8,6.76-0.45C68.42,69.29,70.09,70.11,71.17,70.76z" fill="#E66453" stroke-width="0"/>
		</g>
	</g>
	<g>
		<g>
			<path d="M77.93,62.64c-0.12,0-0.25-0.02-0.37-0.05l-1.6-0.41l-23.8-6.16c-0.38-0.1-0.71-0.34-0.91-0.68     c-0.2-0.34-0.26-0.74-0.16-1.13l0.59-2.27c0.21-0.79,1.02-1.27,1.81-1.07l1.23,0.32l24.18,6.26c0.38,0.1,0.71,0.34,0.91,0.69     c0.2,0.34,0.26,0.74,0.16,1.13l-0.59,2.26C79.19,62.19,78.59,62.64,77.93,62.64z M53.11,52.22c-0.04,0-0.07,0.03-0.09,0.07     l-0.59,2.26c-0.01,0.03,0,0.05,0.01,0.06c0.01,0.01,0.02,0.03,0.05,0.04l0.99,0.26l24.41,6.32c0.05,0.01,0.09-0.02,0.1-0.06     l0.59-2.27c0.01-0.02,0-0.05-0.01-0.07c-0.01-0.02-0.03-0.03-0.05-0.04l-25.4-6.58C53.13,52.22,53.12,52.22,53.11,52.22z" fill="#311709" stroke-width="0"/>
		</g>
		<g>
			<path d="M76.43,58.23c-0.08,0-0.15-0.01-0.23-0.04c-0.37-0.13-0.56-0.53-0.43-0.89c0.09-0.26,0.17-0.53,0.24-0.8     c1.24-4.78-1.05-9.88-5.43-12.13c-0.34-0.18-0.48-0.6-0.3-0.94c0.18-0.34,0.6-0.48,0.94-0.3c2.39,1.23,4.33,3.26,5.45,5.72     c1.14,2.5,1.39,5.34,0.7,8.01c-0.08,0.31-0.17,0.61-0.27,0.91C76.99,58.05,76.72,58.23,76.43,58.23z" fill="#311709" stroke-width="0"/>
		</g>
		<g>
			<path d="M54.53,52.56c-0.04,0-0.08,0-0.12-0.01c-0.38-0.07-0.64-0.43-0.57-0.81c0.05-0.3,0.12-0.61,0.2-0.93     c1.54-5.94,7.27-9.77,13.34-8.91c0.38,0.05,0.65,0.41,0.59,0.79c-0.05,0.38-0.41,0.65-0.79,0.59     c-5.36-0.76-10.42,2.62-11.78,7.87c-0.07,0.28-0.13,0.55-0.18,0.81C55.16,52.32,54.87,52.56,54.53,52.56z" fill="#311709" stroke-width="0"/>
		</g>
		<g>
			<path d="M65.59,88.44c-0.18,0-0.37-0.02-0.55-0.07l-15.4-3.99c-1.1-0.28-1.8-1.38-1.61-2.49l4.6-26.41     c0.07-0.38,0.43-0.64,0.81-0.57c0.38,0.07,0.64,0.43,0.57,0.81l-4.6,26.41c-0.07,0.4,0.18,0.8,0.58,0.9l15.4,3.99     c0.4,0.1,0.8-0.11,0.94-0.5l9.14-25.26c0.13-0.36,0.53-0.55,0.9-0.42c0.36,0.13,0.55,0.53,0.42,0.9l-9.14,25.26     C67.32,87.88,66.49,88.44,65.59,88.44z" fill="#311709" stroke-width="0"/>
		</g>
		<g>
			<path d="M70.13,45.16c-0.51,0-1.08-0.11-1.59-0.27c-1.23-0.39-2.56-1.21-2.24-2.24c0.05-0.17,0.19-0.44,0.56-0.63     L66.89,42l0.17-0.06c0.07-0.02,0.2-0.08,0.25-0.2l1.06-2.13c0.31-0.62,0.82-1.11,1.46-1.38l6.13-2.66l0.3,0.15     c0.27,0.14,1.17,0.69,1.51,1.82c0.25,0.87,0.04,1.62-0.11,1.98l-0.12,0.29l-0.29,0.11c-0.89,0.33-1.79,0.66-2.68,0.98l-1.9,0.7     c-0.4,0.15-0.73,0.46-0.89,0.86c-0.08,0.19-0.15,0.38-0.23,0.57l-0.11,0.26c0,0,0,0,0,0.01l0.15,0.14l0,0.12     c0.16,0.34,0.12,0.63,0.07,0.78C71.47,44.95,70.86,45.16,70.13,45.16z M67.92,43.07c0.22,0.15,0.56,0.33,1.05,0.49     c0.49,0.16,0.89,0.2,1.15,0.2c-0.11-0.32-0.11-0.67,0.02-0.99l0.11-0.26c0.08-0.19,0.15-0.37,0.23-0.56     c0.31-0.77,0.93-1.37,1.71-1.65l1.9-0.7c0.79-0.29,1.57-0.58,2.36-0.87c0.05-0.21,0.06-0.48-0.03-0.79     c-0.11-0.39-0.36-0.65-0.55-0.81l-5.48,2.38c-0.33,0.14-0.6,0.4-0.76,0.72l-1.06,2.13C68.42,42.65,68.2,42.89,67.92,43.07z" fill="#311709" stroke-width="0"/>
		</g>
		<g>
			<path d="M75.28,64.41c-0.06,0-0.12-0.01-0.18-0.02L52.75,58.6c-0.37-0.1-0.6-0.48-0.5-0.85     c0.1-0.37,0.48-0.6,0.85-0.5l22.35,5.78c0.37,0.1,0.6,0.48,0.5,0.85C75.87,64.2,75.59,64.41,75.28,64.41z" fill="#311709" stroke-width="0"/>
		</g>
	</g>
	<g>
		<path d="M59.81,50.85c0,0,5.68,2.95,13.22,4.43C69.81,52.65,59.81,50.85,59.81,50.85z" fill="#EFE8D5" stroke-width="0"/>
	</g>
	<g>
		<g>
			<path d="M64.95,70.26c0.78-3.1,3.47-5.9,6.03-6.63c-2.97-0.67-7.07,2.79-8.06,6.74c-1.04,4.13,1.17,9.35,4.29,9.84     c0.56,0.09,1.13,0.02,1.68-0.18C65.96,79.23,63.96,74.24,64.95,70.26z" fill="#FFFFFF" stroke-width="0"/>
		</g>
		<g>
			<path d="M52.23,62.49c0.19-1.41,1.09-3.01,2.31-3.65c-0.27-0.12-0.56-0.18-0.86-0.19c-1.79-0.04-3.23,2.11-3.48,3.94     c-0.27,2.01,0.74,4.62,2.59,4.94c0.52,0.09,1.05-0.01,1.55-0.24C52.81,66.64,51.98,64.32,52.23,62.49z" fill="#FFFFFF" stroke-width="0"/>
		</g>
		<g>
			<path d="M74.36,72.31c0.52-3.08-0.28-7.6-2.99-8.57c-0.13-0.05-0.26-0.08-0.39-0.11c-2.56,0.74-5.25,3.53-6.03,6.63     c-1,3.97,1.01,8.97,3.95,9.76C71.47,79.13,73.81,75.56,74.36,72.31z" fill="#EFE8D5" stroke-width="0"/>
		</g>
		<g>
			<path d="M56.96,63.46c0.19-1.87-0.91-4-2.42-4.63c-1.22,0.64-2.12,2.24-2.31,3.65c-0.25,1.83,0.57,4.16,2.12,4.8     C55.68,66.67,56.8,65.07,56.96,63.46z" fill="#EFE8D5" stroke-width="0"/>
		</g>
	</g>
	<g>
		<g>
			<path d="M53.19,68.27c-0.17,0-0.34-0.01-0.51-0.05c-2.27-0.4-3.49-3.34-3.16-5.73c0.3-2.21,2.03-4.55,4.13-4.55     c0.02,0,0.04,0,0.06,0c0.92,0.02,1.83,0.48,2.56,1.3c1.02,1.14,1.55,2.79,1.4,4.28v0c-0.15,1.49-1,2.99-2.22,3.91     C54.73,67.99,53.94,68.27,53.19,68.27z M53.64,59.35c-1.31,0-2.52,1.75-2.74,3.34c-0.23,1.68,0.62,3.91,2.02,4.16     c0.52,0.09,1.11-0.09,1.68-0.52c0.9-0.68,1.56-1.84,1.67-2.94l0,0c0.11-1.1-0.31-2.36-1.06-3.21c-0.47-0.53-1.01-0.82-1.54-0.83     C53.66,59.35,53.65,59.35,53.64,59.35z M56.96,63.46L56.96,63.46L56.96,63.46z" fill="#311709" stroke-width="0"/>
		</g>
		<g>
			<path d="M67.7,80.94c-0.2,0-0.39-0.01-0.59-0.05c-1.29-0.2-2.52-1.09-3.46-2.51c-1.53-2.3-2.08-5.52-1.41-8.19     c0.66-2.65,2.73-5.29,5.14-6.57c1.49-0.8,2.99-0.99,4.22-0.55c3.23,1.16,3.96,6.27,3.44,9.35C74.36,76.56,71.08,80.94,67.7,80.94     z M70.22,64.25c-0.67,0-1.41,0.21-2.18,0.62c-2.08,1.11-3.86,3.39-4.44,5.68c-0.57,2.27-0.08,5.12,1.21,7.08     c0.72,1.08,1.61,1.76,2.51,1.9c0.13,0.02,0.26,0.03,0.38,0.03c2.58,0,5.37-3.88,5.96-7.35v0c0.52-3.07-0.4-7.03-2.54-7.8     C70.85,64.3,70.55,64.25,70.22,64.25z" fill="#311709" stroke-width="0"/>
		</g>
	</g>
</g>
<g>
	<path d="M20.46,29.42c-0.23,0-0.45-0.11-0.58-0.31c-0.11-0.16-2.78-3.94-8.45-2.02c-0.37,0.12-0.76-0.07-0.89-0.44   c-0.12-0.37,0.07-0.76,0.44-0.89c3.04-1.03,5.39-0.61,7.05,0.17c-1.84-1.78-4.18-1.71-4.32-1.7c-0.39,0.02-0.71-0.28-0.73-0.67   c-0.02-0.39,0.28-0.71,0.66-0.73c0.06,0,5.7-0.21,7.48,5.69c0.1,0.33-0.06,0.69-0.37,0.84C20.67,29.4,20.56,29.42,20.46,29.42z" fill="#311709" stroke-width="0"/>
</g>
</svg></g></g><g id="shape_9E1o3FQheA" transform="translate(93,161.74604606628498) rotate(0,343.178,189) scale(1,1)" filter="" style="cursor: move; opacity: 1;"><g><svg xmlns="http://www.w3.org/2000/svg" xmlns:xlink="http://www.w3.org/1999/xlink" version="1.1" width="722" height="378" viewBox="0 0 722 378" data-parent="shape_9E1o3FQheA"><g data-width="505.7099999999999" transform="translate(54.14500000000004, 0)"><path d="M7.88-13.12L7.88-9.13L37.85-9.13Q38.66-9.13 39.28-9.72Q39.91-10.31 39.91-11.12L39.91-11.12Q39.91-11.99 39.28-12.55Q38.66-13.12 37.85-13.12L37.85-13.12L7.88-13.12ZM37.85-22.30L7.88-22.30L7.88-18.31L37.91-18.31Q38.72-18.31 39.31-18.85Q39.91-19.39 39.91-20.25L39.91-20.25Q39.91-21.06 39.28-21.68Q38.66-22.30 37.85-22.30L37.85-22.30ZM37.64-3.94L5.29-3.94Q4.21-3.94 3.46-4.70Q2.70-5.45 2.70-6.53L2.70-6.53L2.70-24.89Q2.70-25.97 3.46-26.73Q4.21-27.49 5.29-27.49L5.29-27.49L37.64-27.49Q39.15-27.49 40.47-26.92Q41.80-26.35 42.80-25.38Q43.79-24.41 44.36-23.09Q44.93-21.76 44.93-20.25L44.93-20.25Q44.93-18.90 44.47-17.74Q44.01-16.58 43.25-15.66L43.25-15.66Q44.01-14.74 44.47-13.58Q44.93-12.42 44.93-11.12L44.93-11.12Q44.93-9.61 44.36-8.32Q43.79-7.02 42.80-6.05Q41.80-5.08 40.47-4.51Q39.15-3.94 37.64-3.94L37.64-3.94Z" transform="translate(0 206) " fill="rgb(25, 25, 25)" stroke="rgb(25, 25, 25)" stroke-width="0.09" data-glyph-w="47.628" data-glyph-h="51.3" data-glyph-ascender="43.2" data-glyph-descender="-8.1"/><path d="M7.88-24.89L7.88-6.53Q7.88-5.45 7.13-4.70Q6.37-3.94 5.29-3.94L5.29-3.94Q4.21-3.94 3.46-4.70Q2.70-5.45 2.70-6.53L2.70-6.53L2.70-24.89Q2.70-25.97 3.46-26.73Q4.21-27.49 5.29-27.49L5.29-27.49Q6.37-27.49 7.13-26.73Q7.88-25.97 7.88-24.89L7.88-24.89Z" transform="translate(47.628 206) " fill="rgb(25, 25, 25)" stroke="rgb(25, 25, 25)" stroke-width="0.09" data-glyph-w="10.584" data-glyph-h="51.3" data-glyph-ascender="43.2" data-glyph-descender="-8.1"/><path d="M39.47-14.26L39.47-24.89Q39.47-25.97 40.23-26.73Q40.99-27.49 42.07-27.49L42.07-27.49Q43.15-27.49 43.90-26.73Q44.66-25.97 44.66-24.89L44.66-24.89L44.66-9.18Q44.66-6.97 43.17-5.45Q41.69-3.94 39.47-3.94L39.47-3.94Q38.72-3.94 37.99-4.16Q37.26-4.37 36.67-4.75L36.67-4.75L11.93-19.87Q10.91-20.47 10.23-20.82Q9.56-21.17 9.13-21.17L9.13-21.17Q8.32-21.17 8.10-20.14Q7.88-19.12 7.88-17.17L7.88-17.17L7.88-6.53Q7.88-5.45 7.13-4.70Q6.37-3.94 5.29-3.94L5.29-3.94Q4.21-3.94 3.46-4.70Q2.70-5.45 2.70-6.53L2.70-6.53L2.70-22.25Q2.70-24.46 4.18-25.97Q5.67-27.49 7.88-27.49L7.88-27.49Q8.64-27.49 9.37-27.27Q10.10-27.05 10.69-26.68L10.69-26.68L35.42-11.56Q36.45-10.96 37.13-10.61Q37.80-10.26 38.23-10.26L38.23-10.26Q39.04-10.26 39.26-11.29Q39.47-12.31 39.47-14.26L39.47-14.26Z" transform="translate(58.212 206) " fill="rgb(25, 25, 25)" stroke="rgb(25, 25, 25)" stroke-width="0.09" data-glyph-w="47.358" data-glyph-h="51.3" data-glyph-ascender="43.2" data-glyph-descender="-8.1"/><path d="M5.29-18.31L21.28-18.31Q22.36-18.31 23.11-17.55Q23.87-16.79 23.87-15.71L23.87-15.71Q23.87-14.63 23.11-13.88Q22.36-13.12 21.28-13.12L21.28-13.12L5.08-13.12Q4.10-13.23 3.40-13.96Q2.70-14.69 2.70-15.71L2.70-15.71Q2.70-16.79 3.46-17.55Q4.21-18.31 5.29-18.31L5.29-18.31Z" transform="translate(105.57 206) " fill="rgb(25, 25, 25)" stroke="rgb(25, 25, 25)" stroke-width="0.09" data-glyph-w="26.568" data-glyph-h="51.3" data-glyph-ascender="43.2" data-glyph-descender="-8.1"/><path d="M18.68-9.77L18.68-9.77Q18.68-11.18 19.66-12.15Q20.63-13.12 22.03-13.12L22.03-13.12Q23.44-13.12 24.41-12.15Q25.38-11.18 25.38-9.77L25.38-9.77Q25.38-8.37 24.41-7.40Q23.44-6.43 22.03-6.43L22.03-6.43Q20.63-6.43 19.66-7.40Q18.68-8.37 18.68-9.77ZM19.98-21.76L7.29-4.91Q6.48-3.94 5.29-3.94L5.29-3.94Q4.21-3.94 3.46-4.70Q2.70-5.45 2.70-6.53L2.70-6.53Q2.70-7.51 3.24-8.10L3.24-8.10L16.36-25.76Q17.28-27 18.79-27.78Q20.30-28.57 22.03-28.57L22.03-28.57Q23.65-28.57 25.11-27.86Q26.57-27.16 27.49-25.92L27.49-25.92L40.61-8.37Q40.93-7.99 41.15-7.53Q41.36-7.07 41.36-6.53L41.36-6.53Q41.36-5.45 40.61-4.70Q39.85-3.94 38.77-3.94L38.77-3.94Q37.48-3.94 36.72-4.97L36.72-4.97L24.14-21.76Q23.76-22.19 23.19-22.71Q22.63-23.22 22.03-23.22L22.03-23.22Q21.44-23.22 20.87-22.71Q20.30-22.19 19.98-21.76L19.98-21.76Z" transform="translate(132.138 206) " fill="rgb(25, 25, 25)" stroke="rgb(25, 25, 25)" stroke-width="0.09" data-glyph-w="44.064" data-glyph-h="51.3" data-glyph-ascender="43.2" data-glyph-descender="-8.1"/><path d="M7.88-9.13L35.64-9.13Q37.48-9.13 38.66-9.80Q39.85-10.48 40.53-11.45Q41.20-12.42 41.45-13.58Q41.69-14.74 41.69-15.71L41.69-15.71Q41.69-16.69 41.45-17.85Q41.20-19.01 40.53-19.98Q39.85-20.95 38.66-21.63Q37.48-22.30 35.64-22.30L35.64-22.30L5.29-22.30Q4.21-22.30 3.46-23.06Q2.70-23.81 2.70-24.89L2.70-24.89Q2.70-25.97 3.46-26.73Q4.21-27.49 5.29-27.49L5.29-27.49L36.77-27.49Q39.10-27.49 40.93-26.41Q42.77-25.33 44.06-23.63Q45.36-21.92 46.03-19.84Q46.71-17.77 46.71-15.71L46.71-15.71Q46.71-13.72 46.06-11.66Q45.41-9.61 44.20-7.94Q42.98-6.26 41.26-5.16Q39.53-4.05 37.31-3.94L37.31-3.94L5.29-3.94Q4.21-3.94 3.46-4.70Q2.70-5.45 2.70-6.53L2.70-6.53L2.70-15.71Q2.70-16.79 3.46-17.55Q4.21-18.31 5.29-18.31L5.29-18.31Q6.37-18.31 7.13-17.55Q7.88-16.79 7.88-15.71L7.88-15.71L7.88-9.13Z" transform="translate(176.202 206) " fill="rgb(25, 25, 25)" stroke="rgb(25, 25, 25)" stroke-width="0.09" data-glyph-w="49.41" data-glyph-h="51.3" data-glyph-ascender="43.2" data-glyph-descender="-8.1"/><path d="M48.28-22.30L48.28-6.53Q48.28-5.45 47.52-4.70Q46.76-3.94 45.68-3.94L45.68-3.94Q44.60-3.94 43.85-4.70Q43.09-5.45 43.09-6.53L43.09-6.53L43.09-18.31Q43.09-20.52 42.82-20.52L42.82-20.52Q42.61-20.52 41.31-19.06L41.31-19.06L29.43-5.56Q28.73-4.75 27.70-4.35Q26.68-3.94 25.49-3.94L25.49-3.94Q24.30-3.94 23.27-4.35Q22.25-4.75 21.55-5.56L21.55-5.56L9.67-19.06Q8.42-20.52 8.15-20.52L8.15-20.52Q7.88-20.52 7.88-18.31L7.88-18.31L7.88-6.53Q7.88-5.45 7.13-4.70Q6.37-3.94 5.29-3.94L5.29-3.94Q4.21-3.94 3.46-4.70Q2.70-5.45 2.70-6.53L2.70-6.53L2.70-22.30Q2.70-24.46 3.94-25.97Q5.18-27.49 7.34-27.49L7.34-27.49Q8.64-27.49 9.67-26.84Q10.69-26.19 11.56-25.27L11.56-25.27L23.98-11.12Q24.25-10.85 24.65-10.56Q25.06-10.26 25.49-10.26L25.49-10.26Q25.92-10.26 26.32-10.56Q26.73-10.85 27-11.12L27-11.12L39.37-25.27L39.42-25.27Q40.18-26.30 41.26-26.89Q42.34-27.49 43.63-27.49L43.63-27.49Q45.79-27.49 47.03-25.97Q48.28-24.46 48.28-22.30L48.28-22.30Z" transform="translate(225.612 206) " fill="rgb(25, 25, 25)" stroke="rgb(25, 25, 25)" stroke-width="0.09" data-glyph-w="50.976" data-glyph-h="51.3" data-glyph-ascender="43.2" data-glyph-descender="-8.1"/><path d="M7.88-24.89L7.88-6.53Q7.88-5.45 7.13-4.70Q6.37-3.94 5.29-3.94L5.29-3.94Q4.21-3.94 3.46-4.70Q2.70-5.45 2.70-6.53L2.70-6.53L2.70-24.89Q2.70-25.97 3.46-26.73Q4.21-27.49 5.29-27.49L5.29-27.49Q6.37-27.49 7.13-26.73Q7.88-25.97 7.88-24.89L7.88-24.89Z" transform="translate(276.58799999999997 206) " fill="rgb(25, 25, 25)" stroke="rgb(25, 25, 25)" stroke-width="0.09" data-glyph-w="10.584" data-glyph-h="51.3" data-glyph-ascender="43.2" data-glyph-descender="-8.1"/><path d="M39.47-14.26L39.47-24.89Q39.47-25.97 40.23-26.73Q40.99-27.49 42.07-27.49L42.07-27.49Q43.15-27.49 43.90-26.73Q44.66-25.97 44.66-24.89L44.66-24.89L44.66-9.18Q44.66-6.97 43.17-5.45Q41.69-3.94 39.47-3.94L39.47-3.94Q38.72-3.94 37.99-4.16Q37.26-4.37 36.67-4.75L36.67-4.75L11.93-19.87Q10.91-20.47 10.23-20.82Q9.56-21.17 9.13-21.17L9.13-21.17Q8.32-21.17 8.10-20.14Q7.88-19.12 7.88-17.17L7.88-17.17L7.88-6.53Q7.88-5.45 7.13-4.70Q6.37-3.94 5.29-3.94L5.29-3.94Q4.21-3.94 3.46-4.70Q2.70-5.45 2.70-6.53L2.70-6.53L2.70-22.25Q2.70-24.46 4.18-25.97Q5.67-27.49 7.88-27.49L7.88-27.49Q8.64-27.49 9.37-27.27Q10.10-27.05 10.69-26.68L10.69-26.68L35.42-11.56Q36.45-10.96 37.13-10.61Q37.80-10.26 38.23-10.26L38.23-10.26Q39.04-10.26 39.26-11.29Q39.47-12.31 39.47-14.26L39.47-14.26Z" transform="translate(287.17199999999997 206) " fill="rgb(25, 25, 25)" stroke="rgb(25, 25, 25)" stroke-width="0.09" data-glyph-w="47.358" data-glyph-h="51.3" data-glyph-ascender="43.2" data-glyph-descender="-8.1"/><path d="M5.29-18.31L21.28-18.31Q22.36-18.31 23.11-17.55Q23.87-16.79 23.87-15.71L23.87-15.71Q23.87-14.63 23.11-13.88Q22.36-13.12 21.28-13.12L21.28-13.12L5.08-13.12Q4.10-13.23 3.40-13.96Q2.70-14.69 2.70-15.71L2.70-15.71Q2.70-16.79 3.46-17.55Q4.21-18.31 5.29-18.31L5.29-18.31Z" transform="translate(334.53 206) " fill="rgb(25, 25, 25)" stroke="rgb(25, 25, 25)" stroke-width="0.09" data-glyph-w="26.568" data-glyph-h="51.3" data-glyph-ascender="43.2" data-glyph-descender="-8.1"/><path d="M37.85-22.30L7.88-22.30L7.88-18.31L37.85-18.31Q38.66-18.31 39.28-18.87Q39.91-19.44 39.91-20.30L39.91-20.30Q39.91-21.11 39.28-21.71Q38.66-22.30 37.85-22.30L37.85-22.30ZM5.29-27.49L37.64-27.49Q39.15-27.49 40.47-26.92Q41.80-26.35 42.80-25.38Q43.79-24.41 44.36-23.11Q44.93-21.82 44.93-20.30L44.93-20.30Q44.93-18.79 44.36-17.50Q43.79-16.20 42.80-15.23Q41.80-14.26 40.47-13.69Q39.15-13.12 37.64-13.12L37.64-13.12L7.88-13.12L7.88-6.53Q7.88-5.45 7.10-4.70Q6.32-3.94 5.29-3.94L5.29-3.94Q4.21-3.94 3.46-4.70Q2.70-5.45 2.70-6.53L2.70-6.53L2.70-24.89Q2.70-25.97 3.46-26.73Q4.21-27.49 5.29-27.49L5.29-27.49Z" transform="translate(361.09799999999996 206) " fill="rgb(25, 25, 25)" stroke="rgb(25, 25, 25)" stroke-width="0.09" data-glyph-w="47.628" data-glyph-h="51.3" data-glyph-ascender="43.2" data-glyph-descender="-8.1"/><path d="M37.64-13.12L37.42-13.12Q38.88-12.20 40.39-11.15Q41.90-10.10 43.47-8.86L43.47-8.86Q44.06-8.42 44.50-7.86Q44.93-7.29 44.93-6.53L44.93-6.53Q44.93-5.45 44.17-4.70Q43.42-3.94 42.34-3.94L42.34-3.94Q41.42-3.94 40.50-4.70L40.50-4.70Q38.29-6.32 35.96-7.83Q33.64-9.34 31.13-10.53Q28.62-11.72 25.92-12.42Q23.22-13.12 20.30-13.12L20.30-13.12L9.56-13.12Q8.86-13.01 8.37-12.47Q7.88-11.93 7.88-11.12L7.88-11.12L7.88-6.53Q7.88-5.45 7.10-4.70Q6.32-3.94 5.29-3.94L5.29-3.94Q4.21-3.94 3.46-4.70Q2.70-5.45 2.70-6.53L2.70-6.53L2.70-11.72Q2.70-13.07 3.21-14.28Q3.73-15.50 4.59-16.39Q5.45-17.28 6.64-17.79Q7.83-18.31 9.23-18.31L9.23-18.31L37.85-18.31Q38.66-18.31 39.28-18.87Q39.91-19.44 39.91-20.30L39.91-20.30Q39.91-21.11 39.28-21.71Q38.66-22.30 37.85-22.30L37.85-22.30L5.29-22.30Q4.21-22.30 3.46-23.06Q2.70-23.81 2.70-24.89L2.70-24.89Q2.70-25.97 3.46-26.73Q4.21-27.49 5.29-27.49L5.29-27.49L37.64-27.49Q39.15-27.49 40.47-26.92Q41.80-26.35 42.80-25.38Q43.79-24.41 44.36-23.11Q44.93-21.82 44.93-20.30L44.93-20.30Q44.93-18.79 44.36-17.50Q43.79-16.20 42.80-15.23Q41.80-14.26 40.47-13.69Q39.15-13.12 37.64-13.12L37.64-13.12Z" transform="translate(408.72599999999994 206) " fill="rgb(25, 25, 25)" stroke="rgb(25, 25, 25)" stroke-width="0.09" data-glyph-w="47.628" data-glyph-h="51.3" data-glyph-ascender="43.2" data-glyph-descender="-8.1"/><path d="M13.77-9.13L35.59-9.13Q37.42-9.13 38.61-9.80Q39.80-10.48 40.47-11.45Q41.15-12.42 41.39-13.58Q41.63-14.74 41.63-15.71L41.63-15.71Q41.63-16.69 41.39-17.85Q41.15-19.01 40.47-19.98Q39.80-20.95 38.61-21.63Q37.42-22.30 35.59-22.30L35.59-22.30L13.77-22.30Q11.88-22.30 10.72-21.63Q9.56-20.95 8.88-19.98Q8.21-19.01 7.96-17.85Q7.72-16.69 7.72-15.71L7.72-15.71Q7.72-14.74 7.96-13.58Q8.21-12.42 8.88-11.45Q9.56-10.48 10.72-9.80Q11.88-9.13 13.77-9.13L13.77-9.13ZM46.66-15.71L46.66-15.71Q46.66-13.66 45.98-11.58Q45.31-9.50 44.01-7.80Q42.71-6.10 40.88-5.02Q39.04-3.94 36.72-3.94L36.72-3.94L12.10-3.94Q9.88-4.05 8.15-5.16Q6.43-6.26 5.21-7.94Q4.00-9.61 3.35-11.66Q2.70-13.72 2.70-15.71L2.70-15.71Q2.70-17.77 3.38-19.84Q4.05-21.92 5.35-23.63Q6.64-25.33 8.48-26.41Q10.31-27.49 12.64-27.49L12.64-27.49L37.26-27.49Q39.47-27.38 41.20-26.27Q42.93-25.16 44.14-23.49Q45.36-21.82 46.01-19.76Q46.66-17.71 46.66-15.71Z" transform="translate(456.3539999999999 206) " fill="rgb(25, 25, 25)" stroke="rgb(25, 25, 25)" stroke-width="0.09" data-glyph-w="49.356" data-glyph-h="51.3" data-glyph-ascender="43.2" data-glyph-descender="-8.1"/></g></svg></g></g>  <!----></svg>
