<?xml version="1.0"?>
<svg xmlns="http://www.w3.org/2000/svg" xmlns:xlink="http://www.w3.org/1999/xlink" data-noselect="" viewBox="0 0 800 600" width="1600" height="1200" preserveAspectRatio="none" version="1.1"><defs/> <g id="background" data-noselect=""><!----> <!----></g> <g id="shape_TGhCTApbWy" transform="translate(151.918261575545,53.042253566080035) rotate(0,313.8,259.2) scale(1,1)" filter="" style="cursor: move; opacity: 1;"><g><svg xmlns="http://www.w3.org/2000/svg" xmlns:xlink="http://www.w3.org/1999/xlink" version="1.1" width="769.1999999999999" height="518.4" viewBox="0 0 769.1999999999999 518.4" data-parent="shape_TGhCTApbWy"><g data-width="485.7588" transform="translate(70.8, 0)"><path d="M5.88-44.32L51.47-44.32L49.42-28.04L45.31-25.35L48.71-22.59L46.66-8.99Q46.16-6.94 44.75-5.59Q43.33-4.25 41.28-4.25L41.28-4.25L3.19-4.25L7.93-41.63L5.88-44.32ZM37.17-37.52L20.89-37.52L20.18-28.74L35.82-28.74L37.17-37.52ZM35.12-21.95L18.83-21.95L17.49-11.04L33.77-11.04L35.12-21.95Z" transform="translate(0 283.2) " fill="#17233d" stroke="#17233d" stroke-width="0.118" data-glyph-w="54.6576" data-glyph-h="92.04" data-glyph-ascender="70.8" data-glyph-descender="-21.240000000000002"/><path d="M6.23-44.32L22.59-44.32L16.43-4.25L3.54-4.25L8.28-41.63L6.23-44.32Z" transform="translate(54.6576 283.2) " fill="#17233d" stroke="#17233d" stroke-width="0.118" data-glyph-w="26.1252" data-glyph-h="92.04" data-glyph-ascender="70.8" data-glyph-descender="-21.240000000000002"/><path d="M5.88-44.32L22.23-44.32L36.46-19.19L39.86-44.32L51.47-44.32L46.02-4.25L32.43-4.25L18.83-28.74L15.43-4.25L3.19-4.25L8.64-41.63L5.88-44.32Z" transform="translate(80.78280000000001 283.2) " fill="#17233d" stroke="#17233d" stroke-width="0.118" data-glyph-w="54.6576" data-glyph-h="92.04" data-glyph-ascender="70.8" data-glyph-descender="-21.240000000000002"/><path d="M28.32-24.36L27.12-17.13L2.97-17.13L4.11-24.36L28.32-24.36Z" transform="translate(135.4404 283.2) " fill="#17233d" stroke="#17233d" stroke-width="0.118" data-glyph-w="31.506" data-glyph-h="92.04" data-glyph-ascender="70.8" data-glyph-descender="-21.240000000000002"/><path d="M5.88-44.32L21.52-44.32L16.78-11.04L33.06-11.04L37.88-42.34L35.12-44.32L51.47-44.32L46.02-4.25L7.29-4.25Q5.24-4.25 4.21-5.59Q3.19-6.94 3.19-8.99L3.19-8.99L7.93-42.34L5.88-44.32Z" transform="translate(166.9464 283.2) " fill="#17233d" stroke="#17233d" stroke-width="0.118" data-glyph-w="54.6576" data-glyph-h="92.04" data-glyph-ascender="70.8" data-glyph-descender="-21.240000000000002"/><path d="M6.23-44.32L22.59-44.32L16.43-4.25L3.54-4.25L8.28-41.63L6.23-44.32Z" transform="translate(221.604 283.2) " fill="#17233d" stroke="#17233d" stroke-width="0.118" data-glyph-w="26.1252" data-glyph-h="92.04" data-glyph-ascender="70.8" data-glyph-descender="-21.240000000000002"/><path d="M28.32-24.36L27.12-17.13L2.97-17.13L4.11-24.36L28.32-24.36Z" transform="translate(247.72920000000002 283.2) " fill="#17233d" stroke="#17233d" stroke-width="0.118" data-glyph-w="31.506" data-glyph-h="92.04" data-glyph-ascender="70.8" data-glyph-descender="-21.240000000000002"/><path d="M5.88-44.32L22.23-44.32L36.46-19.19L39.86-44.32L51.47-44.32L46.02-4.25L32.43-4.25L18.83-28.74L15.43-4.25L3.19-4.25L8.64-41.63L5.88-44.32Z" transform="translate(279.2352 283.2) " fill="#17233d" stroke="#17233d" stroke-width="0.118" data-glyph-w="54.6576" data-glyph-h="92.04" data-glyph-ascender="70.8" data-glyph-descender="-21.240000000000002"/><path d="M6.58-44.32L45.31-44.32L44.67-37.52L22.23-37.52L20.89-28.74L41.91-28.74L41.28-21.95L19.47-21.95L18.12-11.04L41.91-11.04L41.28-4.25L3.19-4.25L8.64-41.63L6.58-44.32Z" transform="translate(333.8928 283.2) " fill="#17233d" stroke="#17233d" stroke-width="0.118" data-glyph-w="48.144" data-glyph-h="92.04" data-glyph-ascender="70.8" data-glyph-descender="-21.240000000000002"/><path d="M9.63-42.34L7.58-44.32L21.81-44.32L27.97-32.78L36.11-42.98L34.76-44.32L51.05-44.32L33.42-24.64L45.60-4.25L32.00-4.25L25.91-16.50L15.72-4.25L2.12-4.25L19.82-24.64L9.63-42.34Z" transform="translate(382.0368 283.2) " fill="#17233d" stroke="#17233d" stroke-width="0.118" data-glyph-w="53.1708" data-glyph-h="92.04" data-glyph-ascender="70.8" data-glyph-descender="-21.240000000000002"/><path d="M26.97-4.25L13.38-4.25L18.12-37.52L3.19-37.52L3.89-44.32L47.37-44.32L46.02-37.52L31.72-37.52L26.97-4.25Z" transform="translate(435.2076 283.2) " fill="#17233d" stroke="#17233d" stroke-width="0.118" data-glyph-w="50.5512" data-glyph-h="92.04" data-glyph-ascender="70.8" data-glyph-descender="-21.240000000000002"/></g></svg></g></g><g id="shape_7X3ibmc2tN" transform="translate(198.660839360485,268.9020478745) rotate(0,179.12,84.98) scale(1,1)" filter="" style="cursor: move; opacity: 1;"><g><svg xmlns="http://www.w3.org/2000/svg" xmlns:xlink="http://www.w3.org/1999/xlink" version="1.1" width="404.48" height="169.96" viewBox="0 0 404.48 169.96" data-parent="shape_7X3ibmc2tN"><g data-width="311.61136000000005" transform="translate(23.12, 0)"><path d="M2.40-1.39L2.40-1.39Q2.08-1.39 1.80-1.50Q1.53-1.62 1.33-1.83Q1.13-2.03 1.06-2.32Q0.99-2.61 1.09-2.94L1.09-2.94L2.64-14.47L16.62-14.47L16.39-12.25L6.64-12.25L5.53-3.61L14.17-3.61L15.28-4.49L14.84-1.39L2.40-1.39Z" transform="translate(0 92.48) " fill="#17233d" stroke="#17233d" stroke-width="0.039" data-glyph-w="17.548080000000002" data-glyph-h="30.056" data-glyph-ascender="23.12" data-glyph-descender="-6.936000000000001"/><path d="M2.64-14.47L15.07-14.47Q15.40-14.47 15.68-14.36Q15.95-14.24 16.15-14.03Q16.35-13.83 16.42-13.55Q16.48-13.27 16.39-12.92L16.39-12.92L14.84-1.39L2.40-1.39Q2.08-1.39 1.80-1.50Q1.53-1.62 1.33-1.83Q1.13-2.03 1.06-2.32Q0.99-2.61 1.09-2.94L1.09-2.94L2.64-14.47ZM11.95-12.25L6.64-12.25L5.53-3.61L10.64-3.61L11.95-12.25Z" transform="translate(17.548080000000002 92.48) " fill="#17233d" stroke="#17233d" stroke-width="0.039" data-glyph-w="17.478720000000003" data-glyph-h="30.056" data-glyph-ascender="23.12" data-glyph-descender="-6.936000000000001"/><path d="M1.92-14.47L7.70-14.47L10.15-6.27L14.80-14.47L19.47-14.47L17.69-1.39L13.69-1.39L14.80-8.28L11.26-2.27L7.70-2.27L5.92-8.05L5.04-1.39L1.04-1.39L2.82-13.59L1.92-14.47Z" transform="translate(35.02680000000001 92.48) " fill="#17233d" stroke="#17233d" stroke-width="0.039" data-glyph-w="20.507440000000003" data-glyph-h="30.056" data-glyph-ascender="23.12" data-glyph-descender="-6.936000000000001"/><path d="M1.92-14.47L16.35-14.47L15.47-7.38Q15.28-6.70 14.74-6.27Q14.20-5.83 13.69-5.83L13.69-5.83L5.92-5.83L5.25-1.39L1.04-1.39L2.59-13.83L1.92-14.47ZM11.70-12.25L6.82-12.25L6.36-8.05L11.03-8.05L11.70-12.25Z" transform="translate(55.53424000000001 92.48) " fill="#17233d" stroke="#17233d" stroke-width="0.039" data-glyph-w="17.27064" data-glyph-h="30.056" data-glyph-ascender="23.12" data-glyph-descender="-6.936000000000001"/><path d="M2.64-14.47L15.07-14.47Q15.40-14.47 15.68-14.36Q15.95-14.24 16.15-14.03Q16.35-13.83 16.42-13.55Q16.48-13.27 16.39-12.92L16.39-12.92L14.84-1.39L2.40-1.39Q2.08-1.39 1.80-1.50Q1.53-1.62 1.33-1.83Q1.13-2.03 1.06-2.32Q0.99-2.61 1.09-2.94L1.09-2.94L2.64-14.47ZM11.95-12.25L6.64-12.25L5.53-3.61L10.64-3.61L11.95-12.25Z" transform="translate(72.80488000000001 92.48) " fill="#17233d" stroke="#17233d" stroke-width="0.039" data-glyph-w="17.478720000000003" data-glyph-h="30.056" data-glyph-ascender="23.12" data-glyph-descender="-6.936000000000001"/><path d="M1.92-14.47L7.26-14.47L11.91-6.27L13.02-14.47L16.81-14.47L15.03-1.39L10.59-1.39L6.15-9.39L5.04-1.39L1.04-1.39L2.82-13.59L1.92-14.47Z" transform="translate(90.2836 92.48) " fill="#17233d" stroke="#17233d" stroke-width="0.039" data-glyph-w="17.84864" data-glyph-h="30.056" data-glyph-ascender="23.12" data-glyph-descender="-6.936000000000001"/><path d="M2.15-14.47L14.80-14.47L14.59-12.25L7.26-12.25L6.82-9.39L13.69-9.39L13.48-7.17L6.36-7.17L5.92-3.61L13.69-3.61L13.48-1.39L1.04-1.39L2.82-13.59L2.15-14.47Z" transform="translate(108.13224000000001 92.48) " fill="#17233d" stroke="#17233d" stroke-width="0.039" data-glyph-w="15.7216" data-glyph-h="30.056" data-glyph-ascender="23.12" data-glyph-descender="-6.936000000000001"/><path d="M1.92-14.47L7.26-14.47L11.91-6.27L13.02-14.47L16.81-14.47L15.03-1.39L10.59-1.39L6.15-9.39L5.04-1.39L1.04-1.39L2.82-13.59L1.92-14.47Z" transform="translate(123.85384 92.48) " fill="#17233d" stroke="#17233d" stroke-width="0.039" data-glyph-w="17.84864" data-glyph-h="30.056" data-glyph-ascender="23.12" data-glyph-descender="-6.936000000000001"/><path d="M8.81-1.39L4.37-1.39L5.92-12.25L1.04-12.25L1.27-14.47L15.47-14.47L15.03-12.25L10.36-12.25L8.81-1.39Z" transform="translate(141.70248 92.48) " fill="#17233d" stroke="#17233d" stroke-width="0.039" data-glyph-w="16.50768" data-glyph-h="30.056" data-glyph-ascender="23.12" data-glyph-descender="-6.936000000000001"/><path d="M2.15-4.05L10.15-4.05L10.59-6.70L1.71-6.70L2.82-14.47L15.91-14.47L15.47-10.70L11.03-10.70L11.26-12.25L7.03-12.25L6.36-8.92L15.24-8.92L14.36-2.94Q14.36-2.61 14.21-2.32Q14.06-2.03 13.80-1.83Q13.55-1.62 13.24-1.50Q12.92-1.39 12.58-1.39L12.58-1.39L1.04-1.39L1.48-4.95L2.15-4.05Z" transform="translate(158.21016 92.48) " fill="#17233d" stroke="#17233d" stroke-width="0.039" data-glyph-w="16.94696" data-glyph-h="30.056" data-glyph-ascender="23.12" data-glyph-descender="-6.936000000000001"/><path d="" transform="translate(175.15712 92.48) " fill="#17233d" stroke="#17233d" stroke-width="0.039" data-glyph-w="9.20176" data-glyph-h="23.12" data-glyph-ascender="20.3456" data-glyph-descender="-2.7744"/><path d="M2.15-14.47L15.24-14.47L15.03-12.25L7.03-12.25L6.59-8.49L13.92-8.49L13.69-6.27L6.15-6.27L5.48-1.39L1.04-1.39L2.82-13.59L2.15-14.47Z" transform="translate(184.35888 92.48) " fill="#17233d" stroke="#17233d" stroke-width="0.039" data-glyph-w="16.160880000000002" data-glyph-h="30.056" data-glyph-ascender="23.12" data-glyph-descender="-6.936000000000001"/><path d="M2.64-14.47L15.07-14.47Q15.40-14.47 15.68-14.36Q15.95-14.24 16.15-14.03Q16.35-13.83 16.42-13.55Q16.48-13.27 16.39-12.92L16.39-12.92L14.84-1.39L2.40-1.39Q2.08-1.39 1.80-1.50Q1.53-1.62 1.33-1.83Q1.13-2.03 1.06-2.32Q0.99-2.61 1.09-2.94L1.09-2.94L2.64-14.47ZM11.95-12.25L6.64-12.25L5.53-3.61L10.64-3.61L11.95-12.25Z" transform="translate(200.51976 92.48) " fill="#17233d" stroke="#17233d" stroke-width="0.039" data-glyph-w="17.478720000000003" data-glyph-h="30.056" data-glyph-ascender="23.12" data-glyph-descender="-6.936000000000001"/><path d="M1.92-14.47L16.35-14.47L15.47-7.81Q15.47-7.49 15.32-7.20Q15.17-6.91 14.91-6.70Q14.66-6.50 14.35-6.38Q14.03-6.27 13.69-6.27L13.69-6.27L10.80-6.27L15.47-1.39L10.59-1.39L6.15-6.27L5.48-1.39L1.04-1.39L2.59-13.59L1.92-14.47ZM11.70-12.25L6.82-12.25L6.36-8.49L11.26-8.49L11.70-12.25Z" transform="translate(217.99848 92.48) " fill="#17233d" stroke="#17233d" stroke-width="0.039" data-glyph-w="17.38624" data-glyph-h="30.056" data-glyph-ascender="23.12" data-glyph-descender="-6.936000000000001"/><path d="" transform="translate(235.38472000000002 92.48) " fill="#17233d" stroke="#17233d" stroke-width="0.039" data-glyph-w="9.20176" data-glyph-h="23.12" data-glyph-ascender="20.3456" data-glyph-descender="-2.7744"/><path d="M10.03-1.39L3.81-1.39L1.36-13.83L0.92-14.47L5.60-14.47L7.35-5.39L11.79-14.47L16.23-14.47L10.03-1.39Z" transform="translate(244.58648000000002 92.48) " fill="#17233d" stroke="#17233d" stroke-width="0.039" data-glyph-w="17.15504" data-glyph-h="30.056" data-glyph-ascender="23.12" data-glyph-descender="-6.936000000000001"/><path d="M1.92-14.47L7.03-14.47L5.48-3.61L10.80-3.61L12.37-13.83L11.47-14.47L16.81-14.47L15.03-1.39L2.38-1.39Q1.71-1.39 1.38-1.83Q1.04-2.27 1.04-2.94L1.04-2.94L2.59-13.83L1.92-14.47Z" transform="translate(261.74152000000004 92.48) " fill="#17233d" stroke="#17233d" stroke-width="0.039" data-glyph-w="17.84864" data-glyph-h="30.056" data-glyph-ascender="23.12" data-glyph-descender="-6.936000000000001"/><path d="M2.15-14.47L14.80-14.47L14.59-12.25L7.26-12.25L6.82-9.39L13.69-9.39L13.48-7.17L6.36-7.17L5.92-3.61L13.69-3.61L13.48-1.39L1.04-1.39L2.82-13.59L2.15-14.47Z" transform="translate(279.59016 92.48) " fill="#17233d" stroke="#17233d" stroke-width="0.039" data-glyph-w="15.7216" data-glyph-h="30.056" data-glyph-ascender="23.12" data-glyph-descender="-6.936000000000001"/><path d="M9.32-3.58L9.83-7.10L1.92-7.10L2.22-9.29L10.13-9.29L10.57-12.37L1.78-12.37L2.08-14.54L15.26-14.54L13.62-2.96Q13.53-2.29 13.01-1.84Q12.48-1.39 11.84-1.39L11.84-1.39L0.23-1.39L0.55-3.58L9.32-3.58Z" transform="translate(295.31176000000005 92.48) " fill="#17233d" stroke="#17233d" stroke-width="0.039" data-glyph-w="16.2996" data-glyph-h="30.056" data-glyph-ascender="23.12" data-glyph-descender="-6.936000000000001"/></g></svg></g></g>  <!----></svg>
