<svg id="图层_1" data-name="图层 1" xmlns="http://www.w3.org/2000/svg" viewBox="0 0 320 273.38"><defs><style>.cls-1{fill:#fff;}.cls-2{fill:#0b60b3;}.cls-3{fill:#1089ff;}.cls-4{fill:#78c8ff;}</style></defs><title>bin-ui-22</title><path class="cls-1" d="M251.66,269.22S257,294,271.16,316.84c15.51,22.16,85.17,99.49,85.17,99.49L439,400.67,487.33,303l-9.66-64.26s-25.34-24.06-26-25.06S413.33,191,413.33,191s-76-.67-78,0-72.36,44-72,45.33S251.66,269.22,251.66,269.22Z" transform="translate(-214 -165.34)"/><g id="shape_gWH5hL6p9Y" data-name="shape gWH5hL6p9Y"><path class="cls-2" d="M395.21,181c207.37,9.32,142.63,154.13,60.33,175.24a59.72,59.72,0,0,0,1.86-23c-2.32-25.51-20.56-25.51-23-30.61s23.5-13.93,30-33.41,3.41-53.8-54.73-62.46-143.17,48.27-144.73,48.55C191,335,185.6,171.63,395.21,181Zm-69.42,185.9c-1.32-5.37-2.08-12.73-2.61-24.08-1.22-26.59-.93-68.64,4.92-75.46s22.11-8.5,32.63,1.47,11.13,24.58,9.27,39.74-3.87,37.56-1.46,44.05,24.34,9,33.23.33,4.19-24-3.48-29.7-13.6-7.31-12.75-16.77S396.6,286,405.72,278.3s19.49-32.33-10.37-38.19-63.32,13-90.22,38.73C244.62,336.57,248.34,357.67,325.79,366.94Z" transform="translate(-214 -165.34)"/><path class="cls-3" d="M404.71,432.69c90-26.84,115.19-102.89,101.21-179.5-22.61-123.95-131-86.11-195.94-22.63,29.62-14.22,68.49-28.41,99.64-23.76,58.14,8.66,61.24,43,54.73,62.46s-32.4,28.3-30,33.41,20.72,5.1,23,30.61-7,44.06-38.19,57.05-75.91.32-84.12-7.89-10.66-13-11.91-39.58-.93-68.64,4.92-75.46,22.11-8.5,32.63,1.47,11.13,24.58,9.27,39.74-3.87,37.56-1.46,44.05,24.34,9,33.23.33,4.19-24-3.48-29.7-13.6-7.31-12.75-16.77S396.6,286,405.72,278.3s19.49-32.33-10.37-38.19-70.86,8.63-97.76,34.26C211.61,356.39,294,465.69,404.71,432.69Z" transform="translate(-214 -165.34)"/><path class="cls-4" d="M370.59,165.36s-89-2.92-115.19,55.95c-6.2,13.93-8.16,29.81-4.72,47.15a117.91,117.91,0,0,0,14.21-13.17s1.92-1,4.88-2.82c18.63-11.55,89.69-53.2,139.85-45.73,58.12,8.66,61.24,43,54.73,62.48s-32.4,28.34-30,33.45,20.72,5.1,23,30.61-7,44.06-38.19,57.05a82.54,82.54,0,0,1-31.43,5.59c2.64.39,5.29.73,8,1,99.55,9.49,120.79-11.7,128.63-82.77S439.94,164.84,370.59,165.36ZM269.49,314.15c7.31-13.6,16.26-28.49,28.1-39.78,26.9-25.63,68-40.26,97.87-34.32s19.48,30.45,10.37,38.19S386.49,297,385.64,306.46s5.11,11.06,12.76,16.77,12.37,21,3.48,29.7-30.72,6.17-33.24-.32-.46-28.92,1.47-44.06,1.24-29.85-9.28-39.74S334,260.6,328.1,267.4s-6.17,48.87-5,75.46c.79,17.1,2.11,25.19,5.11,31A179,179,0,0,1,269.49,314.15Z" transform="translate(-214 -165.34)"/><path class="cls-2" d="M269.5,314.14a179,179,0,0,0,58.79,59.67c-2.93-5.76-4.32-13.85-5.11-30.95-1.22-26.59-.93-68.64,4.92-75.46s22.11-8.5,32.63,1.47,11.13,24.58,9.27,39.74-3.87,37.56-1.46,44.05,24.34,9,33.23.33,4.19-24-3.48-29.7-13.6-7.31-12.75-16.77S396.6,286,405.72,278.3s19.49-32.33-10.37-38.19-70.86,8.63-97.76,34.26C285.75,285.66,276.73,300.53,269.5,314.14Zm118.22,81.78a82.46,82.46,0,0,0,31.49-5.59c31.23-13,40.5-31.54,38.19-57.05s-20.56-25.51-23-30.61,23.5-13.93,30-33.41,3.41-53.8-54.73-62.46c-31.16-4.65-70,9.54-99.64,23.76,29-28.38,66.77-51.62,101.62-57.59,35.65,12.7,71.21,40.05,92.71,72.29.59,2.57,1.11,5.2,1.61,7.93,9.73,53.31.5,106.35-36.36,142.73-18,3.92-41.84,4-73.81,1-2.69-.26-5.38-.6-8-1Z" transform="translate(-214 -165.34)"/><path class="cls-3" d="M254.17,309.24s-2,27.95-21,35.77-28.8-28.78-5.87-43.61S255.86,303.91,254.17,309.24Z" transform="translate(-214 -165.34)"/></g></svg>