<svg id="图层_1" data-name="图层 1" xmlns="http://www.w3.org/2000/svg" xmlns:xlink="http://www.w3.org/1999/xlink" viewBox="0 0 325.22 371.47"><defs><style>.cls-1{fill:none;}.cls-2{fill:#e59658;}.cls-3{clip-path:url(#clip-path);}.cls-4{fill:#f4cbbb;}.cls-5{fill:#fff;}.cls-6{fill:#311709;}.cls-7{fill:#9d612e;}.cls-8{fill:#e66453;}.cls-9{fill:#f3e5df;}.cls-10{fill:#e8ac93;}.cls-11{fill:#b67a48;}.cls-12{fill:#efe8d5;}.cls-13{fill:#cd4b3b;}</style><clipPath id="clip-path" transform="translate(-634.87 -267.79)"><path class="cls-1" d="M802.06,327.54c15.44-16.24,52.08-44.32,122.87-47A12.83,12.83,0,0,1,937.57,289c8.89,25.69,3.1,100.43-36.05,133a93.12,93.12,0,0,1,3.86,28.66c-.09,3.07-.3,6.09-.67,9.07-91.15,15.11-133.67-26.48-149.19-40-14.73-16.36-24.72-18.38-40.16-12.67a69.26,69.26,0,0,0-16.29,8.77c-48.38,34.75-60.55,32.23-60.55,32.23h-.17c2.31-19.09,7.26-35.21,14.06-48.76a118.39,118.39,0,0,1,8.22-14,155.73,155.73,0,0,1,31.81-29.12,172.74,172.74,0,0,1,29.63-16,182.65,182.65,0,0,1,22.07-7.77c-1,1.26-13,15.57-10.44,23.71,2.64,8.48,11.91,2.4,27.73-26.81,3.24-.46,6.34-.8,9.32-1.09v.16S756.9,350,758,356.83c.62,3.7,11,14.65,29.16-29.63Q794.7,327.34,802.06,327.54Zm32.23,63.24c0-17.41-15.91-29.92-31.18-31.18-17.92-1.47-36.89,12.42-37.06,30.85-.17,18.63,19,32.94,37.06,31.51C818.38,420.75,834.29,408.2,834.29,390.78Z"/></clipPath></defs><title>Bin-UI-Next-33</title><g id="shape_JZfIU9uh3q" data-name="shape JZfIU9uh3q"><path id="SVGID" class="cls-2" d="M802.06,327.54c15.44-16.24,52.08-44.32,122.87-47A12.83,12.83,0,0,1,937.57,289c8.89,25.69,3.1,100.43-36.05,133a93.12,93.12,0,0,1,3.86,28.66c-.09,3.07-.3,6.09-.67,9.07-91.15,15.11-133.67-26.48-149.19-40-14.73-16.36-24.72-18.38-40.16-12.67a69.26,69.26,0,0,0-16.29,8.77c-48.38,34.75-60.55,32.23-60.55,32.23h-.17c2.31-19.09,7.26-35.21,14.06-48.76a118.39,118.39,0,0,1,8.22-14,155.73,155.73,0,0,1,31.81-29.12,172.74,172.74,0,0,1,29.63-16,182.65,182.65,0,0,1,22.07-7.77c-1,1.26-13,15.57-10.44,23.71,2.64,8.48,11.91,2.4,27.73-26.81,3.24-.46,6.34-.8,9.32-1.09v.16S756.9,350,758,356.83c.62,3.7,11,14.65,29.16-29.63Q794.7,327.34,802.06,327.54Zm32.23,63.24c0-17.41-15.91-29.92-31.18-31.18-17.92-1.47-36.89,12.42-37.06,30.85-.17,18.63,19,32.94,37.06,31.51C818.38,420.75,834.29,408.2,834.29,390.78Z" transform="translate(-634.87 -267.79)"/><g class="cls-3"><path class="cls-4" d="M949.11,270.72c-1.6-3-62.28,49.48-78.56,105.29,0,0,39.19,39.24,39.61,72.48C948.56,375.51,951.46,275.08,949.11,270.72Z" transform="translate(-634.87 -267.79)"/></g><path class="cls-2" d="M705.16,613.24A146,146,0,0,1,670.66,577h0c.09-1.22.25-2.4.38-3.57,4.32,6.46,21.15,7.3,18.51,2.68s-17.33-8.6-17.33-8.6l-.13,0c.59-2.73,1.3-5.29,2.06-7.64h0c2.56,5.63,23.87,9.23,17.79,2.52s-15.74-8-15.74-8c5.16-12.13,12-18.17,12-18.17,25.43,14,98.24,25,150.37,4.44,33.15-13,58.92-40.37,65.3-75.41.33-1.85.62-3.69.83-5.58.38-3,.59-6,.68-9.07a197.51,197.51,0,0,1,1.55,24.51c0,75.37-42.72,138.66-100.43,156.28,0,0-3-43.6-23.24-61.9a29.86,29.86,0,0,0-28.75-6.12c-38.32,11.66-32.36,60.34-32.36,60.34A128.13,128.13,0,0,1,705.16,613.24Z" transform="translate(-634.87 -267.79)"/><path class="cls-5" d="M904.66,459.69c-.21,1.89-.5,3.74-.83,5.58-6.38,35-32.15,62.32-65.3,75.42-52.17,20.56-124.94,9.61-150.37-4.45-19.6-10.83-40-36.56-47.42-62h0a63.18,63.18,0,0,1-2.6-24.34c.08-.63.17-1.26.21-1.93h.17s12.17,2.52,60.55-32.19A70.76,70.76,0,0,1,715.36,407c15.44-5.71,25.39-3.69,40.16,12.68C771,433.21,813.56,474.8,904.66,459.69ZM739.28,415.54c.29-3.35-4.45-6.67-8.65-7.3-4.49-.67-10,1.43-10.53,4.53-.3,1.77.46,3.4,1.84,5.08,1.14,1.39,2.94,3.65,6,4.16,2.85.46,5.58-1.22,6.63-1.81C735.84,419.49,739.07,418.06,739.28,415.54Z" transform="translate(-634.87 -267.79)"/><path class="cls-5" d="M803.11,359.6c15.27,1.26,31.18,13.77,31.18,31.18s-15.91,30-31.18,31.18c-18.09,1.43-37.27-12.88-37.06-31.51C766.22,372,785.19,358.13,803.11,359.6Zm12.8,27.62a18.47,18.47,0,1,0-18.47,18.46A18.47,18.47,0,0,0,815.91,387.22Z" transform="translate(-634.87 -267.79)"/><path class="cls-6" d="M797.48,368.79A18.47,18.47,0,1,1,779,387.26,18.47,18.47,0,0,1,797.48,368.79Z" transform="translate(-634.87 -267.79)"/><path class="cls-5" d="M783.26,569.47c20.27,18.3,23.25,61.9,23.25,61.9a111.75,111.75,0,0,1-32.7,4.91,112.9,112.9,0,0,1-51.7-12.63S716.2,575,754.47,563.31A30.05,30.05,0,0,1,783.26,569.47Z" transform="translate(-634.87 -267.79)"/><path class="cls-7" d="M770.75,328c6.21-.58,11.79-.84,16.49-.88-18.17,44.28-28.58,33.32-29.16,29.63-1.14-6.8,12.71-28.58,12.71-28.58Z" transform="translate(-634.87 -267.79)"/><path class="cls-7" d="M758,329.64l3.44-.5c-15.82,29.25-25.09,35.33-27.73,26.81-2.52-8.1,9.4-22.45,10.44-23.71C748.93,331.19,753.55,330.31,758,329.64Z" transform="translate(-634.87 -267.79)"/><path class="cls-2" d="M689,356.37a118.2,118.2,0,0,0-22.16,20.69c-2.14,2.6-4.24,5.37-6.21,8.27a119.06,119.06,0,0,0-8.22,14h0C631.47,349.36,673.73,267.36,695.84,271S758,329.76,758,329.76c-4.44.68-9.06,1.56-13.8,2.65-15.57,3.57-32.4,9.44-48.05,19.22C693.74,353.1,691.35,354.69,689,356.37Z" transform="translate(-634.87 -267.79)"/><path class="cls-6" d="M730.67,408.24c4.2.63,8.94,3.95,8.65,7.3-.21,2.56-3.44,3.95-4.7,4.66-1,.59-3.74,2.23-6.63,1.81-3.07-.51-4.87-2.77-6-4.16-1.39-1.68-2.14-3.31-1.85-5.08C720.64,409.67,726.14,407.57,730.67,408.24Z" transform="translate(-634.87 -267.79)"/><path class="cls-7" d="M691.94,562.38c6.08,6.67-15.23,3.07-17.79-2.52h0c.63-1.93,1.34-3.73,2.05-5.45C676.2,554.41,685.81,555.71,691.94,562.38Z" transform="translate(-634.87 -267.79)"/><path class="cls-7" d="M689.55,576.1c2.64,4.62-14.15,3.78-18.51-2.68.25-2.06.63-4,1-6l.12,0C672.22,567.5,686.9,571.49,689.55,576.1Z" transform="translate(-634.87 -267.79)"/><path class="cls-8" d="M688.16,536.78s-7.09,6.34-12.55,19.06c-.75,1.76-1.51,3.69-2.18,5.7a76.15,76.15,0,0,0-2.18,8c-.42,2-.8,4.07-1.09,6.25-.17,1.22-.3,2.48-.42,3.74h0c-19.64-29.13-31.43-66.35-31.43-106.93v-1C646.15,498.38,667.6,525.41,688.16,536.78Z" transform="translate(-634.87 -267.79)"/><path class="cls-9" d="M684.64,274.71A105.5,105.5,0,0,0,665.33,299c-4.11.21-1.38,4-4.7,9.28-1.42,2.26-4.36,5.37-3.48,7.47-16.37,40.37-7.47,75.49-7.47,75.49s-3.4,15.87,7.09-2.85c-4.7-21.07-1.76-47.08,8.86-67.61,4,.09,6.75-2.22,8.52-6.84,1-2.68.88-8.52-2.35-11.24A234.08,234.08,0,0,1,684.64,274.71Z" transform="translate(-634.87 -267.79)"/><ellipse class="cls-9" cx="40.96" cy="54.08" rx="2.18" ry="3.06"/><path class="cls-10" d="M913.44,303.49s-37.56,49.65-10.24,114.45C891.49,399,871.89,372.7,871.89,372.7S877.34,344.87,913.44,303.49Z" transform="translate(-634.87 -267.79)"/><path class="cls-9" d="M813.64,317S874.53,287,920.86,287.84c-5.24,8.9-21.53,44-25.22,58.5a529.88,529.88,0,0,1,41.09-60.72s-24.81-23-124,30.34Z" transform="translate(-634.87 -267.79)"/><path class="cls-11" d="M695.84,270.84s22.29,28.29,31.27,45.87c2.56,8.23-27.53,28.08-31,34.75,16.61-8,50.14-22.28,60.59-21.65C747.88,314.91,709.73,268.45,695.84,270.84Z" transform="translate(-634.87 -267.79)"/><path class="cls-11" d="M693.45,538.84s26,23.88,100.55,26.86a40.3,40.3,0,0,1,35.38,24.21c4.61,10.79,6.84,22.37,6.12,28,12.22-8.81,29.84-22.57,39.66-38.39s23.88-45.16,26.82-61-13.3-16-13.3-16-26.95,38.56-71.89,44.56C770.88,552,742.84,556.93,693.45,538.84Z" transform="translate(-634.87 -267.79)"/><circle class="cls-5" cx="157.16" cy="122.99" r="5.46"/><path class="cls-12" d="M642.71,480.17s106.34,113.48,251.42,12.67c-19.64,25.31-31.22,53.34-117.59,59.13C703.56,545.43,676,548.2,642.71,480.17Z" transform="translate(-634.87 -267.79)"/><path class="cls-6" d="M770.71,555c-5.79,0-11.67-.21-17.58-.63-27-1.84-52.38-7.8-66.39-15.56-20.9-11.5-41.47-38.32-48.85-63.75a2.95,2.95,0,0,1,5.66-1.64c7,24.05,26.36,49.44,46,60.31,26.31,14.52,98.74,23.67,147.89,4.28,33.82-13.35,57.57-40.71,63.49-73.19.34-1.89.63-3.65.8-5.37a86.37,86.37,0,0,0,.67-8.82,89.55,89.55,0,0,0-3.73-27.73c-8.06-27.16-29-52.55-62.16-75.5a2.93,2.93,0,0,1,3.32-4.83c34.29,23.76,56,50.24,64.42,78.69a95.74,95.74,0,0,1,3.94,29.54c-.08,3.15-.33,6.3-.71,9.36-.21,1.81-.51,3.69-.88,5.75-6.3,34.5-31.35,63.54-67.11,77.64C820.4,551,796.39,555,770.71,555Z" transform="translate(-634.87 -267.79)"/><path class="cls-6" d="M640.74,477.11a3,3,0,0,1-2.81-2,59.65,59.65,0,0,1-3-16,63.89,63.89,0,0,1,.5-11.54c.88-7,3.61-28.28,14.36-49.73a124.76,124.76,0,0,1,8.39-14.31c2-2.93,4.15-5.79,6.38-8.47a120.75,120.75,0,0,1,22.7-21.2c2.31-1.68,4.78-3.31,7.26-4.86,14.1-8.78,30.55-15.36,48.93-19.56,4.58-1.05,9.32-1.93,14-2.69l3.53-.5c3.14-.42,6.29-.8,9.44-1.09,5.54-.51,11.16-.84,16.7-.92a145.35,145.35,0,0,1,15.11.41,3,3,0,0,1,2.73,2.94,2.93,2.93,0,0,1-2.94,2.94h-.25c-1-.08-6.26-.5-14.52-.38-5.42.09-10.87.38-16.25.88-3.06.3-6.12.63-9.19,1.05l-3.39.51c-4.58.71-9.15,1.59-13.6,2.6-17.71,4.07-33.57,10.41-47.13,18.84-2.39,1.51-4.74,3.06-7,4.66a113.68,113.68,0,0,0-21.61,20.18c-2.1,2.56-4.15,5.29-6.08,8.1a114.84,114.84,0,0,0-8,13.64c-10.28,20.57-12.88,41.09-13.76,47.84a53.68,53.68,0,0,0-.47,10.54,55.58,55.58,0,0,0,2.73,14.43,2.92,2.92,0,0,1-1.89,3.57A3.46,3.46,0,0,1,640.74,477.11Z" transform="translate(-634.87 -267.79)"/><path class="cls-6" d="M652.41,402.11a3,3,0,0,1-2.73-1.8c-15.82-37.69,3.27-92.62,23.12-117.76,8.44-10.7,16.58-15.73,23.5-14.6,23,3.78,62.41,57.66,64.09,60a2.94,2.94,0,0,1-4.75,3.48c-11-15.11-43.14-54.85-60.3-57.66-4.49-.76-11.21,3.9-17.92,12.46-18.93,24-37.22,76.21-22.29,111.8a3,3,0,0,1-1.55,3.86A3.08,3.08,0,0,1,652.41,402.11Z" transform="translate(-634.87 -267.79)"/><path class="cls-6" d="M901.52,424.9a3.06,3.06,0,0,1-2.27-1,2.93,2.93,0,0,1,.38-4.15C938.36,387.51,943.06,313.78,934.8,290a9.94,9.94,0,0,0-9.74-6.5c-69.58,2.68-105.59,30-120.86,46.12a65.08,65.08,0,0,0-8.77,10.95,2.94,2.94,0,1,1-5.08-3,70.58,70.58,0,0,1,9.61-12c15.86-16.71,53.21-45.2,124.89-47.93a15.8,15.8,0,0,1,15.53,10.45c5,14.52,5.08,40.79.08,65.47-6.25,30.93-19.39,56.06-37.05,70.71A2.92,2.92,0,0,1,901.52,424.9Z" transform="translate(-634.87 -267.79)"/><path class="cls-6" d="M891.11,359.73a3.51,3.51,0,0,1-1.09-.21,2.91,2.91,0,0,1-1.64-3.82c15.45-39,44-70.71,45.24-72.06a2.95,2.95,0,0,1,4.37,3.95c-.3.33-29.09,32.27-44.11,70.25A3,3,0,0,1,891.11,359.73Z" transform="translate(-634.87 -267.79)"/><path class="cls-6" d="M670.66,579.92h-.25a2.93,2.93,0,0,1-2.69-3.19c.09-1.17.21-2.35.38-3.69.3-2.1.63-4.15,1-6.17.59-2.68,1.3-5.37,2.14-8,.63-1.89,1.34-3.82,2.14-5.67,5.37-12.54,12.38-18.92,12.68-19.18a2.93,2.93,0,0,1,4.15.26,3,3,0,0,1-.21,4.15c-.13.13-6.42,5.92-11.2,17.12-.76,1.72-1.39,3.49-2,5.21a61.41,61.41,0,0,0-2,7.34c-.42,1.89-.71,3.78-1,5.71-.17,1.22-.3,2.35-.38,3.44A2.86,2.86,0,0,1,670.66,579.92Z" transform="translate(-634.87 -267.79)"/><path class="cls-6" d="M640.74,478.07a2.92,2.92,0,0,1-2.94-2.94v-1a2.94,2.94,0,0,1,5.88.08v1A2.93,2.93,0,0,1,640.74,478.07Z" transform="translate(-634.87 -267.79)"/><path class="cls-6" d="M773.81,639.26a115.9,115.9,0,0,1-53-12.92,124.32,124.32,0,0,1-17.33-10.7,148,148,0,0,1-35.21-37,2.93,2.93,0,1,1,4.87-3.27,141.42,141.42,0,0,0,33.78,35.5,122.48,122.48,0,0,0,16.53,10.2,110,110,0,0,0,50.36,12.3,107.58,107.58,0,0,0,31.81-4.79C863.5,610.89,904,547.78,904,475.13A192.22,192.22,0,0,0,902.44,451l-.08-.71a2.94,2.94,0,0,1,5.83-.71l.08.71a195.42,195.42,0,0,1,1.56,24.88c0,37.19-10,72.23-29,101.39-18.51,28.37-44.57,48.89-73.44,57.71A115.57,115.57,0,0,1,773.81,639.26Z" transform="translate(-634.87 -267.79)"/><path class="cls-6" d="M705.16,616.18a2.92,2.92,0,0,1-2.9-2.47c-3.69-22.41,3.57-52.92,3.86-54.22a2.93,2.93,0,1,1,5.71,1.34c-.08.29-7.26,30.63-3.78,51.87a2.94,2.94,0,0,1-2.43,3.36A.67.67,0,0,1,705.16,616.18Z" transform="translate(-634.87 -267.79)"/><path class="cls-6" d="M729,425a9,9,0,0,1-1.47-.13c-4-.63-6.38-3.44-7.64-4.95l-.17-.17c-2.1-2.52-2.94-4.95-2.52-7.47.88-5,8.06-7.85,13.89-7s11.59,5.29,11.12,10.45c-.33,3.86-4,5.79-5.75,6.76a3.68,3.68,0,0,0-.41.25l-.17.09A14.44,14.44,0,0,1,729,425Zm-.13-13.94c-3.11,0-5.75,1.56-5.88,2.23,0,.29-.16,1.05,1.22,2.68l.17.21c1,1.18,2.18,2.65,4,2.94,1.68.25,3.61-.8,4.53-1.34l.17-.09c.17-.08.33-.21.54-.29,2.19-1.13,2.65-1.76,2.69-2.06h0c.08-1.05-2.69-3.61-6.17-4.15A4.29,4.29,0,0,0,728.87,411.05Z" transform="translate(-634.87 -267.79)"/><path class="cls-6" d="M740,450.5h-.72a14.5,14.5,0,0,1-10.86-4.87c-5.08-5.83-5-15.36-4.41-20.52a2.95,2.95,0,1,1,5.87.59c-.33,3.4-.75,11.75,3,16.07a8.65,8.65,0,0,0,6.63,2.86,14.9,14.9,0,0,0,4.65-.63,9.32,9.32,0,0,0,1.39-.51,15.47,15.47,0,0,0,3.86-2.52l4.87-4.23a2.94,2.94,0,0,1,3.86,4.44l-4.91,4.24a22.05,22.05,0,0,1-5.29,3.44,18.9,18.9,0,0,1-2,.76A20.62,20.62,0,0,1,740,450.5Z" transform="translate(-634.87 -267.79)"/><path class="cls-6" d="M726.9,428h-.34a3,3,0,0,1-2.6-3.24,24.81,24.81,0,0,1,.46-3,2.93,2.93,0,0,1,5.75,1.14h0s-.21,1-.38,2.47A2.88,2.88,0,0,1,726.9,428Z" transform="translate(-634.87 -267.79)"/><path class="cls-6" d="M714.39,445.76a12.19,12.19,0,0,1-6.5-1.93,12.61,12.61,0,0,1-5.59-8.48l-.21-1.3a2.94,2.94,0,0,1,5.8-1l.21,1.3a6.49,6.49,0,0,0,3,4.49,5.86,5.86,0,0,0,4.86.8c6-1.59,7.64-11.58,8-14.6v-.13a.73.73,0,0,1,0-.29c.08-.84.13-1.43.13-1.43a2.92,2.92,0,0,1,5.83.21c0,.08,0,.8-.17,1.93l0,.38c-.59,5-3,17.12-12.34,19.6A9.38,9.38,0,0,1,714.39,445.76Z" transform="translate(-634.87 -267.79)"/><path class="cls-6" d="M806.46,634.35a3,3,0,0,1-2.93-2.72c0-.42-3.15-42.64-22.29-59.93a27,27,0,0,0-25.93-5.5c-14.77,4.49-24.34,15.36-28.5,32.27a78.47,78.47,0,0,0-1.8,24.89,2.94,2.94,0,0,1-5.84.71,82.43,82.43,0,0,1,1.89-26.86c4.58-18.88,15.82-31.55,32.57-36.67a33,33,0,0,1,31.6,6.75c20.9,18.89,24.09,62.07,24.21,63.92a2.92,2.92,0,0,1-2.72,3.14Z" transform="translate(-634.87 -267.79)"/><path class="cls-6" d="M714.81,443.24c-.25-.75,7.76-3,9.82-7.18,2.18,2.31,4.41,8.36,9.36,10.66C731.81,451.21,720.64,461.33,714.81,443.24Z" transform="translate(-634.87 -267.79)"/><path class="cls-8" d="M715.73,445.17s12.85-2.14,17.34,4.28C728.37,455.24,719.17,463.72,715.73,445.17Z" transform="translate(-634.87 -267.79)"/><path class="cls-6" d="M723.75,458.22a9.78,9.78,0,0,1-2.43-.29,10.61,10.61,0,0,1-7.14-6.38,21.73,21.73,0,0,1-1.59-8,2.2,2.2,0,0,1,4.4.12,17.41,17.41,0,0,0,1.26,6.17,6.23,6.23,0,0,0,4.11,3.78,5.66,5.66,0,0,0,5-1.18,30.86,30.86,0,0,0,5.24-5.79,2.22,2.22,0,0,1,3.07-.59,2.19,2.19,0,0,1,.58,3.07,34.51,34.51,0,0,1-6.08,6.75A10.05,10.05,0,0,1,723.75,458.22Z" transform="translate(-634.87 -267.79)"/><path class="cls-5" d="M954.6,507.62a3.28,3.28,0,0,1,2.35,4l-2.47,9.52a3.3,3.3,0,0,1-4,2.35l-6.72-1.72L848,497l-4.15-1.09a3.36,3.36,0,0,1-2.4-4l2.48-9.53a3.3,3.3,0,0,1,4-2.35l5.16,1.35L945,505.14Z" transform="translate(-634.87 -267.79)"/><path class="cls-13" d="M947.81,422.09a10.13,10.13,0,0,1-.34,6.38l-19.26,7a9.39,9.39,0,0,0-5.46,5.29c-.46,1.17-.92,2.3-1.38,3.44a3.13,3.13,0,0,0,.42,3h0a1.78,1.78,0,0,1,.42,1.59c-.55,1.68-4.75,1.89-9.4.42s-8-4-7.47-5.75a2,2,0,0,1,1.25-1.09h0a4.77,4.77,0,0,0,2.73-2.3l4.45-8.94a9.31,9.31,0,0,1,4.66-4.41l24.47-10.62A10.3,10.3,0,0,1,947.81,422.09Z" transform="translate(-634.87 -267.79)"/><path class="cls-5" d="M921.79,447.31a47.61,47.61,0,0,1,24.29,54.26,33.45,33.45,0,0,1-1.09,3.57l-91.86-23.79a36.86,36.86,0,0,1,.8-3.66,47.61,47.61,0,0,1,52.71-35.2c-.67.25-1.14.58-1.26,1.09-.55,1.68,2.81,4.28,7.47,5.75s8.85,1.3,9.4-.42A2,2,0,0,0,921.79,447.31Z" transform="translate(-634.87 -267.79)"/><polygon class="cls-5" points="213.19 229.21 308.91 254.01 305.51 263.37 305.34 263.28 211.55 239.03 211.46 238.99 213.19 229.21"/><path class="cls-5" d="M940.38,531.16l-35,96.65a6.2,6.2,0,0,1-7.43,3.9L833.32,615a6.21,6.21,0,0,1-4.57-7.14l17.58-101.05h.09L940.21,531ZM902.1,619.41,923,560.66a50.5,50.5,0,0,0-20.44-7.22c-12.33-1.47-18.21,2.86-28.36,1.89-6.76-.67-16.25-3.73-27-15.06l-10.24,62.32a6.25,6.25,0,0,0,4.62,7l53.17,13.76A6.24,6.24,0,0,0,902.1,619.41Z" transform="translate(-634.87 -267.79)"/><path class="cls-13" d="M924.81,555.46l-21.24,58.33a6.23,6.23,0,0,1-7.47,4L842.93,604a6.24,6.24,0,0,1-4.61-7.05l10.24-62.32c10.78,11.33,20.27,14.44,27,15.07,10.16,1,16-3.36,28.37-1.89A53.34,53.34,0,0,1,924.81,555.46Z" transform="translate(-634.87 -267.79)"/><path class="cls-8" d="M923,560.66,902.1,619.41a6.21,6.21,0,0,1-7.47,4l-53.17-13.77a6.23,6.23,0,0,1-4.61-7.05l10.28-62.27c10.78,11.33,20.27,14.43,27,15.06,10.15,1,16-3.36,28.36-1.89A51.34,51.34,0,0,1,923,560.66Z" transform="translate(-634.87 -267.79)"/><path class="cls-6" d="M951.33,526.59a6.88,6.88,0,0,1-1.55-.21l-6.72-1.73L843.18,498.8a6.23,6.23,0,0,1-4.49-7.59l2.48-9.53a6.3,6.3,0,0,1,7.6-4.49l5.16,1.34L955.4,504.8a6.16,6.16,0,0,1,3.82,2.9,6.23,6.23,0,0,1,.67,4.74l-2.47,9.49A6.41,6.41,0,0,1,951.33,526.59ZM847.17,482.86a.45.45,0,0,0-.38.29l-2.47,9.48a.26.26,0,0,0,0,.26.42.42,0,0,0,.21.16l4.15,1.1,102.44,26.52a.36.36,0,0,0,.42-.25l2.48-9.53a.38.38,0,0,0,0-.29.43.43,0,0,0-.21-.17l-106.6-27.62C847.26,482.86,847.21,482.86,847.17,482.86Z" transform="translate(-634.87 -267.79)"/><path class="cls-6" d="M945,508.08a2.55,2.55,0,0,1-1-.17,2.91,2.91,0,0,1-1.8-3.73c.37-1.1.71-2.23,1-3.36a44.94,44.94,0,0,0-22.78-50.91,2.92,2.92,0,1,1,2.68-5.2A50.58,50.58,0,0,1,949,502.33c-.34,1.3-.71,2.56-1.13,3.82A3,3,0,0,1,945,508.08Z" transform="translate(-634.87 -267.79)"/><path class="cls-6" d="M853.13,484.28a2.07,2.07,0,0,1-.5,0,2.94,2.94,0,0,1-2.4-3.4c.21-1.26.51-2.56.84-3.9a50.49,50.49,0,0,1,56-37.39,2.93,2.93,0,0,1-.84,5.79,44.57,44.57,0,0,0-49.44,33c-.29,1.17-.54,2.3-.75,3.4A2.93,2.93,0,0,1,853.13,484.28Z" transform="translate(-634.87 -267.79)"/><path class="cls-6" d="M899.54,634.86a8.65,8.65,0,0,1-2.3-.3l-64.63-16.74a9.23,9.23,0,0,1-6.76-10.45l19.31-110.83a2.94,2.94,0,0,1,5.79,1L831.64,608.38a3.31,3.31,0,0,0,2.44,3.77l64.63,16.75a3.29,3.29,0,0,0,3.94-2.1l38.36-106a2.95,2.95,0,0,1,5.54,2l-38.36,106A9.26,9.26,0,0,1,899.54,634.86Z" transform="translate(-634.87 -267.79)"/><path class="cls-6" d="M918.6,453.23a23.28,23.28,0,0,1-6.68-1.13c-5.16-1.64-10.74-5.08-9.4-9.4a4.42,4.42,0,0,1,2.35-2.65L905,440l.71-.25a1.66,1.66,0,0,0,1-.84l4.45-8.94a12.09,12.09,0,0,1,6.13-5.79L943.06,413l1.26.63a13.17,13.17,0,0,1,6.34,7.64,12.78,12.78,0,0,1-.46,8.31l-.51,1.22-1.21.46c-3.74,1.38-7.51,2.77-11.25,4.11l-8,2.94a6.46,6.46,0,0,0-3.74,3.61c-.33.8-.63,1.59-1,2.39l-.47,1.09v0l.63.59v.5a4.43,4.43,0,0,1,.3,3.28C924.22,452.35,921.66,453.23,918.6,453.23Zm-9.28-8.77a17.54,17.54,0,0,0,4.41,2.05,15.53,15.53,0,0,0,4.83.84,5.82,5.82,0,0,1,.08-4.15l.46-1.09c.34-.8.63-1.56,1-2.35a12.19,12.19,0,0,1,7.17-6.93l8-2.93,9.9-3.66a6.43,6.43,0,0,0-.13-3.31,7,7,0,0,0-2.3-3.4l-23,10a6.38,6.38,0,0,0-3.19,3l-4.45,8.94A7.74,7.74,0,0,1,909.32,444.46Z" transform="translate(-634.87 -267.79)"/><path class="cls-6" d="M940.21,534a5,5,0,0,1-.76-.08l-93.79-24.3a2.92,2.92,0,1,1,1.47-5.66l93.79,24.25a2.94,2.94,0,0,1,2.1,3.57A2.9,2.9,0,0,1,940.21,534Z" transform="translate(-634.87 -267.79)"/><path class="cls-12" d="M875.29,477.11a228.91,228.91,0,0,0,55.48,18.59C917.25,484.66,875.29,477.11,875.29,477.11Z" transform="translate(-634.87 -267.79)"/><path class="cls-5" d="M896.86,558.56c3.27-13,14.56-24.76,25.3-27.82-12.46-2.81-29.67,11.71-33.82,28.28-4.36,17.34,4.91,39.24,18,41.3a14,14,0,0,0,7-.76C901.1,596.21,892.7,575.27,896.86,558.56Z" transform="translate(-634.87 -267.79)"/><path class="cls-5" d="M843.48,526c.8-5.92,4.57-12.64,9.69-15.32a9.45,9.45,0,0,0-3.61-.8c-7.51-.17-13.55,8.86-14.6,16.54-1.13,8.43,3.1,19.38,10.87,20.73a11.12,11.12,0,0,0,6.5-1C845.91,543.37,842.43,533.64,843.48,526Z" transform="translate(-634.87 -267.79)"/><path class="cls-12" d="M936.35,567.17c2.18-12.93-1.18-31.9-12.55-36a12.14,12.14,0,0,0-1.64-.46c-10.74,3.11-22,14.81-25.3,27.82-4.2,16.66,4.24,37.65,16.58,41C924.22,595.79,934,580.81,936.35,567.17Z" transform="translate(-634.87 -267.79)"/><path class="cls-12" d="M863.33,530c.8-7.85-3.82-16.79-10.16-19.43-5.12,2.68-8.89,9.4-9.69,15.31-1.05,7.68,2.39,17.46,8.89,20.15C858,543.5,862.66,536.78,863.33,530Z" transform="translate(-634.87 -267.79)"/><path class="cls-6" d="M847.51,550.21a9.09,9.09,0,0,1-2.14-.21c-9.53-1.68-14.65-14-13.26-24,1.25-9.28,8.51-19.1,17.33-19.1h.25c3.86.08,7.68,2,10.74,5.46a24.19,24.19,0,0,1,5.88,18h0A24.3,24.3,0,0,1,857,546.69,15.57,15.57,0,0,1,847.51,550.21Zm1.89-37.43c-5.5,0-10.58,7.34-11.5,14-1,7.06,2.6,16.41,8.47,17.46,2.19.38,4.66-.37,7-2.18a18.56,18.56,0,0,0,7-12.34h0A18.57,18.57,0,0,0,856,516.26c-2-2.22-4.23-3.44-6.46-3.48ZM863.33,530Z" transform="translate(-634.87 -267.79)"/><path class="cls-6" d="M908.4,603.38a12.22,12.22,0,0,1-2.48-.21c-5.41-.84-10.57-4.57-14.52-10.53a45,45,0,0,1-5.91-34.37c2.77-11.12,11.45-22.2,21.57-27.57,6.25-3.36,12.54-4.16,17.71-2.31,13.55,4.87,16.61,26.31,14.43,39.24C936.35,585,922.58,603.38,908.4,603.38Zm10.57-70a19.75,19.75,0,0,0-9.14,2.6,37.33,37.33,0,0,0-13.56,53.55c3,4.53,6.76,7.39,10.53,8a11.29,11.29,0,0,0,1.6.12c10.83,0,22.54-16.28,25-30.84h0c2.18-12.89-1.68-29.51-10.66-32.74A9.94,9.94,0,0,0,919,533.34Z" transform="translate(-634.87 -267.79)"/><path class="cls-6" d="M710.15,387.17a2.87,2.87,0,0,1-2.43-1.3c-.46-.67-11.67-16.53-35.46-8.47a3,3,0,1,1-1.89-5.59c12.76-4.32,22.62-2.56,29.58.72a26.2,26.2,0,0,0-18.12-7.14,2.94,2.94,0,0,1-.3-5.87c.25,0,23.92-.88,31.39,23.88a3,3,0,0,1-1.55,3.52A2.86,2.86,0,0,1,710.15,387.17Z" transform="translate(-634.87 -267.79)"/></g></svg>