<svg xmlns="http://www.w3.org/2000/svg" xmlns:xlink="http://www.w3.org/1999/xlink" viewBox="0 0 841.65 794.43">
    <defs>
        <style>
            .cls-1{fill:url(#未命名的渐变_8);}.cls-2{fill:url(#未命名的渐变_2);}.cls-3{fill:url(#未命名的渐变_4);}.cls-4{fill:#fff;}.cls-5{fill:url(#未命名的渐变_41);}.cls-6{fill:url(#未命名的渐变_3);}.cls-7{fill:url(#未命名的渐变_7);}
        </style>
        <linearGradient id="未命名的渐变_8" x1="198.97" y1="747.01" x2="203.27" y2="747.9"
                        gradientTransform="matrix(55, 0, 0, -67.5, -10281.15, 51218)" gradientUnits="userSpaceOnUse">
            <stop offset="0" stop-color="#0c5298"/>
            <stop offset="1" stop-color="#0d74db"/>
        </linearGradient>
        <linearGradient id="未命名的渐变_2" x1="193.78" y1="740.18" x2="198.07" y2="741.61"
                        gradientTransform="matrix(121.81, 0, 0, -34.88, -23252.33, 26687.76)"
                        gradientUnits="userSpaceOnUse">
            <stop offset="0" stop-color="#0b74b6"/>
            <stop offset="1" stop-color="#0095ff"/>
        </linearGradient>
        <linearGradient id="未命名的渐变_4" x1="192.88" y1="755.11" x2="197.18" y2="755.11"
                        gradientTransform="matrix(105, 0, 0, -33, -20034, 25122)" gradientUnits="userSpaceOnUse">
            <stop offset="0.34" stop-color="#00e3cc"/>
            <stop offset="1" stop-color="#5de16b"/>
        </linearGradient>
        <linearGradient id="未命名的渐变_41" x1="218.65" y1="317.4" x2="897.13" y2="317.4" gradientUnits="userSpaceOnUse">
            <stop offset="0.19" stop-color="#07e0cb"/>
            <stop offset="1" stop-color="#1acca1"/>
        </linearGradient>
        <linearGradient id="未命名的渐变_3" x1="194.89" y1="753.78" x2="194.94" y2="749.49"
                        gradientTransform="matrix(58, 0, 0, -185, -10963, 139578)" gradientUnits="userSpaceOnUse">
            <stop offset="0.19" stop-color="#07e0cb"/>
            <stop offset="1" stop-color="#1ab6ff"/>
        </linearGradient>
        <linearGradient id="未命名的渐变_7" x1="192.3" y1="750.63" x2="196.59" y2="750.63"
                        gradientTransform="matrix(196, 0, 0, -77.5, -37635, 58678.5)" gradientUnits="userSpaceOnUse">
            <stop offset="0" stop-color="#0d559c"/>
            <stop offset="1" stop-color="#07c"/>
        </linearGradient>
    </defs>
    <path class="cls-1"
          d="M660.3,926.89c125.09-.82,227.34-98.81,236.18-222.91C886.82,687.62,838.6,647,736.1,637c5.32,6.44,17.22,31.82,15,73-2.75,51.48-66.78,74.54-90.18,75.14Z"
          transform="translate(-55.48 -132.48)"/>
    <path id="并集" class="cls-2"
          d="M660.3,926.9c79.75-.51,150.17-40.53,193.07-101.6-31.74,5-116.63,3.78-159.83-48.18-12.84,5.24-24.9,7.86-32.59,8.08v0H330.3V856a70.84,70.84,0,0,0,70.85,70.85H660.3Zm-1.5,0h1.5"
          transform="translate(-55.48 -132.48)"/>
    <path class="cls-3" d="M218.65,274.18H669.54V132.48H218.65Z" transform="translate(-55.48 -132.48)"/>
    <path class="cls-4"
          d="M669.54,132.48v141.7c83.73,12.88,100.91,111.65,60.11,161,66.56,17.18,111,55.53,117.54,67.12a226.49,226.49,0,0,0,49.94-142.27C897.13,234.38,795.23,132.48,669.54,132.48Z"
          transform="translate(-55.48 -132.48)"/>
    <path class="cls-5"
          d="M669.54,132.48H218.65v141.7H669.54c83.73,12.88,100.91,111.65,60.11,161,66.56,17.18,111,55.53,117.54,67.12a226.49,226.49,0,0,0,49.94-142.27C897.13,234.38,795.23,132.48,669.54,132.48Z"
          transform="translate(-55.48 -132.48)"/>
    <path class="cls-6"
          d="M218.65,845.3c0,30.06,23.62,81.59,73,81.59H467.71c-94.47,0-94.47-141.36-94.47-141.36v-653H218.65Z"
          transform="translate(-55.48 -132.48)"/>
    <path class="cls-7"
          d="M377.54,604.83c364.1-1,464.32,12.8,519.59,66.56,0-45.09-69.1-133.51-412.24-152.44C576,515,806.3,526.12,877.8,607c-6.52-48.44-70.59-161.42-266.23-161-244.55.47-287.11.17-279.12,0-150.3,0-220.29-36.93-277-107.36C55.48,465.27,86.27,605.65,377.54,604.83Z"
          transform="translate(-55.48 -132.48)"/>
</svg>
